<svg width="129" height="130" viewBox="0 0 129 130" fill="none" xmlns="http://www.w3.org/2000/svg">
<g clip-path="url(#clip0_55_1464)">
<path fill-rule="evenodd" clip-rule="evenodd" d="M24.7494 75.0528C20.4062 73.8528 21.3152 73.6595 15.77 73.6799C12.4772 73.6901 8.54805 73.4765 5.33605 73.6799C-1.73437 74.1375 0.245346 82.6496 0.245346 89.4837C0.245346 96.2873 0.245346 103.091 0.245346 109.894C0.245346 115.03 -1.02733 126.278 2.21497 128.78C4.10378 130.234 18.4163 130.193 21.3556 129.624C23.6788 129.176 23.5879 128.261 24.5777 127.712C26.4463 126.674 56.9704 127.478 60.5056 127.244C67.1518 126.797 69.182 120.878 66.3135 115.142C71.5759 112.996 73.0102 108.969 70.2224 102.969C72.4344 102.359 74.3434 100.548 75.0808 98.4026C76.202 95.1686 74.9697 93.277 73.8687 90.8363C79.7675 88.9244 80.3634 79.8326 74.1919 77.2393C71.1415 75.9579 55.8795 76.5884 51.4251 76.5884C52.8796 71.0052 56.2229 64.6491 54.4452 57.8761C51.7181 47.5233 37.6479 44.1876 35.3147 51.581C34.2642 54.9065 35.9813 57.8863 33.9915 61.7711C31.6077 66.4492 25.8807 72.5409 24.7393 75.0426L24.7494 75.0528Z" fill="#33667B"/>
<path fill-rule="evenodd" clip-rule="evenodd" d="M78.9692 14.5529C64.1112 16.7699 51.6672 29.7669 54.0005 47.4419C55.9398 62.0558 69.6463 74.7375 86.6356 72.368C101.281 70.334 113.877 56.6964 111.422 39.2451C109.402 24.9057 95.8069 12.041 78.9692 14.5529Z" fill="#33667B"/>
<path fill-rule="evenodd" clip-rule="evenodd" d="M25.5173 124.183C34.4665 124.763 45.1125 124.244 54.2536 124.254C58.9302 124.254 64.233 125.108 64.7279 120.329C65.4451 113.444 58.4756 116.362 55.3546 114.694L55.3243 112.955C59.213 110.881 68.2833 114.959 68.7682 108.288C69.3843 99.745 58.0211 106.782 57.91 100.935C62.2028 99.2466 71.0812 102.776 72.3842 97.2025C73.0912 94.1516 71.2529 92.0261 68.7884 91.599C65.5259 91.0295 61.9402 93.0126 62.2634 89.1582C65.1017 87.6531 70.4045 89.6362 73.4448 87.8565C76.4345 86.1175 76.4042 81.0936 72.6872 79.8936C67.6571 78.2664 52.7183 80.8597 47.8599 79.2326C47.5569 78.6325 47.5165 79.9139 47.5468 77.9512C47.5872 75.2358 56.8798 61.5168 48.7286 53.7166C46.5468 51.6318 38.6582 47.6046 38.032 53.8692C37.2644 61.5982 38.6077 60.6829 34.3756 66.8255C26.1941 78.7037 25.2547 75.7647 25.3153 82.6699C25.4062 92.2092 24.4467 118.742 25.5375 124.183H25.5173Z" fill="#C6907A"/>
<path fill-rule="evenodd" clip-rule="evenodd" d="M78.3328 17.6445C65.3232 19.9225 54.0409 32.3805 57.1316 48.3877C59.5861 61.1202 72.0199 72.2764 87.6658 69.195C100.251 66.7136 111.13 54.3472 108.362 38.6552C106.13 26.0142 93.7363 14.9394 78.3429 17.6445H78.3328Z" fill="white"/>
<path fill-rule="evenodd" clip-rule="evenodd" d="M40.4656 44.7266C43.1524 44.8181 42.5362 43.1604 42.718 40.2926C42.8696 37.8722 43.2534 35.6348 43.8089 33.4382C51.6874 2.67465 89.7263 -6.96629 111.22 14.8478C132.26 36.184 123.806 74.1477 93.0393 82.4767C83.9891 84.9276 81.2216 82.1615 81.4438 86.1988C83.777 87.4396 88.2011 86.4327 91.1505 86.0463C93.3726 88.1006 103.645 107.901 105.009 109.569C106.251 111.094 108.544 111.532 110.15 109.671C111.16 108.501 113.675 100.304 114.362 98.4229C116.907 98.7381 124.998 100.721 126.775 100.213C131.502 98.8602 127.412 93.3685 126.058 90.9888C122.493 84.7446 119.018 78.2563 115.261 72.1849C117.665 67.8424 121.675 64.9949 124.341 54.8455C130.098 32.9805 118.745 10.9935 98.534 3.02041C77.4641 -5.29845 54.3741 4.2713 44.5968 23.2582C42.6877 26.96 37.4152 40.7807 40.4555 44.7368L40.4656 44.7266Z" fill="#33667B"/>
<path fill-rule="evenodd" clip-rule="evenodd" d="M3.20508 80.0665V123.512C3.20508 128.271 6.41707 126.786 18.9014 126.786C22.1437 126.786 22.3255 126.654 22.3255 123.512C22.3255 114.4 22.8003 83.9513 21.9619 77.1274C16.6894 76.1409 12.235 76.6393 6.42717 76.6596C3.34649 76.6596 3.21518 77.0664 3.21518 80.0665H3.20508Z" fill="#3598C5"/>
<path fill-rule="evenodd" clip-rule="evenodd" d="M72.4443 47.5945C72.3332 50.859 70.0101 56.076 72.9797 58.0897C76.6563 60.5711 79.737 55.954 82.4237 55.7099C84.9489 55.476 88.1407 60.0524 91.9183 58.4151C95.4939 56.8693 93.1405 51.2047 93.0092 47.3707C94.4738 46.3944 99.0695 43.0588 98.4736 39.8756C97.6858 35.6958 92.2011 37.3942 89.0699 35.584C87.0296 33.1636 86.6256 28.2007 82.8581 28.0787C78.2017 27.9262 78.7269 33.428 76.5048 35.4518C73.7372 37.9739 68.3233 35.2179 67.0203 39.5502C65.9698 43.0282 70.8282 46.5368 72.4544 47.6046L72.4443 47.5945Z" fill="#33667B"/>
<path fill-rule="evenodd" clip-rule="evenodd" d="M94.5443 85.4463L106.514 106.467C107.958 108.481 106.625 107.057 108.049 107.921C108.998 103.996 110.513 99.1144 112.806 95.7686C117.048 95.1482 121.745 97.0296 126.018 97.4466L113.15 74.524C109.978 76.7003 107.988 78.8258 104.443 80.8699C101.332 82.6699 96.9684 83.9513 94.5342 85.4361L94.5443 85.4463Z" fill="white"/>
<path fill-rule="evenodd" clip-rule="evenodd" d="M69.7985 40.0282C70.4652 43.3943 73.3034 43.7299 74.9094 46.2012C76.5356 48.7131 73.7883 52.3641 74.768 55.7404C77.5659 55.5167 80.4547 52.3234 82.7778 52.4454C86.4241 52.6183 92.03 59.9304 90.5654 51.9268C90.2624 50.2589 89.9795 48.8962 89.8987 47.0961C91.4037 45.2351 95.1511 41.5638 95.6258 40.4248C93.434 38.8586 88.8079 39.7231 87.0302 38.1773C85.3737 36.7332 84.9393 32.6754 82.8283 31.0483C80.5456 32.1161 80.4648 35.6755 78.7982 37.8112C77.3639 39.6417 72.253 39.3875 69.7783 40.0485L69.7985 40.0282Z" fill="#FDE6B5"/>
</g>
<defs>
<clipPath id="clip0_55_1464">
<rect width="129" height="130" fill="white"/>
</clipPath>
</defs>
</svg>
