<svg width="600" height="534" viewBox="0 0 600 534" fill="none" xmlns="http://www.w3.org/2000/svg">
<path fill-rule="evenodd" clip-rule="evenodd" d="M153.807 277.97L226.619 277.929C234.721 277.929 243.331 277.333 251.35 277.59C249.796 276.36 249.572 273.152 250.105 270.868C248.528 271.238 245.5 271.023 243.548 271.168C241.308 271.334 239.145 271.411 236.919 271.591C233.031 271.906 230.23 273.472 230.227 265.07C230.225 260.379 231.426 251.993 234.561 248.471C235.724 247.166 237.607 246.599 240.139 247.016C250.543 248.73 254.21 245.509 263.066 242.923C268.852 241.233 277.375 239.137 283.586 238.91C284.937 238.86 285.881 239.324 286.666 238.836L291.933 214.553C292.049 213.97 292.176 213.387 292.309 212.759C292.445 212.114 292.48 211.588 292.904 211.165L301.502 237.13C302.76 240.525 303.784 242.325 305.131 245.278C305.549 246.18 306.634 246.479 307.627 247.249L311.528 250.497C312.051 251.083 311.984 251.313 312.567 251.835C316.24 255.126 321.345 263.366 317.837 267.655L326.266 267.701L340.58 224.052L331.227 192.992C328.09 182.664 325.195 172.333 321.883 162.072C320.229 156.941 318.622 151.845 316.67 147.029C313.05 138.096 309.154 132.461 301.35 127.02C297.715 124.485 288.853 119.474 284.816 118.586C283.861 119.043 283.217 120.11 280.931 121.408C276.259 124.06 270.79 125.509 265.271 124.361C264.871 125.846 264.068 127.77 263.296 129.342C263.074 132.521 260.861 135.227 258.911 137.278C257.202 139.073 253.529 140.233 250.138 140.66C243.42 141.506 235.471 138.64 230.767 135.872C226.898 133.594 223.594 130.987 220.527 127.778C217.972 125.105 215.002 120.103 213.787 116.407C213.091 114.292 212.309 109.558 213.44 107.325L213.926 106.346C212.148 106.771 209.283 108.002 207.454 108.678C192.814 114.092 176.396 117.471 163.43 125.937C162.504 126.541 161.732 127.151 160.782 127.798L158.373 129.691C157.749 130.155 157.535 130.206 157.035 130.744L153.823 133.997C151.789 135.728 147.904 142.329 146.977 144.566C137.963 166.315 131.539 208.805 128.514 230.68C127.128 240.709 124.575 259.684 133.995 266.411C138.738 269.797 148.652 271.702 154.307 271.992L153.805 277.972L153.807 277.97Z" fill="#3598C5"/>
<path fill-rule="evenodd" clip-rule="evenodd" d="M493.477 233.457L490.11 248.28L483.071 246.911C483.793 242.219 485.745 235.944 487.082 231.209C488.452 233.016 491.395 233.203 493.475 233.455L493.477 233.457Z" fill="#7B9FA3"/>
<path fill-rule="evenodd" clip-rule="evenodd" d="M492.483 227.45L493.268 227.036L493.61 227.66C494.422 229.354 493.779 231.681 493.479 233.458C491.399 233.205 488.456 233.018 487.085 231.212C487.407 229.948 487.608 229.186 488.245 228.082C488.977 226.812 489.461 226.807 490.102 225.911C490.651 226.87 490.849 227.133 492.484 227.45H492.483Z" fill="#FEE1BD"/>
<path fill-rule="evenodd" clip-rule="evenodd" d="M490.1 225.911C490.773 224.496 491.658 222.859 492.948 222.627C493.734 223.515 493.782 225.376 493.335 226.921L493.266 227.034C493.069 227.217 492.814 227.439 492.55 227.453C491.686 227.501 490.358 227.102 490.099 225.91L490.1 225.911Z" fill="#3D566E"/>
<path fill-rule="evenodd" clip-rule="evenodd" d="M469.877 234.466L470.315 249.659L477.486 249.675C477.683 244.933 476.981 238.399 476.584 233.496C474.891 235.004 471.967 234.621 469.877 234.466Z" fill="#CDB8A3"/>
<path fill-rule="evenodd" clip-rule="evenodd" d="M472.015 228.763L471.326 228.206L470.869 228.752C469.745 230.257 469.926 232.664 469.878 234.464C471.967 234.618 474.891 235.003 476.584 233.495C476.513 232.193 476.463 231.407 476.052 230.201C475.579 228.813 475.104 228.715 474.648 227.712C473.926 228.546 473.679 228.766 472.014 228.761L472.015 228.763Z" fill="#FEE1BD"/>
<path fill-rule="evenodd" clip-rule="evenodd" d="M474.65 227.713C474.263 226.194 473.711 224.417 472.492 223.941C471.548 224.66 471.141 226.478 471.281 228.081L471.326 228.205C471.484 228.422 471.691 228.689 471.946 228.755C472.784 228.967 474.165 228.833 474.648 227.713H474.65Z" fill="#3D566E"/>
<path d="M600.001 477.336C600.001 446.041 465.686 420.671 300 420.671C134.315 420.671 0 446.041 0 477.336C0 508.632 134.315 534.002 300 534.002C465.686 534.002 600.001 508.632 600.001 477.336Z" fill="#D2DFE6"/>
<path fill-rule="evenodd" clip-rule="evenodd" d="M155.757 294.985C156.019 297.488 155.425 300.76 155.669 303.653C156.726 316.177 158.133 325.63 168.974 333.409C171.46 335.194 177.75 338.443 180.85 338.326C190.145 339.039 245.298 337.641 248.386 338.376C248.613 338.991 249.268 350.3 249.14 351.555L179.784 351.634C185.459 351.904 191.332 351.689 197.058 351.651L240.919 351.702C241.783 351.701 248.635 351.4 249.291 351.953C249.393 359.669 250.311 367.845 250.624 375.57C250.947 383.476 251.51 391.342 251.938 399.279C252.362 407.14 252.589 415.196 253.265 422.976C253.599 426.806 253.735 430.821 253.973 434.647C254.069 436.2 254.005 438.968 254.509 440.324C255.379 442.666 256.72 441.797 258.357 442.749C258.274 445.155 258.37 447.93 258.127 450.278C257.913 452.358 257.433 454.681 257.085 456.788C256.536 460.087 254.012 474.488 258.343 476.122C259.353 476.504 264.258 476.317 265.71 476.313C273.712 476.289 324.067 476.607 326.062 476.166C330.318 475.225 336.242 475.787 340.798 475.811L393.958 475.899C396.615 475.907 398.276 475.468 398.206 472.525C398.004 464.253 387.406 460.743 382.284 457.961C378.987 456.17 363.372 448.951 362.053 447.941L361.939 441.794C366.99 441.308 366.152 439.15 366.846 434.655C367.383 431.169 367.653 427.559 368.139 424.078C370.125 409.875 371.514 395.826 373.359 381.618C374.255 374.722 374.881 367.568 375.9 360.557C376.909 353.605 377.516 346.156 378.283 339.168C379.268 330.202 379.532 315.839 374.493 308.128C373.62 306.792 373.046 305.583 372.111 304.527C367.811 299.675 360.36 295.554 352.697 294.4L156.299 294.515C155.647 295.007 156.141 293.982 155.759 294.987L155.757 294.985ZM292.904 442.542C292.699 444.079 292.957 447.644 293.307 448.97C295.543 449.611 298.822 451.556 301.069 452.647C304.69 454.408 317.173 460.437 320.128 462.186L323.576 464.419C323.93 457.854 327.732 446.839 326.891 441.321C324.758 440.403 323.661 440.836 323.503 438.002C323.313 434.617 324.014 421.717 324.136 417.742C324.406 408.918 324.884 399.906 325.047 391.061C325.11 387.711 327.161 339.576 326.817 338.136L303.142 337.763C303.189 346.619 302.369 356.186 301.873 365.086C300.608 387.791 299.78 410.721 298.45 433.465C298.357 435.061 298.412 438.959 298.012 440.222C297.35 442.307 295.288 442.436 292.904 442.543V442.542Z" fill="#015A83"/>
<path fill-rule="evenodd" clip-rule="evenodd" d="M400.714 229.499C410.409 228.286 407.746 242.574 399.643 244.335C394.919 245.362 392.314 241.004 393.326 236.566C394.138 233.007 396.991 229.965 400.713 229.501L400.714 229.499ZM330.109 277.761C331.597 278.368 375.38 277.968 381.323 278.002C385.294 278.024 429.895 278.221 432.939 277.868C432.089 277.583 432.578 277.962 432.097 277.364C433.619 276.979 434.979 276.36 436.015 275.646C436.906 275.032 436.15 275.596 436.714 274.919C437.21 274.326 436.955 274.692 437.432 274.221C438.924 272.748 440.735 266.77 441.451 264.66C443.247 259.372 445.204 253.896 447.212 248.747C451.266 238.349 454.622 227.357 458.809 216.978C460.889 211.82 462.667 206.287 464.614 201.105C468.586 190.533 463.37 191.42 455.695 191.448L368.689 191.453C361.826 191.455 355.681 190.043 352.559 197.017C351.138 200.191 337.182 243.204 336.317 245.814C334.502 251.293 332.87 256.776 330.956 262.113C329.981 264.835 329.183 267.594 328.205 270.318C327.193 273.133 326.745 275.414 329.367 277.171L329.967 277.622C329.992 277.575 330.069 277.708 330.109 277.759V277.761Z" fill="#A0B0BD"/>
<path fill-rule="evenodd" clip-rule="evenodd" d="M432.94 277.868C429.894 278.222 385.294 278.025 381.323 278.003C375.38 277.969 331.598 278.368 330.109 277.761C323.869 278.073 316.646 277.734 310.288 277.731C305.141 277.728 253.902 278.027 251.35 277.591C243.331 277.333 234.721 277.929 226.619 277.929L153.807 277.971C148.681 277.469 134.42 277.999 127.454 277.921C124.712 277.891 121.908 277.963 120.583 279.642C119.08 281.546 119.547 284.821 119.547 287.458C119.547 290.541 119.754 292.672 121.958 293.95C123.393 294.784 135.961 294.543 138.73 294.548C138.729 310.951 138.372 473.581 138.901 474.51L138.849 294.511L151.642 294.717L155.629 294.567L155.757 294.986C156.139 293.981 155.645 295.006 156.298 294.514L352.695 294.399C353.085 294.097 352.614 294.295 353.245 294.169L354.519 294.225C356.39 294.425 358.24 294.275 360.107 294.263C362.731 294.249 365.35 294.297 367.973 294.287C404.147 294.15 440.622 294.462 476.869 294.342C478.949 293.799 487.113 294.104 489.599 294.283C493.46 294.51 497.353 294.364 501.223 294.391C505.625 294.422 507.428 293.454 507.336 288.885C507.262 285.198 508.002 280.795 505.665 278.712C503.347 276.646 496.622 278.223 495.549 277.531C493.58 278.21 484.206 277.83 481.2 277.824C478.316 277.817 468.693 278.273 466.658 277.645C463.854 277.916 445.14 277.709 439.226 277.693L437.827 277.436C436.209 277.905 434.73 277.693 432.938 277.865L432.94 277.868Z" fill="#CDB8A3"/>
<path fill-rule="evenodd" clip-rule="evenodd" d="M283.543 73.885C284.219 73.5336 284.726 72.861 285.735 73.2908C286.811 73.7476 286.58 74.6502 286.564 75.957C286.539 77.981 286.827 80.0369 287.047 82.1041C287.29 84.3885 288.627 92.3552 288.376 94.0453C287.883 97.3441 275.395 99.7324 277.402 95.5677C277.95 94.4287 281.111 94.9431 284.125 93.8616L285.087 93.3552C285.295 92.4063 284.241 85.6952 284.101 84.0243C283.811 80.5817 283.111 77.4714 283.543 73.8866V73.885ZM293.505 73.5591C296.523 72.7045 297.144 79.6903 294.416 80.8612C292.245 81.7942 290.736 78.0592 291.959 75.0352C292.483 73.7396 292.418 73.8658 293.505 73.5591ZM265.486 70.4009C268.868 68.8657 269.35 76.2749 266.756 77.5193C263.859 78.9091 262.573 71.7236 265.486 70.4009ZM216.304 57.7728C216.384 58.5907 212.458 63.7298 215.902 72.7987C217.085 75.9138 218.751 79.0177 221.603 80.7542C222.978 81.5913 223.644 81.5546 224.949 82.1424C225.206 83.184 221.353 100.692 217.998 103.539C215.889 105.328 214.495 105.584 213.924 106.343L213.438 107.322C212.307 109.555 213.089 114.289 213.785 116.404C215 120.1 217.97 125.102 220.525 127.775C223.592 130.984 226.896 133.591 230.765 135.869C235.469 138.638 243.418 141.503 250.136 140.657C253.527 140.229 257.201 139.07 258.909 137.275C260.859 135.224 263.074 132.519 263.294 129.339C255.081 129.605 246.828 124.129 242.098 117.883C241.856 117.563 241.596 117.158 241.298 116.77C238.763 113.466 235.117 106.646 234.719 102.407L240.443 109.785C240.964 110.375 241.46 110.745 241.982 111.329C242.58 111.995 242.993 112.392 243.674 112.98L246.328 115.322C246.779 115.742 246.782 115.782 247.207 116.105C247.695 116.476 247.65 116.402 248.069 116.68L250.005 118.076C254.491 121.08 259.595 123.781 265.267 124.358C270.786 125.506 276.256 124.057 280.927 121.405C283.213 120.107 283.858 119.041 284.812 118.583L289.29 113.552C290.71 111.87 291.761 109.915 293.115 107.835C299.209 98.4783 302.439 82.144 303.985 70.8865C304.205 69.2827 304.423 68.2938 304.512 66.666C304.591 65.233 304.696 63.5685 305.243 62.3703L305.107 61.3064C305.819 55.8334 306.046 48.8923 305.572 43.5647C299.137 44.8315 297.694 45.3843 290.736 45.2692C285.789 45.1878 281.434 44.3347 276.639 43.127C270.625 41.6126 261.881 38.0103 256.528 34.6428C256.007 34.3153 255.65 34.0836 255.214 33.8105C254.69 33.483 254.517 33.2961 254.026 33.0117L253.81 33.59C253.775 33.729 253.724 34.0645 253.705 34.213C252.926 40.5598 251.708 43.6893 248.856 49.8253C246.469 54.9596 243.631 58.907 240.123 63.0189C239.524 63.7218 239.269 63.7953 238.583 64.3432C237.704 65.0477 234.806 67.904 233.247 66.2346C232.738 65.6899 232.463 53.9084 223.512 54.0538C219.547 54.1177 218.378 56.1529 217.161 57.212C216.431 57.8478 217.269 57.3702 216.296 57.776L216.304 57.7728Z" fill="#FFD0BF"/>
<path fill-rule="evenodd" clip-rule="evenodd" d="M216.305 57.7727C217.275 57.3685 216.439 57.8462 217.17 57.2088C218.386 56.1496 219.555 54.1144 223.52 54.0505C232.471 53.9068 232.747 65.6882 233.255 66.2314C234.812 67.9007 237.712 65.0444 238.592 64.34C239.276 63.792 239.532 63.7169 240.131 63.0156C243.639 58.9037 246.477 54.9579 248.864 49.822C251.716 43.686 252.934 40.5566 253.713 34.2097C253.73 34.0612 253.782 33.7257 253.818 33.5867L254.034 33.0084C254.525 33.2928 254.698 33.4797 255.222 33.8072C255.659 34.0803 256.015 34.3104 256.536 34.6395C261.889 38.007 270.631 41.6093 276.647 43.1237C281.444 44.3298 285.797 45.1829 290.744 45.266C297.702 45.381 299.144 44.8282 305.581 43.5614C306.054 48.8907 305.825 55.8317 305.115 61.3031L305.251 62.3671C308.057 59.113 310.797 48.4945 310.478 43.1844C311.195 42.4959 311.57 42.4496 312.438 41.908C313.156 41.4591 313.65 40.9927 314.276 40.4064C317.973 36.9558 321.468 31.3886 316.876 26.9667C313.907 24.1072 310.53 25.0546 303.796 20.0177C302.38 18.9585 301.286 17.9537 299.93 16.9888C298.647 16.0735 297.411 15.0495 296.228 14.0143C295.467 13.3498 295.024 13.1165 294.349 12.5494C291.172 9.87843 288.303 7.54929 284.472 5.72815C267.685 -2.25289 247.343 -2.435 231.974 8.62759L228.257 11.6037C226.831 12.8561 226.14 13.7859 224.877 15.1549C223.854 16.2652 222.853 17.6821 222.025 18.9777C221.157 20.3356 220.409 21.6391 219.592 23.2334C215.058 32.0819 214.197 41.8314 215.411 51.6511C215.652 53.6016 216.274 55.8781 216.309 57.7727H216.305Z" fill="#015A83"/>
<path fill-rule="evenodd" clip-rule="evenodd" d="M409.212 63.5648C411.664 61.4657 420.299 52.7753 423.588 49.5868C424.167 49.026 425.652 47.1282 426.845 47.2512C427.738 47.3439 428.231 48.1075 428.13 49.0228C428.025 49.9797 427.567 50.0229 426.923 50.7817L418.608 59.1397C408.555 68.9755 412.615 64.6431 411.517 68.4419C410.646 71.4564 406.929 72.8478 404.39 70.2886C402.952 68.8397 403.203 68.1352 403.24 65.8428C402.281 65.2885 402.527 65.4306 401.685 64.675L392.608 57.0486C392.086 56.5837 392.014 56.3409 391.347 55.8026C391.249 54.5246 391.52 53.4143 392.971 53.5469C393.847 53.6268 398.316 57.6605 399.477 58.5327L404.564 62.9753C405.913 64.3651 405.947 62.4897 409.212 63.5664V63.5648ZM405.704 30.8418C398.485 30.8243 388.872 35.3084 383.455 40.2207C382.853 40.767 382.963 40.8868 382.502 41.4076C381.717 42.2958 382.325 41.1872 380.285 43.7144C379.946 44.1329 379.599 44.502 379.311 44.8726C378.632 45.748 378.051 46.5324 377.458 47.5468C373.354 54.5693 371.559 60.2819 371.933 68.9179C372.134 73.5842 373.792 78.9438 375.834 82.8832C377.382 85.8689 380.894 91.0016 383.574 93.2237L385.965 95.1199C389.419 97.5114 390.319 98.2686 394.604 100.04C407.122 105.218 421.615 102.563 431.575 93.7748C432.904 92.6039 433.097 92.7157 434.453 90.9265C437.122 87.4025 439.275 85.4551 441.312 79.9598C445.296 69.2135 444.407 57.2707 438.027 47.6171L430.687 39.259C430.456 39.0625 430.431 39.0753 430.148 38.8405C429.798 38.5513 429.866 38.5641 429.508 38.2973L428.253 37.4091C427.764 37.0401 427.396 36.735 426.896 36.4027C420.4 32.1071 413.385 30.8594 405.706 30.8418H405.704Z" fill="#F2F1ED"/>
<path fill-rule="evenodd" clip-rule="evenodd" d="M489.599 294.284C487.113 294.105 478.948 293.8 476.869 294.343C477.163 301.747 476.885 309.755 476.887 317.228L476.88 471.57C476.828 477.006 478.063 475.849 484.299 475.867C490.679 475.884 489.586 476.694 489.6 462.994L489.599 294.282V294.284Z" fill="#015A83"/>
<path fill-rule="evenodd" clip-rule="evenodd" d="M138.901 474.509C139.104 475.619 139.39 476.049 140.564 476.24C141.309 476.363 142.823 476.247 143.664 476.247C151.56 476.252 151.541 477.231 151.526 471.569L151.53 343.667C151.531 340.109 151.253 297.01 151.642 294.715L138.848 294.509L138.901 474.507V474.509Z" fill="#015A83"/>
<path fill-rule="evenodd" clip-rule="evenodd" d="M250.104 270.866C250.37 267.443 254.565 268.109 257.606 268.096C266.912 268.061 278.324 268.171 287.284 267.844C286.456 265.885 282.008 262.927 280.401 261.819C277.551 259.859 272.001 258.156 274.084 256.519C276.016 255.038 285.076 261.818 286.066 262.596C287.052 263.371 287.78 264.035 288.612 264.81C289.481 265.617 289.957 266.404 290.766 267.166C291.741 268.083 293.195 267.772 294.793 267.753C296.341 267.735 297.882 267.73 299.428 267.719C298.443 262.901 290.021 256.596 285.759 254.088C284.875 253.567 280.396 251.241 280.243 250.536C280.315 247.11 285.385 250.747 286.652 251.529C292.686 255.251 299.751 260.294 302.181 267.677L311.071 267.647C309.21 259.607 301.436 253.755 295.004 250.086C293.74 249.364 292.63 248.758 291.337 248.036C289.965 247.271 288.323 247.07 289.019 245.27C292.253 244.139 302.479 251.915 304.333 253.391C306.353 254.998 308.511 257.278 310.114 259.522C313.245 263.899 312.366 263.748 313.928 267.703L317.838 267.649C321.346 263.359 316.241 255.12 312.569 251.829C311.985 251.306 312.052 251.078 311.529 250.49L307.628 247.242C306.636 246.472 305.55 246.174 305.133 245.271C304.717 245.557 304.735 245.538 304.087 245.084C298.149 240.924 287.837 239.603 286.665 238.83C285.88 239.317 284.937 238.856 283.586 238.904C277.373 239.129 268.852 241.226 263.066 242.916C254.21 245.503 250.542 248.725 240.139 247.009C237.607 246.592 235.723 247.159 234.561 248.465C231.426 251.987 230.225 260.372 230.227 265.064C230.23 273.465 233.031 271.9 236.919 271.585C239.146 271.404 241.308 271.328 243.548 271.162C245.5 271.016 248.529 271.232 250.104 270.861V270.866Z" fill="#FFD0BF"/>
<path fill-rule="evenodd" clip-rule="evenodd" d="M405.704 30.8423C413.383 30.8599 420.399 32.1075 426.894 36.4032C427.395 36.7339 427.763 37.039 428.252 37.4096L429.507 38.2978C429.867 38.5662 429.796 38.5518 430.146 38.8409C430.431 39.0758 430.455 39.063 430.685 39.2595L438.025 47.6175C444.406 57.2712 445.295 69.214 441.311 79.9603C439.274 85.454 437.12 87.4029 434.452 90.927C433.096 92.7162 432.903 92.6044 431.574 93.7753C421.614 102.563 407.121 105.218 394.602 100.041C390.318 98.2691 389.417 97.5118 385.964 95.1204L383.572 93.2242C380.893 91.0021 377.38 85.8694 375.833 82.8837C373.791 78.9443 372.133 73.5847 371.932 68.9184C371.557 60.2808 373.353 54.5698 377.457 47.5472C378.05 46.5328 378.629 45.7485 379.31 44.8731C379.598 44.5024 379.946 44.1334 380.284 43.7149C382.324 41.1877 381.716 42.2963 382.501 41.4081C382.962 40.8873 382.851 40.7675 383.454 40.2212C388.871 35.3089 398.484 30.8248 405.703 30.8423H405.704ZM405.517 23.3261C399.005 23.5194 392.169 25.8518 386.746 28.7193L380.413 33.0996C379.649 33.7194 379.569 33.6267 378.858 34.4111C378.319 35.007 375.764 37.178 374.835 38.5103C373.802 39.9911 372.776 40.8378 371.335 43.1302C361.357 59.0108 362.307 77.8292 373.217 92.8472L374.386 94.3073C378.168 99.4831 386.047 104.712 391.82 106.958C403.587 111.536 415.989 111.108 427.304 105.509C429.918 104.215 431.868 102.966 433.95 101.411L436.948 98.9112C453.124 84.8773 456.298 59.3623 442.3 40.7675C440.289 38.0965 436.928 34.5134 434.295 32.5357C430.377 29.5931 428.746 28.5771 423.866 26.494C418.09 24.0274 411.932 23.1376 405.516 23.3261H405.517Z" fill="#3598C5"/>
<path fill-rule="evenodd" clip-rule="evenodd" d="M340.579 224.049L326.265 267.698L317.837 267.652L313.926 267.706C312.364 263.751 313.243 263.903 310.113 259.526C308.509 257.281 306.351 255.002 304.332 253.395C302.477 251.918 292.251 244.142 289.017 245.273C288.321 247.075 289.963 247.275 291.335 248.04C292.629 248.762 293.738 249.367 295.003 250.089C301.435 253.759 309.206 259.61 311.069 267.65L302.18 267.681C299.75 260.297 292.686 255.254 286.651 251.532C285.383 250.749 280.313 247.113 280.241 250.54C280.396 251.244 284.873 253.572 285.757 254.091C290.019 256.597 298.442 262.904 299.427 267.722C297.881 267.734 296.338 267.738 294.792 267.756C293.193 267.773 291.74 268.087 290.764 267.17C289.955 266.408 289.479 265.622 288.611 264.813C287.778 264.039 287.05 263.374 286.064 262.599C285.074 261.823 276.016 255.042 274.083 256.522C272.001 258.16 277.55 259.863 280.4 261.823C282.006 262.928 286.454 265.888 287.282 267.847C278.323 268.174 266.912 268.063 257.604 268.099C254.563 268.111 250.368 267.446 250.103 270.869C249.569 273.154 249.792 276.363 251.348 277.592C253.9 278.028 305.141 277.729 310.286 277.732C316.644 277.735 323.867 278.076 330.107 277.763C330.067 277.71 329.99 277.579 329.965 277.625L329.365 277.175C326.743 275.417 327.191 273.136 328.203 270.321C329.181 267.598 329.979 264.839 330.955 262.117C332.868 256.78 334.501 251.297 336.315 245.818C337.18 243.207 351.134 200.195 352.557 197.021C355.681 190.046 361.824 191.458 368.687 191.457L455.693 191.452C463.369 191.422 468.584 190.537 464.613 201.109C462.665 206.291 460.889 211.825 458.807 216.981C454.62 227.36 451.264 238.353 447.21 248.751C445.202 253.899 443.246 259.376 441.449 264.663C440.733 266.773 438.92 272.75 437.43 274.224C436.954 274.695 437.208 274.33 436.712 274.922C436.146 275.6 436.904 275.036 436.014 275.649C434.978 276.362 433.617 276.983 432.095 277.368C432.576 277.965 432.087 277.587 432.938 277.871C434.73 277.699 436.207 277.911 437.827 277.441C438.359 277.149 439.712 275.699 440.079 275.183C441.571 273.087 447.581 255.559 448.626 252.741C454.948 235.706 461.006 217.729 467.543 200.896C468.424 198.628 469.324 196.228 468.642 193.605C468.04 191.3 466.474 189.693 464.294 189.054C461.984 188.375 450.171 188.8 446.873 188.791C423.276 188.723 399.673 188.818 376.075 188.787C373.055 188.783 370.037 188.789 367.017 188.791C359.147 188.795 352.735 187.275 349.256 197.574L340.576 224.053L340.579 224.049Z" fill="#015A83"/>
<path fill-rule="evenodd" clip-rule="evenodd" d="M180.85 338.327C180.439 338.611 180.988 338.405 180.314 338.506L175.843 338.3C171.016 338.206 164.183 337.61 161.973 340.792C160.015 343.615 160.33 346.509 162.267 349.102C164.136 351.602 165.977 352.032 170.113 351.981C171.587 351.992 173.296 352.091 174.888 352.083C176.201 352.077 178.628 351.875 179.648 351.954L249.289 351.955C248.632 351.402 241.781 351.704 240.918 351.704L197.057 351.653C191.328 351.692 185.458 351.906 179.782 351.636L249.139 351.557C249.267 350.302 248.611 338.993 248.384 338.378C245.297 337.645 190.144 339.041 180.848 338.329L180.85 338.327Z" fill="#7B8897"/>
<path fill-rule="evenodd" clip-rule="evenodd" d="M179.651 351.953C178.631 351.874 176.202 352.076 174.891 352.082C173.299 352.09 171.59 351.991 170.116 351.98C168.012 372.91 165.46 393.863 163.321 414.793C162.245 425.317 161.191 435.774 159.989 446.236C159.695 448.8 157.362 468.186 157.65 469.908C158.539 475.221 166.141 475.343 166.798 469.173C167.076 466.556 167.401 464.013 167.679 461.369C168.229 456.157 168.664 450.885 169.348 445.68C170.709 435.322 171.379 424.745 172.855 414.414C173.577 409.36 173.924 403.912 174.524 398.765C175.13 393.561 175.86 388.294 176.297 383.156C176.952 375.444 178.087 367.606 178.875 359.785C179.13 357.261 179.665 354.438 179.654 351.953H179.651Z" fill="#015A83"/>
<path fill-rule="evenodd" clip-rule="evenodd" d="M466.657 277.646C468.693 278.272 478.316 277.819 481.2 277.825C484.206 277.831 493.579 278.212 495.549 277.533C497.129 275.335 496.953 271.553 497.383 268.609C498.237 262.77 498.841 255.331 499.332 249.353C499.696 244.922 497.874 245.714 492.318 245.776L484.842 245.69L480.503 245.746L473.281 245.735C469.337 245.989 464.35 244.783 463.334 246.762C462.41 248.561 463.826 260.508 464.021 262.438C464.296 265.155 464.637 267.983 464.851 270.734C465.075 273.604 465.126 275.926 466.656 277.646H466.657Z" fill="#3598C5"/>
<path fill-rule="evenodd" clip-rule="evenodd" d="M286.664 238.834C287.837 239.605 298.148 240.928 304.086 245.088C304.733 245.542 304.716 245.559 305.131 245.275C303.785 242.324 302.762 240.524 301.502 237.128L292.904 211.162C292.48 211.585 292.445 212.109 292.309 212.756C292.176 213.384 292.049 213.969 291.933 214.55L286.665 238.834H286.664Z" fill="white"/>
<path fill-rule="evenodd" clip-rule="evenodd" d="M409.212 63.565C405.947 62.4883 405.913 64.3653 404.564 62.9739L399.477 58.5313C398.316 57.6591 393.846 53.6254 392.971 53.5456C391.52 53.413 391.249 54.5232 391.347 55.8012C392.012 56.3396 392.084 56.5808 392.608 57.0472L401.685 64.6736C402.527 65.4293 402.281 65.2887 403.24 65.8414C403.204 68.1338 402.952 68.8399 404.39 70.2872C406.929 72.8464 410.646 71.455 411.517 68.4405C412.616 64.6417 408.555 68.9741 418.608 59.1384L426.923 50.7803C427.567 50.0215 428.025 49.98 428.13 49.0215C428.231 48.1045 427.74 47.3409 426.845 47.2499C425.65 47.1269 424.165 49.0231 423.588 49.5854C420.299 52.774 411.664 61.4659 409.212 63.5634V63.565Z" fill="#015A83"/>
<path fill-rule="evenodd" clip-rule="evenodd" d="M263.296 129.337C264.068 127.765 264.871 125.844 265.271 124.356C259.598 123.778 254.495 121.077 250.009 118.075L248.072 116.679C247.654 116.401 247.698 116.474 247.211 116.104C246.785 115.781 246.784 115.743 246.331 115.321L243.677 112.979C242.996 112.391 242.584 111.993 241.986 111.327C241.463 110.744 240.967 110.374 240.446 109.784L234.723 102.405C235.121 106.643 238.764 113.463 241.302 116.768C241.599 117.156 241.86 117.562 242.101 117.882C246.832 124.129 255.085 129.604 263.298 129.337H263.296Z" fill="#015A83"/>
<path fill-rule="evenodd" clip-rule="evenodd" d="M400.714 229.499C396.992 229.964 394.139 233.007 393.328 236.565C392.316 241.003 394.919 245.361 399.645 244.334C407.746 242.573 410.409 228.285 400.716 229.498L400.714 229.499Z" fill="#B5C4CE"/>
<path fill-rule="evenodd" clip-rule="evenodd" d="M283.543 73.8845C283.111 77.4709 283.81 80.5812 284.101 84.0222C284.242 85.6915 285.295 92.4026 285.087 93.3531L284.125 93.8595C281.111 94.941 277.952 94.4266 277.402 95.5656C275.395 99.7302 287.884 97.342 288.376 94.0432C288.627 92.3546 287.29 84.3864 287.047 82.102C286.827 80.0348 286.541 77.9789 286.565 75.9548C286.581 74.6497 286.811 73.7471 285.735 73.2886C284.726 72.8605 284.221 73.5315 283.543 73.8829V73.8845Z" fill="#015A83"/>
<path fill-rule="evenodd" clip-rule="evenodd" d="M293.505 73.5586C292.418 73.8669 292.483 73.7407 291.959 75.0347C290.736 78.0587 292.245 81.792 294.416 80.8607C297.145 79.6897 296.523 72.7039 293.505 73.5586Z" fill="#015A83"/>
<path fill-rule="evenodd" clip-rule="evenodd" d="M265.486 70.4008C262.572 71.7235 263.859 78.909 266.756 77.5192C269.351 76.2747 268.868 68.8656 265.486 70.4008Z" fill="#015A83"/>
<path fill-rule="evenodd" clip-rule="evenodd" d="M67.7859 431.062L67.7603 431.538C66.259 431.109 62.6298 431.065 61.1461 431.538L61.071 430.824C61.047 431.329 61.063 431.043 60.8487 431.324C54.249 431.081 46.6851 431.364 39.8711 431.286C37.0988 431.254 35.7111 431.03 35.7031 434.149C35.6679 446.924 37.7367 470.338 45.1695 480.52C47.9961 484.391 46.311 482.009 48.3351 484.303C51.8828 488.326 60.9271 487.025 66.331 487.032C76.6303 487.043 80.5953 488.561 86.3429 479.129C89.8282 473.408 91.9786 465.026 92.9346 457.796C93.3439 454.7 95.5791 433.952 94.6821 432.305C93.8668 430.808 90.8466 431.292 88.7394 431.292C82.1461 431.291 74.2945 431.121 67.9489 431.347L67.7874 431.062H67.7859Z" fill="#6992B2"/>
<path fill-rule="evenodd" clip-rule="evenodd" d="M42.226 362.443C42.4882 361.917 42.1125 361.748 43.2301 362.382L45.5259 364.401C46.5507 365.238 47.8553 366.171 48.9745 366.89L50.8914 368.058C52.2312 368.885 55.3872 370.401 56.6502 370.698C56.2314 366.353 43.844 337.678 40.3682 331.416L33.2105 318.122C32.3552 316.705 31.6741 315.494 33.1146 314.119C34.659 314.326 34.9212 315.109 35.6887 316.424L41.3675 326.474C45.0111 332.665 52.0905 348.592 54.6486 354.915C55.6942 357.501 56.7398 359.797 57.6383 362.395C58.4345 364.695 59.4097 367.633 60.4761 369.967C60.5593 369.256 61.8958 366.302 62.3115 364.973C62.9127 363.05 63.1685 361.195 63.4962 359.043C64.6426 351.524 63.0214 341.17 60.11 334.298C59.381 332.576 56.4872 325.416 55.3664 324.595L55.5951 323.635C55.4144 322.104 52.5861 318.261 51.7276 316.82C49.7819 313.551 45.131 307.898 42.5122 305.048C40.7951 303.181 39.5737 302.481 38.3906 301.288C37.8902 300.783 38.2227 301.072 37.6392 300.617C37.2027 300.276 37.3849 300.415 36.982 300.078L33.8085 297.752C29.9602 295.329 18.4346 288.423 15.9453 295.503C14.9813 298.244 15.2786 302.272 15.4145 305.28C15.9949 318.109 21.0854 334.309 27.9441 345.298L33.3144 353.045L39.4794 359.998C40.3619 360.879 41.2316 361.776 42.226 362.441V362.443Z" fill="#73A49E"/>
<path fill-rule="evenodd" clip-rule="evenodd" d="M83.3706 339.181C83.5369 340.576 83.6328 339.646 82.9853 340.501L74.8762 354.223C74.0001 356.433 72.9705 359.783 72.5564 362.131C71.7954 366.441 71.5284 378.053 73.2439 380.571C73.0009 380.144 72.9833 381.21 73.2775 380.302C73.2951 380.248 73.4741 379.818 73.5157 379.71C73.6644 379.321 73.877 378.708 73.9714 378.484L77.1609 371.181C80.2242 364.589 84.2291 356.965 88.2596 350.83C88.501 350.464 88.6753 350.223 88.9232 349.827C89.0383 349.642 89.163 349.431 89.2877 349.233C89.5547 348.811 89.4028 349.056 89.6618 348.658C90.8864 346.774 91.8569 344.423 93.6747 345.563C95.622 346.785 92.004 351.03 91.1518 352.471C89.6522 355.005 85.5417 361.837 84.7487 363.7C82.6431 368.649 77.1753 377.745 76.1856 382.956C78.7037 382.646 80.7294 380.78 82.0292 381.229C84.4897 381.144 89.294 376.831 91.4956 374.995C93.5436 373.286 96.196 370.128 97.9483 367.839C100.142 364.973 102.896 360.519 104.406 356.639C107.268 349.279 110.569 339.75 110.9 331.745C111.165 325.301 107.373 324.902 101.915 326.518C97.3823 327.86 94.2535 329.446 91.2254 331.574L83.6312 338.555C83.3882 338.955 83.4617 338.763 83.3722 339.185L83.3706 339.181Z" fill="#6B9997"/>
<path fill-rule="evenodd" clip-rule="evenodd" d="M52.8468 408.456C54.2202 408.443 54.3225 409.363 55.2354 410.512C55.9437 411.403 56.1867 411.389 58.3003 411.105C58.0813 409.26 55.795 400.894 54.8901 398.604C54.2346 396.946 53.4384 396.015 53.7438 394.865C53.2961 391.984 48.6421 386.198 46.5876 383.856L37.5289 376.92C37.0637 376.647 36.664 376.495 36.0852 376.193C31.9012 374 27.156 372.358 22.1663 371.998C17.752 371.68 8.66776 371.639 11.1874 377.962C11.8733 379.682 13.2211 381.454 14.3466 382.941C14.5001 383.145 14.5784 383.257 14.7527 383.497C15.1172 383.999 15.4226 384.288 15.8303 384.786C16.2284 385.27 16.3419 385.558 16.7432 386.029L18.8536 388.457C19.0646 388.748 19.1526 388.904 19.3716 389.131L20.9272 390.911C21.4836 391.449 21.6434 391.489 22.1599 392.063C22.5579 392.504 22.7882 392.742 23.2151 393.157L29.2153 398.608C32.1299 400.858 35.5768 403.034 38.9806 404.614C42.0071 406.018 50.3192 408.493 52.8468 408.451V408.456Z" fill="#81ABA4"/>
<path fill-rule="evenodd" clip-rule="evenodd" d="M42.2258 362.442C42.9469 363.327 44.1524 364.118 45.0653 364.91C45.8567 365.599 47.0941 366.415 48.0998 367.12C50.0503 368.487 52.4756 369.706 54.9793 370.738C57.3119 371.7 56.8898 370.757 57.5645 373.334C57.9307 374.73 58.2936 376.093 58.6293 377.515C61.91 391.435 62.6103 400.624 63.3937 414.616C63.4928 416.378 63.4784 418.105 63.5024 419.867L63.3361 424.492C63.3266 424.46 63.2898 424.613 63.2546 424.668C62.4424 422.121 61.8844 419.498 60.9939 416.902C60.1625 414.477 59.2449 411.964 58.4663 409.642C56.997 405.256 56.0969 398.416 53.7451 394.866C53.4413 396.017 54.2359 396.946 54.8914 398.606C55.7963 400.894 58.0826 409.261 58.3016 411.106C56.188 411.389 55.945 411.404 55.2367 410.514C54.3222 409.365 54.2215 408.443 52.8481 408.458C52.8945 408.503 52.9633 408.554 52.9952 408.582C53.0272 408.61 53.1007 408.672 53.1407 408.705C54.6148 409.979 54.8706 411.193 55.8826 413.14C56.7651 414.84 57.4334 416.696 58.0586 418.576C59.3808 422.556 60.3496 426.628 61.0723 430.826L61.1474 431.54C62.6311 431.067 66.2587 431.112 67.7616 431.54L67.7871 431.064C68.2204 426.799 68.262 422.308 68.8807 418.009C69.4675 413.934 69.8863 409.979 70.4779 405.854C71.0359 401.953 74.0591 386.561 75.8242 383.861C77.5317 382.839 80.6845 382.813 82.0307 381.229C80.7309 380.78 78.7052 382.646 76.1871 382.956C77.1784 377.745 82.6446 368.648 84.7502 363.699C85.5432 361.837 89.6537 355.004 91.1533 352.471C92.0071 351.03 95.6235 346.785 93.6762 345.563C91.8584 344.423 90.8879 346.774 89.6633 348.658C89.4043 349.055 89.5562 348.811 89.2892 349.233C89.1629 349.431 89.0398 349.643 88.9246 349.827C88.6768 350.223 88.5009 350.464 88.2611 350.83C84.2306 356.964 80.2257 364.589 77.1624 371.18L73.9728 378.484C73.8785 378.709 73.6659 379.321 73.5172 379.709C73.4756 379.818 73.2965 380.248 73.279 380.302C72.9848 381.21 73.0024 380.144 73.2454 380.571C71.5299 378.053 71.7969 366.441 72.5579 362.131C72.972 359.782 74 356.433 74.8777 354.223L82.9867 340.501C83.6343 339.646 83.5399 340.576 83.3721 339.181C82.2817 339.563 82.6542 339.676 81.8932 340.635C73.0807 351.723 68.8887 366.257 72.3165 380.502C72.9224 383.021 71.2149 386.785 70.5355 389.347C69.768 392.237 69.0374 395.256 68.3979 398.18C68.0893 399.587 66.7447 406.702 66.5161 407.172C66.2187 406.725 65.341 397.312 65.1603 395.807C64.3801 389.326 62.9572 380.293 61.5887 373.93C60.3608 368.22 60.9635 372.045 63.1571 364.263C66.0716 353.921 63.9613 341.798 59.8604 332.045C59.1074 330.254 56.5461 324.54 55.598 323.639L55.3694 324.599C56.4902 325.42 59.3823 332.58 60.113 334.302C63.0244 341.175 64.6456 351.53 63.4992 359.048C63.1715 361.199 62.9156 363.054 62.3145 364.977C61.8988 366.307 60.5638 369.26 60.4791 369.971C59.4143 367.637 58.4375 364.698 57.6413 362.399C56.7428 359.802 55.6988 357.506 54.6516 354.92C52.0935 348.597 45.0141 332.67 41.3705 326.478L35.6916 316.428C34.9242 315.113 34.6636 314.331 33.1176 314.123C31.6787 315.498 32.3582 316.711 33.2135 318.126L40.3712 331.421C43.847 337.683 56.2328 366.358 56.6532 370.703C55.3902 370.406 52.2342 368.89 50.8944 368.062L48.9775 366.894C47.8583 366.176 46.5537 365.243 45.5289 364.406L43.2331 362.386C42.1155 361.754 42.4912 361.921 42.229 362.447L42.2258 362.442Z" fill="#598889"/>
<path fill-rule="evenodd" clip-rule="evenodd" d="M265.39 101.779C265.838 102.691 266.86 103.822 267.299 104.165C268.639 105.215 272.783 106.327 274.42 106.44C274.911 106.474 276.472 106.824 276.868 105.913C277.456 104.56 271.662 103.894 268.997 102.577C268.113 102.141 266.621 100.413 265.752 100.125C264.954 99.8618 265.165 101.32 265.39 101.779Z" fill="#3D566E"/>
<path fill-rule="evenodd" clip-rule="evenodd" d="M236.761 247.054L237.081 246.938C238.283 246.417 238.318 246.684 239.669 246.65C238.12 244.126 239.057 244.385 233.429 243.433C230.729 242.976 228.139 242.38 225.417 241.925L176.375 233.06L182.153 205.849C183.873 196.876 186.27 187.815 187.606 178.693C189.472 165.947 189.421 156.159 182.93 144.852C181.768 142.828 180.581 141.54 179.451 139.976C178.447 138.587 172.997 133.464 169.777 133.174C168.536 133.063 165.877 134.69 170.455 136.817C172.552 137.791 173.697 139.02 175.083 140.282L177.059 142.355C177.492 142.927 177.364 142.786 177.916 143.398C178.883 144.469 181.171 148.622 181.755 150.025C185.934 160.062 185.881 167.372 184.313 178.029C183.344 184.609 175.294 224.293 172.981 232.246C171.371 232.442 166.828 231.562 165.036 231.316C162.916 231.024 158.774 230.35 156.851 230.677C156.44 231.81 156.385 231.717 156.681 233.03C158.745 234.083 163.856 234.257 166.657 234.683C170.044 235.198 173.377 235.703 176.77 236.244C189.869 238.339 203.955 240.735 216.926 243.262C220.207 243.901 235.253 246.24 236.764 247.061L236.761 247.054Z" fill="#3A6696"/>
<path fill-rule="evenodd" clip-rule="evenodd" d="M232.579 271.943C232.782 272.916 233.047 273.984 232.299 274.604C230.839 275.812 174.687 272.904 164.135 272.569C160.969 272.468 157.305 272.666 154.368 271.738L154.302 272.452L153.855 277.914C156.625 278.114 170.285 277.865 174.385 277.874L225.397 277.829C228.489 277.833 233.009 277.467 235.845 277.681L235.359 277.283C235.596 276.459 235.979 275.681 236.194 274.687C236.472 273.404 236.174 272.638 236.884 272.002L236.398 271.796L232.576 271.943H232.579Z" fill="#3A6696"/>
<path fill-rule="evenodd" clip-rule="evenodd" d="M292.961 211.17L293 211.504C293.772 213.787 294.231 215.066 295.089 210.823C296.699 202.865 304.281 166.83 303.847 164.506C301.219 163.424 301.214 165.538 300.703 167.875C300.253 169.923 299.874 171.968 299.454 174.006L294.605 198.697C294.154 201.127 292.117 209.435 292.961 211.172V211.17Z" fill="#3D566E"/>
</svg>
