<svg width="212" height="40" viewBox="0 0 212 40" fill="none" xmlns="http://www.w3.org/2000/svg">
<g clip-path="url(#clip0_53_911)">
<path fill-rule="evenodd" clip-rule="evenodd" d="M6.47016 25.6037C5.62873 24.6882 5.6178 23.3271 3.42696 24.1755C2.57508 24.5055 0.55285 25.2118 0.148167 25.8929C-0.614414 27.1767 1.78519 31.7617 2.38271 33.2186C5.47388 40.7547 4.74716 40.8702 9.38178 38.9744C11.1088 38.2679 11.2297 37.5938 10.5882 35.6952C15.1746 32.7484 17.825 36.9172 22.4366 36.4228C24.2244 36.2311 26.4804 35.1908 28.0898 34.5799C30.008 33.852 37.7153 31.1455 38.7144 30.1878C40.1427 28.8184 40.6003 26.3178 38.8227 25.0827C36.3053 23.3338 29.6145 26.5245 26.6841 27.03C23.8186 24.2203 22.0471 25.3679 19.3179 23.9971C16.8449 22.7549 15.562 21.2999 11.2458 23.3326C9.62854 24.0941 8.06965 24.8927 6.47039 25.6037H6.47016ZM1.08412 26.4258C1.01714 27.5427 5.79592 38.7155 6.14503 38.8645C7.00688 38.898 9.18918 37.9239 9.77436 37.4036C9.81829 36.5953 5.50452 26.1852 4.86638 25.1615C3.92925 25.004 1.87045 26.0393 1.08412 26.4258ZM6.87959 26.8262L10.0641 34.5215C12.4808 34.0572 12.0122 32.7121 15.5361 33.7424C17.0655 34.1896 19.5093 35.0482 20.9381 35.2752C23.3168 35.6529 29.3996 32.8319 31.6548 31.9851C34.0689 31.0786 37.8212 30.1187 38.575 28.5133C39.0035 27.6011 38.9348 26.4958 38.11 25.9892C36.3818 24.9276 28.9056 27.5885 26.9135 28.203C26.6421 33.0734 21.9101 31.0869 18.6615 30.2129C17.6721 29.9467 16.0586 29.7638 15.585 29.1107C15.8106 27.9207 16.5651 28.4616 19.141 29.1814C20.3206 29.5109 22.0657 30.0644 23.256 30.2736C24.9937 30.5792 26.2163 29.3719 25.6337 27.6981C25.2212 26.5131 23.5523 26.3807 22.1322 25.9961C20.6455 25.5935 19.3706 25.4085 18.2463 24.6787C17.0406 23.896 15.8999 23.3373 14.1731 23.5421C13.0251 23.6782 7.41774 26.2616 6.87983 26.8265L6.87959 26.8262Z" fill="white"/>
<path fill-rule="evenodd" clip-rule="evenodd" d="M15.6191 11.4411V12.7873C15.6191 15.9915 18.2826 13.5016 18.8768 16.1597C19.4116 18.5525 16.372 17.9893 19.1378 20.7089C22.1216 23.6429 21.2306 20.5682 23.7662 21.055C26.3216 21.5459 24.0059 24.3347 27.2616 24.334L28.4168 24.3337C31.4678 24.3335 29.3955 21.5043 31.9131 21.0531C33.4167 20.7836 33.4278 21.6602 34.3056 21.9032C35.36 22.195 35.9136 21.2296 36.3869 20.748C39.2744 17.8109 36.3281 18.8052 36.714 16.2828C37.1011 13.7531 40.0001 15.7889 40.0001 12.7868V11.4407C40.0001 8.57829 37.1932 10.5434 36.7261 8.11685C36.2646 5.71925 39.2364 6.27227 36.4865 3.57337C33.5713 0.711958 34.3023 3.67064 31.9611 3.26756C29.2682 2.80398 31.5391 -0.000488281 28.4165 -0.000488281H27.069C24.2139 -0.000488281 26.2312 2.78856 23.7014 3.26448C22.3078 3.52663 22.177 2.68584 21.413 2.44005C20.1849 2.0448 19.8082 3.03316 19.1936 3.57456C16.4114 6.02459 19.1843 5.76385 18.9155 7.93322C18.5873 10.5811 15.6191 8.5567 15.6191 11.4409V11.4411ZM20.9088 3.51619L19.0953 5.23266C19.7215 6.43146 20.5896 7.23287 19.7899 8.97591C19.1368 10.3996 18.4325 10.3384 16.7641 10.9396C16.5978 14.5609 16.936 12.9735 18.5799 13.9597C19.0385 14.2347 19.5453 14.8292 19.7641 15.2786C20.5582 16.9106 19.8398 17.8909 19.163 18.9416L20.8966 20.8125C21.9003 20.3558 22.7536 19.3355 24.5438 20.1241C25.7146 20.6398 26.3174 21.5335 26.4843 23.1575C29.7218 23.1964 28.9922 23.2908 29.2497 22.4467C29.3872 21.9954 29.3261 21.9186 29.5748 21.4455C31.2125 18.3295 34.7779 20.8263 34.7794 20.8268L36.4774 19.148C36.0274 18.0109 34.9556 17.2653 35.8136 15.3685C36.306 14.2802 36.9291 13.8999 37.9209 13.6262C39.0418 13.3168 38.8701 14.0228 38.8573 10.8205C37.3291 10.6862 36.4114 10.1899 35.8421 9.02953C34.953 7.21722 35.9552 6.35175 36.472 5.28723L34.7848 3.51999C34.2662 3.68772 32.2522 5.47536 30.2402 3.65593C28.0643 1.68846 30.9517 0.818481 26.5577 1.12975C26.1031 2.84289 25.9535 3.54941 24.5861 4.15035C22.8474 4.91428 22.0608 4.13493 20.9088 3.51643V3.51619Z" fill="white"/>
<path fill-rule="evenodd" clip-rule="evenodd" d="M26.5033 6.18758C18.4681 7.97759 21.2363 19.8515 29.1566 18.1488C36.899 16.484 34.5326 4.39899 26.5033 6.18758ZM26.5154 7.3477C20.0702 9.2217 22.7702 18.7034 29.149 16.9858C31.4415 16.3685 33.4371 13.8323 32.6524 10.8715C32.0542 8.61412 29.6617 6.43289 26.5154 7.3477Z" fill="white"/>
<path fill-rule="evenodd" clip-rule="evenodd" d="M31.0964 10.6435C31.0809 10.76 31.0208 10.8706 30.9199 10.9477L26.7888 14.1047C26.6883 14.1823 26.5655 14.2107 26.4487 14.1953C26.3318 14.1797 26.2214 14.1199 26.1442 14.019L24.564 11.9555C24.4868 11.8551 24.4578 11.7325 24.4732 11.6158C24.5079 11.3557 24.7468 11.1887 24.9895 11.2212C25.1062 11.2366 25.2168 11.2967 25.294 11.3975L26.5947 13.0969L30.3613 10.2184C30.4616 10.1408 30.5843 10.1119 30.7009 10.1275C30.9444 10.1598 31.1308 10.383 31.0959 10.6433L31.0964 10.6435Z" fill="white"/>
</g>
<path d="M56.7 7.6H66.3C67.9933 7.6 69.52 7.9 70.88 8.5C72.24 9.08667 73.32 9.98667 74.12 11.2C74.9333 12.4 75.34 13.9067 75.34 15.72C75.34 17.52 74.9333 19.0533 74.12 20.32C73.32 21.5733 72.24 22.5333 70.88 23.2C69.52 23.8533 67.9933 24.18 66.3 24.18H62.68V34H56.7V7.6ZM62.68 19.46H64.64C65.4533 19.46 66.18 19.34 66.82 19.1C67.4733 18.86 67.9933 18.48 68.38 17.96C68.7667 17.4267 68.96 16.7267 68.96 15.86C68.96 14.98 68.7667 14.2867 68.38 13.78C67.9933 13.26 67.4733 12.8867 66.82 12.66C66.18 12.4333 65.4533 12.32 64.64 12.32H62.68V19.46ZM75.8494 7.6H86.6094C88.1427 7.6 89.5094 7.92 90.7094 8.56C91.9094 9.2 92.856 10.1267 93.5494 11.34C94.256 12.54 94.6094 13.9733 94.6094 15.64C94.6094 17.3067 94.3094 18.6733 93.7094 19.74C93.1227 20.7933 92.416 21.5867 91.5894 22.12C90.7627 22.64 89.996 22.9533 89.2894 23.06L95.7094 34H88.9894L83.2694 23.52H81.8294V34H75.8494V7.6ZM81.8294 19.38H84.4694C85.536 19.38 86.4694 19.12 87.2694 18.6C88.0694 18.08 88.4694 17.16 88.4694 15.84C88.4694 14.52 88.076 13.6067 87.2894 13.1C86.5027 12.58 85.576 12.32 84.5094 12.32H81.8294V19.38ZM100.815 20.78C100.815 22.2867 101.122 23.6533 101.735 24.88C102.362 26.0933 103.222 27.06 104.315 27.78C105.422 28.5 106.702 28.86 108.155 28.86C109.608 28.86 110.882 28.5 111.975 27.78C113.082 27.06 113.942 26.0933 114.555 24.88C115.182 23.6533 115.495 22.2867 115.495 20.78C115.495 19.2733 115.182 17.9133 114.555 16.7C113.942 15.4867 113.082 14.52 111.975 13.8C110.882 13.0667 109.608 12.7 108.155 12.7C106.702 12.7 105.422 13.0667 104.315 13.8C103.222 14.52 102.362 15.4867 101.735 16.7C101.122 17.9133 100.815 19.2733 100.815 20.78ZM94.595 20.78C94.595 18.86 94.935 17.0733 95.615 15.42C96.295 13.7533 97.2483 12.3 98.475 11.06C99.7017 9.82 101.142 8.85333 102.795 8.16C104.448 7.46666 106.235 7.12 108.155 7.12C110.102 7.12 111.895 7.46666 113.535 8.16C115.188 8.85333 116.622 9.82 117.835 11.06C119.062 12.3 120.008 13.7533 120.675 15.42C121.355 17.0733 121.695 18.86 121.695 20.78C121.695 22.7133 121.368 24.5133 120.715 26.18C120.062 27.8333 119.128 29.2867 117.915 30.54C116.702 31.78 115.268 32.7467 113.615 33.44C111.962 34.1333 110.142 34.48 108.155 34.48C106.128 34.48 104.282 34.1333 102.615 33.44C100.962 32.7467 99.535 31.78 98.335 30.54C97.135 29.2867 96.2083 27.8333 95.555 26.18C94.915 24.5133 94.595 22.7133 94.595 20.78ZM122.482 7.6H137.742V12.84H128.462V18.16H137.042V23.38H128.462V34H122.482V7.6ZM138.961 7.6H144.941V34H138.961V7.6ZM156.382 7.12C158.022 7.12 159.455 7.3 160.682 7.66C161.908 8.02 162.895 8.4 163.642 8.8C164.388 9.2 164.842 9.46667 165.002 9.6L162.122 14.42C161.908 14.26 161.542 14.0267 161.022 13.72C160.515 13.4133 159.908 13.14 159.202 12.9C158.508 12.66 157.782 12.54 157.022 12.54C155.995 12.54 155.162 12.7267 154.522 13.1C153.895 13.46 153.582 14 153.582 14.72C153.582 15.2133 153.748 15.66 154.082 16.06C154.428 16.4467 154.948 16.82 155.642 17.18C156.348 17.5267 157.242 17.9067 158.322 18.32C159.308 18.68 160.235 19.1067 161.102 19.6C161.968 20.0933 162.728 20.68 163.382 21.36C164.048 22.0267 164.575 22.8 164.962 23.68C165.348 24.56 165.542 25.56 165.542 26.68C165.542 28.0133 165.268 29.1733 164.722 30.16C164.175 31.1333 163.428 31.94 162.482 32.58C161.548 33.22 160.482 33.6933 159.282 34C158.095 34.32 156.862 34.48 155.582 34.48C153.768 34.48 152.142 34.2733 150.702 33.86C149.275 33.4467 148.122 33 147.242 32.52C146.362 32.04 145.835 31.72 145.662 31.56L148.642 26.54C148.802 26.66 149.108 26.8533 149.562 27.12C150.028 27.3867 150.595 27.6667 151.262 27.96C151.928 28.24 152.635 28.48 153.382 28.68C154.142 28.88 154.888 28.98 155.622 28.98C156.848 28.98 157.768 28.7467 158.382 28.28C158.995 27.8 159.302 27.1733 159.302 26.4C159.302 25.8267 159.108 25.3133 158.722 24.86C158.335 24.4067 157.755 23.98 156.982 23.58C156.208 23.1667 155.242 22.7333 154.082 22.28C152.922 21.8133 151.835 21.2467 150.822 20.58C149.822 19.9133 149.008 19.08 148.382 18.08C147.755 17.08 147.442 15.84 147.442 14.36C147.442 12.88 147.855 11.6 148.682 10.52C149.522 9.42667 150.622 8.58667 151.982 8C153.355 7.41333 154.822 7.12 156.382 7.12ZM175.964 7.12C177.604 7.12 179.038 7.3 180.264 7.66C181.491 8.02 182.478 8.4 183.224 8.8C183.971 9.2 184.424 9.46667 184.584 9.6L181.704 14.42C181.491 14.26 181.124 14.0267 180.604 13.72C180.098 13.4133 179.491 13.14 178.784 12.9C178.091 12.66 177.364 12.54 176.604 12.54C175.578 12.54 174.744 12.7267 174.104 13.1C173.478 13.46 173.164 14 173.164 14.72C173.164 15.2133 173.331 15.66 173.664 16.06C174.011 16.4467 174.531 16.82 175.224 17.18C175.931 17.5267 176.824 17.9067 177.904 18.32C178.891 18.68 179.818 19.1067 180.684 19.6C181.551 20.0933 182.311 20.68 182.964 21.36C183.631 22.0267 184.158 22.8 184.544 23.68C184.931 24.56 185.124 25.56 185.124 26.68C185.124 28.0133 184.851 29.1733 184.304 30.16C183.758 31.1333 183.011 31.94 182.064 32.58C181.131 33.22 180.064 33.6933 178.864 34C177.678 34.32 176.444 34.48 175.164 34.48C173.351 34.48 171.724 34.2733 170.284 33.86C168.858 33.4467 167.704 33 166.824 32.52C165.944 32.04 165.418 31.72 165.244 31.56L168.224 26.54C168.384 26.66 168.691 26.8533 169.144 27.12C169.611 27.3867 170.178 27.6667 170.844 27.96C171.511 28.24 172.218 28.48 172.964 28.68C173.724 28.88 174.471 28.98 175.204 28.98C176.431 28.98 177.351 28.7467 177.964 28.28C178.578 27.8 178.884 27.1733 178.884 26.4C178.884 25.8267 178.691 25.3133 178.304 24.86C177.918 24.4067 177.338 23.98 176.564 23.58C175.791 23.1667 174.824 22.7333 173.664 22.28C172.504 21.8133 171.418 21.2467 170.404 20.58C169.404 19.9133 168.591 19.08 167.964 18.08C167.338 17.08 167.024 15.84 167.024 14.36C167.024 12.88 167.438 11.6 168.264 10.52C169.104 9.42667 170.204 8.58667 171.564 8C172.938 7.41333 174.404 7.12 175.964 7.12ZM194.487 7.6H200.427L210.847 34H204.467L202.547 28.7H192.387L190.447 34H184.047L194.487 7.6ZM194.387 23.46H200.567L197.507 14.8H197.447L194.387 23.46Z" fill="white"/>
<defs>
<clipPath id="clip0_53_911">
<rect width="40" height="40" fill="white"/>
</clipPath>
</defs>
</svg>
