<svg width="106" height="130" viewBox="0 0 106 130" fill="none" xmlns="http://www.w3.org/2000/svg">
<g clip-path="url(#clip0_55_1369)">
<path fill-rule="evenodd" clip-rule="evenodd" d="M36.5708 14.355L36.5584 25.9416C36.1252 28.1498 32.8703 26.2393 31.0758 30.6432L24.2072 52.7993C21.9919 59.002 21.6454 62.2646 21.4473 69.2488C21.1503 79.3096 18.9598 76.8161 15.6802 83.0312C13.8238 82.5474 14.9871 82.4854 13.4401 82.2497L8.21746 87.2615L0.012207 95.7096L33.8852 129.998C36.1623 128.224 42.2018 121.178 44.1325 120.347L47.7834 116.216L45.0112 113.189C45.8527 111.663 47.0037 110.608 48.3032 109.566C51.2981 107.172 54.4169 110.187 64.7756 106.205C68.0057 104.964 70.7531 103.413 73.2902 101.478C74.5649 100.51 75.7283 99.394 76.8173 98.4015C77.8693 97.4463 79.2678 95.5111 79.998 94.9652C81.6935 93.6751 83.3518 94.469 85.6166 93.9604C87.8938 93.4394 88.3889 92.1616 90.0844 92.633C93.8466 93.6875 95.9011 96.2058 99.2921 91.8887C100.864 89.8914 104.205 86.7032 105.084 84.433C106.94 79.6198 103.636 77.0891 102.002 74.8685C103.166 72.5859 105.728 71.7175 105.95 67.7354C106.161 63.8897 103.896 62.0165 102.398 60.4162C107.844 55.5533 106.99 49.0901 100.728 45.7902C102.708 43.4952 107.374 39.9597 105.393 33.8935C103.97 29.5392 98.698 27.728 93.6981 29.8245L93.5001 18.8953C93.5496 -1.80928 89.4037 0.460909 67.5725 0.460909C55.8154 0.460909 43.4023 -2.05739 38.291 4.74077C36.1376 7.60642 36.546 10.4224 36.5708 14.3425V14.355Z" fill="#33667B"/>
<path fill-rule="evenodd" clip-rule="evenodd" d="M40.6177 26.4502C40.6177 32.0326 50.2338 30.3703 42.7958 57.2404C42.1399 59.6098 43.1052 60.3045 44.1324 62.1654C46.4591 66.4204 46.5086 69.8195 48.2536 73.6776L86.2973 73.8264C84.6266 67.7354 87.7824 68.1696 89.4284 64.6588C88.7354 62.0165 85.6166 61.0489 85.7775 57.0171C85.9632 52.4519 89.4284 54.1391 89.4284 49.363V16.7492H40.6177V26.4378V26.4502Z" fill="#FEFEFE"/>
<path fill-rule="evenodd" clip-rule="evenodd" d="M18.279 86.6164C23.5759 90.4745 38.5013 108.214 42.3254 110.013C52.2633 99.6917 47.5976 106.713 60.0231 103.5C68.4511 101.317 70.6911 97.9549 75.0103 94.407C70.7035 93.8983 53.798 94.2209 48.2411 94.2209C44.6026 94.2209 47.5976 97.1362 42.2883 94.3077C44.8378 82.4109 46.3476 73.0697 39.875 62.86C36.3602 57.3024 38.13 62.8104 40.6671 48.9164C41.7066 43.2099 42.4368 36.9328 39.2191 32.442C34.9494 26.4998 33.0064 38.2353 31.9544 41.7088C30.4198 46.7827 28.9347 51.4595 27.2392 56.372C25.2095 62.2646 25.8036 67.5741 25.3333 73.8512C24.863 79.9547 20.0487 82.2497 18.2666 86.6412L18.279 86.6164Z" fill="#FEFEFE"/>
<path fill-rule="evenodd" clip-rule="evenodd" d="M47.6226 90.1519C55.0729 90.1519 81.0995 91.0203 86.2479 89.4572C86.4335 87.1374 84.8742 85.6612 86.2355 82.8948C87.3246 80.6866 89.0325 81.1208 89.4285 77.9326H48.2537C48.7116 82.7955 48.2661 85.5743 47.6226 90.1643V90.1519Z" fill="#E9EAEB"/>
<path fill-rule="evenodd" clip-rule="evenodd" d="M5.7793 95.7468L33.9593 124.155L41.9666 116.166L13.737 87.7949C11.8064 89.0106 6.93026 93.8735 5.7793 95.7592V95.7468Z" fill="#3598C5"/>
<path fill-rule="evenodd" clip-rule="evenodd" d="M40.6177 12.6802H89.4284C89.4037 2.06121 82.3989 4.52988 65.023 4.52988C59.59 4.52988 54.157 4.50507 48.7363 4.51748C42.4864 4.52988 40.6177 6.51474 40.6177 12.6926V12.6802Z" fill="#E9EAEB"/>
<path fill-rule="evenodd" clip-rule="evenodd" d="M95.5669 62.0165C96.9653 60.4162 100.096 57.166 101.148 55.4416C103.215 52.0425 99.9727 48.3457 96.4579 49.7476L90.4927 56.0867C88.8096 58.9151 92.5224 61.7808 95.5669 62.0041V62.0165Z" fill="#FEFEFE"/>
<path fill-rule="evenodd" clip-rule="evenodd" d="M89.8369 71.2957C90.7404 73.8885 92.5968 75.6252 95.7402 75.8857C97.2625 73.8885 98.1907 72.8712 100.072 70.7623C102.807 67.6982 102.25 66.5941 99.9604 63.8277C98.7971 64.3115 98.9332 64.6464 97.7328 65.3287C95.3813 66.6561 93.0299 65.031 89.8369 71.2957Z" fill="#FEFEFE"/>
<path fill-rule="evenodd" clip-rule="evenodd" d="M95.0222 90.1271C96.891 88.7501 98.4256 86.5048 99.886 84.8052C102.349 81.952 102.015 81.0588 99.6013 78.4413C96.9529 78.7514 99.8117 78.342 97.4727 79.322C93.0297 81.2077 96.0618 78.0567 91.1362 83.1925C88.0917 86.3559 91.2847 89.5813 95.0222 90.1147V90.1271Z" fill="#FEFEFE"/>
<path fill-rule="evenodd" clip-rule="evenodd" d="M93.6116 34.6874L93.4878 46.5345C95.0719 45.2692 100.629 40.3443 101.272 38.806C102.139 36.7343 101.78 34.2036 99.8243 33.3228C97.3491 32.1939 95.2204 33.695 93.6116 34.6874Z" fill="#FEFEFE"/>
<path fill-rule="evenodd" clip-rule="evenodd" d="M58.9219 86.0705H71.1246V81.9892H58.9219V86.0705Z" fill="#33667B"/>
</g>
<defs>
<clipPath id="clip0_55_1369">
<rect width="106" height="130" fill="white"/>
</clipPath>
</defs>
</svg>
