<svg width="450" height="359" viewBox="0 0 450 359" fill="none" xmlns="http://www.w3.org/2000/svg">
<g clip-path="url(#clip0_53_1198)">
<path fill-rule="evenodd" clip-rule="evenodd" d="M217.015 144.786C219.154 144.317 219.912 147.359 218.026 147.96C215.713 148.698 215.19 145.189 217.015 144.786ZM282.746 176.906C282.3 175.877 281.815 175.743 281.279 174.24C278.795 167.27 278.811 155.661 280.577 148.736C281.665 144.466 284.162 137.889 286.738 134.302C289.449 130.526 288.234 131.782 291.283 128.464C293.642 125.897 294.339 127.956 293.919 128.818C293.358 129.963 292.929 129.71 292.348 130.469C292.176 130.693 292.147 130.817 291.98 131.05L290.256 133.464C284.602 141.511 281.467 152.002 281.795 162.114C281.886 164.927 282.134 167.207 282.548 169.818C282.668 170.573 283.361 175.442 283.168 176.203C282.947 177.072 283.117 176.566 282.748 176.908L282.746 176.906ZM205.63 106.106L205.537 101.237C204.122 102.093 204.169 101.621 202.669 102.827L200.399 104.904C200.019 105.276 199.948 105.558 199.398 106.174L196.754 110.207C196.546 110.822 196.685 110.229 196.47 110.802L195.188 114.757C194.668 116.316 194.096 117.853 193.627 119.437C193.055 121.365 191.355 128.169 191.923 129.721C192.964 131.088 201.672 123.938 206.121 125.679C207.138 126.077 208.11 127.217 208.726 128.004C209.28 128.712 209.477 128.524 209.994 129.176C211.129 130.613 211.877 131.152 213.361 132.973C214.475 134.338 215.538 134.561 216.11 134.903C216.405 136.27 214.457 140.182 213.865 141.662C211.708 147.059 211.502 151.085 211.131 156.915C211.029 158.503 209.945 163.456 210.316 164.548C212.128 165.584 216.121 165.138 217.964 165.746C218.047 166.675 218.064 166.611 217.948 167.523C215.161 168.334 210.453 167.489 208.094 166.449C207.67 164.468 207.679 164.475 207.969 162.292L209.291 150.134C210.037 143.29 211.239 142.055 213.401 136.414C212.72 135.476 211.813 135.207 211.149 134.446C210.475 133.676 210.075 133.075 209.345 132.286L205.867 128.794C202.87 126.31 197.755 131.108 193.953 132.079C191.09 132.811 189.187 132.8 189.406 129.224C189.549 126.891 189.924 124.732 190.625 122.505C191.255 120.504 191.827 118.484 192.841 116.6L195.584 111.148L186.991 114.646C183.964 115.948 181.593 116.86 178.622 118.157C168.745 122.468 159.914 125.404 154.024 134.981C153.307 136.148 152.623 137.334 151.915 138.721C149.51 143.43 147.044 150.779 145.833 156.325C145.76 156.112 145.608 156.666 145.741 155.712C144.81 156.831 141.654 172.698 140.879 175.655L136.886 190.138C136.434 192.746 137.839 192.789 139.157 193.813C139.992 194.099 141.113 194.687 141.996 195.109C146.036 197.043 159.677 201.466 163.235 201.797C163.119 200.091 162.017 196.764 161.653 194.789C161.193 192.292 160.713 189.942 160.331 187.569C158.699 177.434 157.912 166.245 159.06 156.045C159.092 155.757 160.858 141.423 163.034 143.308C163.624 144.373 162.353 148.823 162.118 150.258C159.731 164.87 161.531 180.566 163.436 195.058C163.597 196.278 164.687 201.59 164.019 202.048C164.242 202.653 164.946 212.183 165.028 213.689C165.229 217.365 165.567 221.579 166.08 225.195C166.849 235.483 166.623 248.023 165.94 258.469C165.542 264.587 168.225 265.729 168.434 267.38C168.439 267.335 168.446 267.222 168.466 267.248C168.491 267.278 168.526 267.136 168.56 267.106C168.607 267.062 168.689 266.994 168.738 266.951C168.797 266.898 168.899 266.849 168.975 266.789C169.518 267.694 171.559 268.122 172.62 268.36C174.238 268.724 175.511 269.012 177.242 269.354L181.378 270.053L196.584 272.078C197.35 272.175 197.833 272.029 198.702 272.162C201.295 271.974 205.671 272.575 208.44 272.741C211.324 272.914 215.304 272.645 217.95 273.406C221.589 273.001 225.663 273.426 229.29 273.24C231.156 273.145 233.078 272.947 234.935 272.847L240.375 272.881C240.538 272.453 241.102 272.178 241.461 271.851C241.979 271.377 242.355 271.153 242.817 270.762L251.164 264.99C253.498 263.675 255.26 263.203 257.951 262.364C259.859 261.769 264.322 261.414 265.322 260.175C264.183 259.068 258.592 259.143 256.721 259.183C253.786 259.243 251.613 260.549 249.303 261.588C247.804 262.262 243.703 263.974 241.952 263.655C238.707 263.061 238.669 259.21 240.775 257.75C244.329 255.283 248.825 252.914 253.639 251.231C256.368 250.277 259.347 250.108 262.356 250.237C265.097 250.356 268.275 251.144 270.98 251.341L271.61 250.898L272.586 241.463C272.997 238.34 273.26 235.41 273.74 232.24L279.611 196.582C280.055 194.091 282.719 180.446 283.399 179.401C284.69 179.616 284.529 180.076 285.366 180.726C287.254 182.196 286.153 181.475 286.903 182.192C287.64 182.899 287.185 182.032 288.502 183.611C288.925 184.119 289.539 184.554 290.048 185.093C290.579 185.654 290.972 186.072 291.603 186.542C292.176 186.968 292.786 187.332 293.367 187.808L296.427 190.768C298.5 192.817 300.604 194.738 302.697 196.741C303.76 197.757 307.675 202.2 308.953 202.598C308.577 203.057 309.464 203.29 308.434 202.897C309.163 203.654 310.221 203.061 311.155 202.76L317.949 198.749C320.925 196.761 323.739 195.005 326.69 192.799L340.439 180.923L343.855 176.975C344.466 175.723 345.11 175.042 344.087 173.654L331.161 156.221C328.921 153.004 323.049 144.801 320.333 141.414C319.884 140.855 319.647 140.44 319.252 140.041C318.678 139.46 318.704 139.353 318.207 138.825L313.683 134.129C313.275 134.471 313.759 134.384 313.217 134.198L312.274 133.259C309.27 130.198 307.293 127.767 303.219 124.976C299.693 122.559 294.028 120.251 289.7 118.543C287.175 117.545 262.756 108.861 259.98 108.628C260.743 116.367 256.283 127.714 251.974 133.703C250.138 136.254 250.058 136.948 247.541 136.394C241.577 135.083 237.159 130.303 233.404 130.12C230.948 129.999 228.419 132.521 226.503 133.992C226.496 133.998 226.212 134.198 226.174 134.226C224.29 135.622 223.128 136.849 220.327 137.425C220.245 135.522 222.243 134.351 223.573 133.31C224.414 132.652 224.021 132.72 224.611 132.274C224.816 132.119 224.734 132.214 224.966 132.055C225.705 131.547 227.061 130.152 228.725 129.034C233.291 125.966 237.173 128.468 240.99 130.677C242.5 131.551 246.801 133.869 248.727 134.023C249.739 131.234 253.79 127.771 257.706 115.518C258.052 114.435 258.371 112.922 258.611 111.902L259.178 108.444C259.434 107.721 258.733 108.415 259.495 107.913C259.205 107.621 258.499 104.365 258.186 103.595C257.943 103 257.478 102.259 257.221 101.725C255.966 99.116 251.644 95.8767 249.169 95.5071L248.937 97.6575C248.861 98.3603 248.879 99.0413 248.81 99.7497C248.705 100.82 248.285 102.441 247.949 103.415C247.141 105.755 246.069 107.694 244.829 109.347C243.875 110.62 241.658 113.228 240.603 114.16C237.602 116.811 235.888 117.934 233.226 120.154L228.149 124.116C227.752 124.442 227.276 124.706 226.843 125.07L222.038 129.118C220.075 130.801 220.2 130.431 218.505 132.37C218.047 132.895 217.808 132.789 217.296 133.423C216.854 133.971 216.907 134.213 216.32 134.455L212.552 128.488C207.94 121.217 205.384 115.398 205.623 106.103L205.63 106.106Z" fill="#3598C5"/>
<path fill-rule="evenodd" clip-rule="evenodd" d="M311.16 202.764C311.827 204.718 320.88 212.58 321.137 213.176L321.449 212.855C324.346 210.199 327.337 208.962 331.161 208.21C333.03 207.842 334.386 207.475 334.096 209.701C331.521 210.417 329.653 210.506 326.861 211.704C326.538 211.843 326.399 211.936 326.118 212.083L322.544 214.144C321.268 214.496 320.96 214.006 320.744 213.789L316.288 220.512C314.141 224.33 308.053 233.718 305.497 237.626L294.412 252.923C293.921 253.56 291.508 256.304 291.004 256.475C289.398 257.02 281.467 251.849 279.644 251.636C279.378 252.52 279.195 252.961 278.031 252.77C277.397 252.666 276.378 252.444 275.672 252.295C274.256 251.996 272.335 251.486 270.986 251.342C268.28 251.146 265.103 250.355 262.361 250.239C259.352 250.11 256.372 250.279 253.645 251.233C248.83 252.916 244.335 255.285 240.78 257.752C238.674 259.212 238.712 263.065 241.957 263.657C243.708 263.977 247.809 262.266 249.308 261.59C251.619 260.55 253.79 259.247 256.727 259.185C258.597 259.147 264.19 259.07 265.327 260.177C264.328 261.415 259.865 261.772 257.956 262.366C255.265 263.205 253.502 263.675 251.17 264.991L242.823 270.764C242.361 271.155 241.984 271.379 241.466 271.852C241.108 272.18 240.543 272.455 240.38 272.883C235.093 276.086 238.6 282.457 242.567 280.006C243.418 279.01 249.605 274.813 250.925 274.156C251.975 273.633 253.058 273.038 254.154 272.481C256.475 271.297 267.263 267.783 268.9 269.083C269.36 270.856 267.562 270.86 266.198 271.12C264.947 271.359 263.462 271.625 262.367 271.947C260.368 272.535 255.501 273.986 253.585 275.002C253.116 275.252 253.265 275.199 252.857 275.392L248.923 277.67C247.976 278.28 247.049 278.884 246.026 279.474C245.463 279.8 245.091 280.114 244.49 280.396C243.657 280.787 243.388 280.603 242.833 281.124C242.151 282.554 241.888 283.242 242.757 284.82C243.009 285.277 243.357 285.698 243.759 286.059C244.219 286.472 244.702 286.734 245.49 286.8C247.398 286.838 248.01 286.465 249.64 285.915C250.715 285.552 252.557 284.613 253.471 284.52L254.203 283.697C254.668 283.275 254.574 283.267 255.122 282.93C256.995 281.78 264.534 279.294 266.928 278.515C268.016 278.16 271.643 276.703 272.088 278.014C272.613 279.556 270.059 279.704 268.032 280.288C266.405 280.758 264.715 281.29 263.046 281.885L256.087 284.525C255.211 284.811 254.318 284.937 253.362 285.228C252.452 285.979 252.334 288.557 254.375 289.74C257.656 291.645 267.819 287.779 272.316 287.579C274.129 287.499 280.204 287.319 281.672 287.63C288.752 287.224 291.556 287.213 297.537 283.653C299.19 282.67 300.568 281.133 302.136 279.957C302.558 279.64 302.589 279.522 303.025 279.156L312.328 272.069C313.561 270.989 314.662 270.265 315.875 269.216L323.076 263.216C323.547 262.868 323.538 262.766 323.958 262.422L336.823 250.792C337.113 250.35 342.242 245.632 343.356 244.318C344.569 242.885 343.651 243.737 345.063 242.628L348.114 239.083C348.494 238.598 348.565 238.667 348.931 238.209C349.211 237.855 349.262 237.693 349.593 237.349L351.169 235.543C353.376 232.901 356.204 228.919 358.062 226.02C360.939 221.531 363.157 216.679 362.38 211.047C361.665 205.854 356.436 196.986 354.281 192.891C353.141 190.723 347.651 181.828 346.034 179.643C345.317 178.672 344.611 177.398 343.863 176.979L340.446 180.927L326.698 192.802C323.746 195.009 320.933 196.764 317.956 198.753L311.162 202.764H311.16Z" fill="#FFD0BF"/>
<path fill-rule="evenodd" clip-rule="evenodd" d="M245.49 286.802C247.523 291.527 245.119 295.58 257.234 299.884C262.117 301.62 268.425 302.235 273.7 301.774C275.751 301.594 277.339 301.155 276.736 303.712C269.57 305.693 256.033 303.395 249.873 299.389C247.693 297.972 248.544 298.358 247.838 297.65C247.558 297.37 247.793 297.619 247.52 297.403C246.944 296.944 246.743 296.57 246.158 295.733C242.252 290.137 244.427 287.419 243.217 285.877C243.08 285.702 243.027 285.669 242.832 285.509L242.616 285.345C241.441 284.515 240.023 285.361 237.4 285.605C236.777 285.664 235.73 285.791 235.015 285.8L227.983 286.343C226.27 286.561 219.387 286.545 219.387 286.545C218.54 286.707 219.179 287.685 218.728 286.796C218.708 286.758 218.647 286.845 218.602 286.856C218.384 287.242 218.236 287.433 218.06 287.625C217.613 288.116 217.91 287.473 217.486 288.411C217.22 288.861 217.005 288.888 216.472 289.278L216.878 299.669C217.086 305.245 218.022 314.919 216.938 320.103C216.192 323.665 214.935 324.819 211.142 324.89C211.361 326.638 213.262 329.788 213.943 331.569C215.243 334.978 217.81 331.303 219.288 335.659C219.851 337.321 222.578 350.493 222.178 351.813C222.788 352.219 222.886 354.444 223.023 355.267C223.23 356.514 223.601 357.722 223.715 359H279.003C278.768 354.475 278.44 350.194 278.098 345.773C277.763 341.46 277.582 337.028 277.24 332.731C276.894 328.397 276.707 323.954 276.307 319.706C276.095 317.459 275.914 315.345 275.773 313.087C275.65 311.123 275.025 307.714 276.208 307.299C277.544 307.097 277.698 307.993 277.725 309.143C277.805 312.534 278.371 315.689 278.493 319.138C278.648 323.597 279.248 327.893 279.409 332.434C279.565 336.767 280.052 341.281 280.314 345.589C280.501 348.641 281.335 356.957 281.299 359.002H287.857C287.883 352.72 287.426 346.301 287.182 340.1C286.943 334.036 286.577 327.909 286.094 321.973C285.185 310.799 284.285 298.548 281.672 287.634C280.204 287.322 274.129 287.501 272.316 287.583C267.821 287.783 257.656 291.649 254.375 289.744C252.334 288.559 252.452 285.982 253.363 285.232L253.471 284.524C252.557 284.617 250.715 285.556 249.64 285.918C248.01 286.468 247.4 286.842 245.49 286.803V286.802Z" fill="#33667B"/>
<path fill-rule="evenodd" clip-rule="evenodd" d="M208.884 87.3477C210.231 87.1783 210.812 87.8174 214.06 87.5461C215.587 87.4187 217.646 86.6448 218.79 87.2275C219.038 89.4325 215.594 89.6601 213.691 89.7257C211.138 89.8149 208.366 89.8987 208.884 87.3477ZM201.112 78.9554C202.575 78.2544 205.474 79.8749 207.49 80.2682C209.729 80.7034 213.061 80.7872 215.391 80.494C218.94 80.0497 221.989 79.2795 224.863 77.1564C227.293 75.361 228.953 78.8079 221.537 81.419C218.879 82.3549 217.26 82.4314 214.457 82.7355C211.703 83.0341 208.891 82.6699 206.535 82.2457C204.993 81.9689 203.155 81.4172 201.839 80.5231C201.252 80.1244 201.035 79.9004 201.114 78.9572L201.112 78.9554ZM254.355 58.1923C255.204 58.0102 256.088 58.0466 256.93 58.3507C257.538 58.571 258.297 59.039 258.57 59.6107C259.066 60.6504 258.405 61.3405 257.371 61.0146C256.765 60.8216 256.301 60.2371 255.611 60.2298C255.056 60.2243 253.989 60.8635 253.794 61.1074C253.285 61.7429 253.526 62.5933 253.478 63.4855C253.413 64.7564 252.722 66.6811 252.316 67.9047C251.938 69.0409 250.145 71.8104 249.426 69.8384C249.184 69.1683 250.502 66.7776 250.75 65.7961C251.219 63.9389 250.558 59.0098 254.355 58.1941V58.1923ZM224.888 52.1543C228.977 51.1074 229.551 58.8878 226.085 59.7782C224.499 60.1861 223.288 59.4122 222.772 57.9046C222.031 55.7469 223.112 52.6096 224.888 52.1543ZM198.753 51.8667C201.007 51.2257 201.934 52.6733 202.3 54.6034C202.505 55.6813 202.461 56.7993 202.052 57.7953C201.717 58.6129 201.245 59.2065 200.359 59.425C196.182 60.4556 195.212 52.8736 198.753 51.8667ZM208.371 52.4439C208.735 54.4395 206.887 60.401 206.331 63.2506C206.086 64.5015 205.851 65.736 205.585 67.0088C205.301 68.3763 204.812 69.5962 205.846 70.432C209.577 73.4491 213.861 69.5908 213.619 73.2707C210.979 74.2995 206.267 74.172 204.116 71.6046C202.644 69.8475 202.791 69.1865 203.644 66.0583C204.355 63.4472 204.596 60.5903 205.31 57.9191C205.666 56.5826 206.103 55.3754 206.311 54.0189C206.519 52.6678 205.751 50.7851 206.557 49.7199C207.334 49.8983 207.109 50.0385 207.645 50.8706C207.946 51.3386 208.248 51.7665 208.371 52.4457V52.4439ZM222.466 40.8979C226.252 40.5228 229.797 41.0363 233.259 42.6568C234.816 43.3851 236.451 44.3629 235.955 46.1656C235.385 48.2413 233.045 46.7282 231.609 46.2439C227.439 44.8364 224.606 44.9347 220.182 45.6448C215.871 46.3386 217.421 43.1375 217.738 42.8007C218.663 41.8192 220.785 41.0617 222.466 40.8961V40.8979ZM197.165 40.6466C198.865 40.4536 200.589 40.3844 202.394 40.7923C203.948 41.1419 205.554 41.832 205.923 42.9882C206.564 44.9984 205.138 46.1201 203.166 45.8051C200.176 45.328 197.886 44.1171 193.942 46.1055C190.415 47.8845 189.425 45.8342 191.447 43.3888C192.78 41.7792 195.105 40.8797 197.165 40.6466ZM188.901 45.0021C189.47 47.2381 186.826 65.2062 189.81 79.7183C190.319 82.1929 192.208 87.761 193.578 89.926C194.732 91.7505 195.134 92.9249 196.917 94.7075C198.963 96.7542 199.476 97.7829 202.67 99.5346C203.316 99.8878 205.141 100.811 205.54 101.241C206.713 101.27 207.404 101.567 208.462 101.811C211.044 102.41 215.446 102.317 218.071 102.056C221.455 101.721 225.417 100.194 228.502 98.5695C230.021 97.7702 231.524 96.7706 232.746 95.8601C233.087 95.607 233.456 95.3048 233.684 95.099L239.888 89.0666C240.248 88.6605 240.337 88.6113 240.683 88.167C242.481 85.8582 242.037 86.6248 243.518 84.0301C243.703 83.706 243.947 83.3764 244.164 82.9995C244.958 81.6266 245.751 79.4725 246.069 77.9321C246.946 73.7022 247.838 76.0894 249.953 76.0347C255.91 75.8763 260.551 68.6221 261.827 63.2925C262.57 60.1916 261.847 57.2837 259.919 54.9839C259.291 54.2356 258.697 53.9479 258.067 53.2104C256.911 52.8863 255.247 51.0746 251.845 52.7407C251.565 52.879 250.475 53.6201 250.375 53.7112C249.575 54.4413 247.511 57.3146 247.054 58.1031C246.1 59.7527 244.728 59.1974 244.233 57.3201C243.612 54.9566 244.279 52.3965 244.369 49.8801C244.516 45.8178 243.268 44.84 242.079 41.344C240.846 37.7205 240.306 36.3421 240.051 32.5038C239.708 27.3435 241.276 26.0325 241.758 23.4214C239.929 23.7164 237.997 24.4757 236.127 24.8507C222.757 27.5329 213.086 29.1425 199.329 26.3548C197.507 25.9851 195.671 25.2604 193.977 24.9436C193.466 26.3038 192.443 27.6221 191.969 29.3391C191.147 32.3071 190.263 36.6517 189.814 39.6579C189.675 40.592 189.571 41.5206 189.47 42.5075C189.361 43.5727 189.445 44.5414 188.901 45.0039V45.0021Z" fill="#FFD0BF"/>
<path fill-rule="evenodd" clip-rule="evenodd" d="M85.5524 175.145C83.9137 174.455 81.9238 174.027 80.2091 173.541C78.7135 173.117 75.5068 172.664 74.4929 172.257C73.9225 172.645 74.1325 172.429 73.4137 172.585C73.1838 172.636 73.2182 172.609 72.9556 172.7C72.273 172.935 72.8488 172.694 72.5337 172.917C72.8488 173.131 72.7456 172.9 71.8421 173.419C69.0808 175.011 69.2166 178.314 70.8172 180.856C72.0195 180.673 71.8058 180.249 73.3847 180.564L80.0624 182.707C81.6232 183.343 87.6147 185.755 88.7355 185.908C89.3964 185.766 90.0754 185.36 90.4918 185.018C93.4432 182.585 92.5759 181.163 92.0092 179.158C97.9173 180.956 97.1134 180.264 102.149 180.626C102.116 181.3 101.091 183.037 100.76 183.996C100.286 185.373 100.163 186.566 99.8747 188.024C99.326 190.814 98.9838 193.538 98.3609 196.145C97.2492 200.792 95.7083 206.71 94.182 211.46C94.5459 211.568 94.3359 211.357 94.7668 211.977C96.1429 213.959 100.414 218.915 102.174 220.404C102.882 221.003 103.496 221.985 104.211 222.711L108.401 226.812C108.81 227.198 109.049 227.438 109.475 227.812C110.081 228.345 109.929 228.241 110.453 228.911C111.074 229.705 111.997 230.206 112.745 230.956L126.767 241.99C132.193 245.721 141.272 251.082 148.341 249.307C153.376 248.043 157.499 242.118 160.052 237.966L163.559 230.898C163.976 230.137 165.868 225.381 166.081 225.206C165.569 221.591 165.23 217.378 165.029 213.7C164.948 212.194 164.244 202.666 164.021 202.059L163.235 201.808C159.675 201.477 146.036 197.054 141.996 195.12C141.112 194.698 139.992 194.109 139.157 193.824C138.3 194.674 135.713 203.447 135.405 205.36C136.544 205.717 137.544 205.763 138.69 206.147C139.543 206.433 140.643 206.857 141.402 207.216C142.708 207.835 144.909 209.374 145.898 210.271L147.654 212.289C148.523 213.387 152.262 218.339 151.373 219.561C150.209 220.466 149.733 219.417 149.251 218.41L146.61 214.27C145.558 212.826 146.046 213.682 145.293 212.771L142.789 210.386C138.505 207.229 135.755 207.724 135.316 205.568C132.881 205.444 120.744 199.235 118.159 197.698L115.886 196.411C114.928 195.901 114.074 195.146 113.362 194.923L113.065 195.797C112.54 198.166 112.662 198.969 111.381 201.493C110.632 202.97 109.011 206.116 107.407 205.748C106.826 204.745 107.313 204.352 108.385 202.851C109.573 201.189 111.448 197.318 111.926 195.45C112.35 193.791 112.129 194.266 112.623 194.115C112.776 191.233 113.163 188.463 113.203 185.55C113.221 184.146 113.176 182.627 112.984 181.282C112.785 179.896 112.287 178.614 112.111 177.551C111.447 176.001 110.987 174.912 110.11 173.701C109.636 173.046 107.928 171.03 107.369 170.704L106.192 169.905C105.846 169.665 105.54 169.444 105.151 169.253C104.459 168.911 103.389 168.714 102.576 168.599C99.0381 168.341 95.654 168.492 92.4944 169.874C91.9585 170.109 91.1056 170.613 90.6729 170.857C89.6788 171.416 89.4978 171.815 89.4453 171.873C88.1597 173.317 88.8296 175.158 89.3656 176.744L85.556 175.153L85.5524 175.145Z" fill="#FFD0BF"/>
<path fill-rule="evenodd" clip-rule="evenodd" d="M163.074 358.809L163.078 358.998H212.431C212.478 357.818 214.062 336.569 213.834 336.136C213.416 335.342 197.565 329.005 192.959 326.21C191.789 325.5 191.036 325.179 191.646 323.603C193.486 323.293 197.922 326.338 201.511 327.78C204.038 328.796 206.209 329.915 209.03 330.997C210.126 331.418 210.58 331.718 211.415 332.15C211.227 331.465 210.781 330.862 210.379 330.209C209.626 328.983 208.388 324.648 207.984 323.167C205.74 314.935 205.581 309.42 205.268 300.99C205.212 299.498 205.134 289.398 204.766 289.016C204.321 288.488 204.681 288.721 202.8 288.653C201.455 288.604 198.103 288.42 197.786 286.887C197.627 286.568 197.214 285.529 197.162 285.494C195.856 285.148 194.339 285.123 192.879 284.937C191.512 284.764 190.122 284.525 188.977 284.363C186.238 283.974 183.871 283.282 181.34 283.038L181.38 270.055L177.244 269.356C176.687 272.872 176.994 278.096 176.935 281.787C176.294 282.051 175.387 281.465 174.637 281.188C173.777 280.871 173.044 280.667 172.26 280.357C171.546 280.075 168.193 278.586 167.851 278.684L166.976 288.276C166.771 289.755 166.835 291.701 166.668 293.256C166.505 294.795 166.344 296.243 166.35 297.781C167.409 297.708 170.257 296.281 171.122 295.771C174.007 294.072 175.799 291.277 176.708 287.985C177.5 285.123 177.118 283.573 178.515 283.311C179.404 284.201 178.742 289.149 178.504 290.139C178.121 291.743 177.422 292.79 176.629 293.925L175.877 294.873C175.852 294.902 175.812 294.941 175.787 294.97C174.825 296.086 175.187 295.951 173.882 296.865C172.089 298.12 171.316 298.814 168.917 299.453C166.768 300.024 166.78 299.571 166.147 300.42L165.066 314.569C164.568 319.416 164.762 324.269 164.275 329.147L163.72 351.438C163.719 353.078 163.4 355.096 163.492 357.112C163.585 359.102 163.483 358.525 163.072 358.805L163.074 358.809Z" fill="#33667B"/>
<path fill-rule="evenodd" clip-rule="evenodd" d="M412.868 183.086C412.349 180.375 415.617 179.173 416.075 182.161C416.542 185.215 413.399 185.863 412.868 183.086ZM429.443 183.275C428.514 186.467 425.657 184.306 426.276 181.855C426.99 179.033 430.171 180.779 429.443 183.275ZM422.78 162.851C422.556 166.749 422.767 177.088 422.751 181.764C422.74 184.585 422.423 199.028 422.878 200.579C425.275 200.313 442.169 200.173 443.235 200.898C443.863 201.498 443.55 202.587 443.47 203.104C441.969 203.527 424.261 203.352 421.319 203.317C418.271 203.281 400.422 203.796 399.265 203.035C398.972 202.698 399.251 203.345 398.954 202.531C398.729 201.915 398.95 201.16 399.147 200.683C402.528 200.288 415.68 200.461 419.753 200.561L419.838 162.876C415.027 162.567 407.739 162.891 402.34 162.798C399.96 162.758 398.604 163.397 398.885 160.471C401.144 159.559 412.054 159.996 415.304 160.003L440.859 159.985C442.274 159.959 443.664 160.032 443.211 161.778C442.833 163.241 441.336 162.816 439.922 162.811C434.209 162.787 428.489 162.813 422.778 162.853L422.78 162.851ZM394.758 208.01L446.853 208.192L446.9 152.011L394.827 152.019L394.758 208.01Z" fill="#FFD0BF"/>
<path fill-rule="evenodd" clip-rule="evenodd" d="M188.903 44.9984C189.446 44.5359 189.363 43.5672 189.472 42.502C189.573 41.5133 189.676 40.5865 189.816 39.6524C190.265 36.648 191.148 32.3035 191.97 29.3337C192.447 27.6184 193.468 26.2983 193.978 24.9382C195.673 25.255 197.507 25.9797 199.331 26.3493C213.088 29.137 222.759 27.5274 236.129 24.8453C237.999 24.4702 239.931 23.7109 241.76 23.4159C241.278 26.027 239.71 27.3362 240.052 32.4983C240.308 36.3348 240.847 37.715 242.08 41.3385C243.27 44.8346 244.517 45.8124 244.371 49.8747C244.28 52.3911 243.614 54.9512 244.235 57.3146C244.727 59.1901 246.1 59.7473 247.056 58.0976C247.512 57.3092 249.576 54.4359 250.377 53.7057C250.476 53.6147 251.566 52.8736 251.847 52.7352C255.249 51.071 256.913 52.8809 258.068 53.205L258.235 53.2268C258.586 49.6853 261.168 42.6313 261.632 36.648C262.307 27.9225 260.506 19.827 253.703 14.7378C250.208 12.123 250.158 14.0368 248.955 12.1613C246.013 7.56546 240.994 4.4336 235.698 2.58727C221.598 -2.32902 198.603 -0.406208 188.087 9.75958C185.227 12.5236 183.276 16.3219 184.777 20.7375C185.528 22.948 186.022 22.6603 186.881 23.7983C185.122 27.46 184.36 30.5646 185.108 35.1258C185.624 38.2795 187.082 43.3014 188.905 44.9966L188.903 44.9984Z" fill="#030229"/>
<path fill-rule="evenodd" clip-rule="evenodd" d="M88.7357 185.91C88.2523 186.446 88.3265 186.646 88.5891 187.4C89.5396 188.503 90.7582 190.027 90.014 192.318C89.8547 192.808 88.9476 194.284 88.7846 194.463C88.4804 194.792 87.2401 195.53 86.6444 195.668C86.4326 196.014 86.3402 196.081 86.2986 196.653C86.4561 198.669 85.8169 199.814 84.8826 200.921C84.1041 201.844 83.253 202.604 81.5058 202.988C78.4548 203.658 75.1938 202.343 72.3873 201.559C71.9292 202.968 71.7843 203.76 70.9641 204.689C70.0135 205.767 69.8162 205.859 68.0327 205.439C65.409 204.822 63.1638 204.601 60.3844 204.434C54.1848 204.06 55.5627 206.116 52.7471 207.895C52.1804 208.254 51.2406 209.63 50.7481 210.262L46.2342 216.681C43.0058 221.3 44.5484 225.568 49.3992 227.777C58.275 231.819 69.2476 237.91 78.3987 242.455C83.1589 244.818 87.5135 246.51 90.9447 241.963C92.2013 240.299 92.922 238.24 93.6571 235.978C94.3759 233.769 95.3229 231.746 96.0127 229.683L86.3058 223.123C80.9354 219.895 71.1416 214.754 65.2461 212.169C63.4119 211.364 55.2567 207.924 53.5764 207.922L54.4183 206.739C55.2712 205.672 55.7709 205.029 57.558 204.789C59.4357 204.537 62.0484 204.756 63.937 204.982C73.2618 206.093 75.6284 208.6 84.3177 212.136C87.4447 213.409 92.243 217.194 92.2466 217.196L92.7753 217.282L94.1822 211.455C95.7067 206.704 97.2494 200.787 98.3612 196.14C98.984 193.532 99.3263 190.808 99.8749 188.019C100.161 186.562 100.284 185.368 100.76 183.991C101.092 183.031 102.118 181.294 102.149 180.621C97.1136 180.258 97.9176 180.95 92.0094 179.153C92.5761 181.158 93.4434 182.582 90.492 185.013C90.0756 185.357 89.3948 185.763 88.7357 185.903V185.91Z" fill="#697391"/>
<path fill-rule="evenodd" clip-rule="evenodd" d="M27.9048 275.463C29.194 275.62 29.7426 275.297 31.2328 275.689C31.814 278.156 31.4826 297.193 31.4826 300.423C32.3463 300.689 42.0352 300.689 43.1795 300.498L43.2863 283.229C43.2809 281.887 42.993 280.399 44.4288 280.013C45.2092 279.802 58.5121 279.589 59.3812 280.259C60.7936 281.35 60.149 284.038 60.1508 285.685C60.1526 288.839 59.7995 299.12 60.283 300.509L71.3877 300.542C72.0486 298.748 71.1722 280.911 71.5561 276.863C71.7173 275.181 73.642 275.381 75.2191 275.627C74.8062 274.977 72.2532 272.903 71.509 272.415C71.2917 272.273 71.3479 272.34 71.1541 272.198C70.6852 271.856 71.1922 272.233 70.7612 271.847L66.0915 268.038C66.0626 268.012 66.0264 267.97 65.9974 267.945L62.7835 265.323C62.7418 265.286 62.6187 265.188 62.5752 265.152C62.4666 265.062 62.4177 265.037 62.2602 264.899L59.2599 262.431C59.2273 262.408 59.1803 262.377 59.1495 262.353C59.1187 262.329 59.0752 262.295 59.0463 262.269C59.0173 262.246 58.9775 262.206 58.9485 262.18C58.8254 262.071 58.8362 262.047 58.666 261.903L57.7933 261.264C57.7535 261.228 57.6484 261.113 57.6086 261.077C57.5796 261.051 57.5416 261.011 57.5126 260.984L51.5465 256.133C51.3455 256.275 51.0432 256.463 50.8404 256.625L40.8437 264.906C40.8039 264.942 40.6826 265.044 40.6409 265.081L38.3487 266.934C37.8073 267.324 38.1078 267.138 37.6461 267.552C37.4234 267.752 37.494 267.672 37.3329 267.805L32.4767 271.796C32.2685 271.943 32.3355 271.867 32.129 272.02L27.9048 275.461V275.463Z" fill="#AEB0BC"/>
<path fill-rule="evenodd" clip-rule="evenodd" d="M106.931 143.674C108.564 144.096 114.82 149.482 117.324 151.143C121.407 153.852 116.002 160.287 114.188 162.753C113.972 163.046 112.968 164.071 112.662 164.259C111.019 165.265 107.338 162.818 106.63 162.084C105.524 161.536 96.8093 155.706 94.8357 154.115C94.5116 153.854 94.287 153.698 94.0806 153.547C93.8036 153.346 93.4396 153.106 93.3129 152.993L92.0201 151.425C91.6815 150.52 91.8952 149.872 92.3188 149.102C93.0974 147.685 93.7312 146.833 94.5514 145.664C95.3426 144.539 95.9709 143.452 96.7387 142.195C97.4122 141.094 98.0659 139.734 98.897 138.85C99.9001 139.118 102.156 140.513 103.067 141.09C103.822 141.569 106.576 143.078 106.934 143.672L106.931 143.674ZM75.8527 149.266C76.1859 148.796 75.8201 149.226 76.1841 148.92L77.1655 148.37C77.5077 148.197 77.9929 147.855 78.2971 147.629L80.3124 145.875C80.8501 145.162 81.6106 144.817 82.2661 144.071C82.5938 143.698 82.7676 143.352 83.1044 143.027C84.9531 141.258 88.9746 134.664 89.8455 132.63C90.5009 132.942 91.6199 133.765 91.7195 134.34C91.5022 136.194 89.7459 138.636 88.9402 139.805L85.9707 143.825C85.4438 144.601 85.317 144.455 84.5348 145.405C83.1968 147.028 77.4153 152.055 75.8527 149.268V149.266ZM67.2231 147.148C67.75 148.659 67.2738 148.847 68.2661 150.196C69.7273 152.185 70.8662 152.862 72.3093 154.286C72.8833 154.852 73.8194 155.697 74.5744 155.925C75.6355 156.309 75.2262 156.269 76.7146 156.269C84.5692 156.276 84.2759 155.821 89.0198 159.375C89.4997 159.736 90.0103 160.12 90.4104 160.431C92.3243 161.924 94.4971 163.201 96.4471 164.564C96.9759 164.934 97.3905 165.349 97.95 165.692C98.5294 166.047 98.9277 166.227 99.5126 166.586C100.085 166.937 100.463 167.181 101.032 167.501L102.252 168.215C102.589 168.514 102.303 168.184 102.574 168.596C103.387 168.711 104.456 168.907 105.149 169.249C105.537 169.441 105.844 169.661 106.19 169.901L107.367 170.701C107.63 170.459 107.293 170.655 107.771 170.48C107.909 170.429 108.091 170.388 108.24 170.351C108.573 170.271 108.774 170.253 109.142 170.145C109.692 169.985 110.277 169.756 110.777 169.534C117.99 166.32 122.432 157.487 123.073 150.021L122.941 146.343C122.631 144.058 119.915 142.563 117.65 140.983L112.278 137.095C111.483 136.505 111.771 136.888 111.869 136.667C111.524 135.943 109.115 134.382 108.283 133.768L106.082 132.203C105.006 131.436 100.747 128.151 100.116 128.062C98.7141 127.893 91.6181 121.463 87.5948 120.926C88.0131 122.587 88.033 124.458 87.5387 126.257C86.5899 129.715 83.2384 135.316 81.4368 137.736L80.4337 139.002C80.4102 139.033 80.3739 139.074 80.3486 139.105L78.7625 140.906C77.6199 142.072 77.2397 142.729 75.4435 144.206C71.5633 147.392 70.0297 146.56 67.2268 147.148H67.2231Z" fill="#878A9E"/>
<path fill-rule="evenodd" clip-rule="evenodd" d="M331.545 29.7944C332.897 29.5486 335.791 29.0552 337.073 29.2373C338.538 30.0366 336.577 32.7879 336.003 33.5982C335.161 34.7908 329.999 43.2632 329.502 43.4581C328.402 43.5364 328.418 43.398 327.777 42.8954C327.458 40.9817 330.312 35.5356 330.85 33.2304C328.369 33.4798 325.599 34.556 325.035 32.8699C324.711 31.9012 326.87 28.8822 327.69 27.5238C328.021 26.9758 328.358 26.5133 328.715 25.9142L330.764 22.6877C331.778 21.2565 331.724 20.0584 333.949 20.4371C334.8 21.7736 333.933 23.5835 333.27 25.1695C332.676 26.5934 332.001 28.4525 331.547 29.7926L331.545 29.7944ZM323.254 51.7502L338.67 51.8103C338.63 47.453 339.763 45.3663 342.172 42.2672C342.639 41.6664 342.74 41.8393 343.265 41.3004L346.175 37.6095C350.164 31.6025 350.066 23.1229 345.845 17.6913C345.523 17.2761 345.201 16.9065 344.873 16.4076C343.984 15.0547 343.712 15.1348 342.646 14.3009C335.631 8.82557 327.244 8.88566 319.978 13.9148C318.28 15.0911 316.017 17.9735 315.062 19.9036C312.96 24.1553 312.632 29.9128 314.28 34.3466C314.651 35.348 315.229 36.5261 315.676 37.2781L316.576 38.6365C317.742 40.2698 319.879 41.894 321.586 44.5615C323.027 46.8139 323.402 48.7913 323.254 51.7502Z" fill="#FDE6B5"/>
<path fill-rule="evenodd" clip-rule="evenodd" d="M382.725 103.16C382.723 101.452 382.634 99.1232 382.799 97.4808C382.924 96.2354 383.163 96.2499 384.485 96.1971C385.763 96.1443 390.927 96.1243 391.771 96.3555V105.447L389.379 105.494C384.226 105.513 382.73 106.252 382.725 103.349V103.16ZM394.771 96.7051C397.782 95.6545 396.929 96.3009 399.309 93.8737L404.617 88.4422C406.07 86.9363 405.814 87.4662 406.528 86.7743L408.751 84.48C409.631 83.3074 409.073 84.0339 410.046 83.291C412.411 85.0262 410.884 84.0302 412.059 85.263C412.765 86.004 413.531 86.3882 414.256 87.1002C413.437 87.9177 412.709 89.1195 412.027 89.6658C411.436 90.1374 411.52 89.7987 410.661 90.7401C410.259 91.1789 410.008 91.5012 409.609 91.9491C408.947 92.6957 408.087 93.8573 407.42 94.4783C406.473 95.3614 407.022 94.3035 405.038 96.798C402.803 99.6076 401.979 99.8006 401.49 100.409C400.301 101.893 397.244 105.687 394.782 105.402L394.773 96.7051H394.771ZM399.848 52.0015C399.714 51.905 399.578 51.8104 399.406 51.6884C399.361 51.6556 399.231 51.5627 399.185 51.5318L397.873 50.5813C397.842 50.5576 397.802 50.5194 397.773 50.4939L397.483 50.228C397.454 50.2044 397.411 50.1698 397.38 50.1461C397.163 49.9749 397.174 50.0241 396.933 49.822C396.627 49.5634 396.861 49.8511 396.627 49.5015C397.129 49.0955 398.356 48.8606 398.968 48.7732C399.711 48.6658 400.837 48.6257 401.581 48.7604C402.354 48.9006 403.176 49.1374 403.884 49.4906L406.685 51.7503C408.749 53.7514 408.595 56.2587 408.635 59.1374C408.657 60.7143 408.326 63.6076 408.999 64.9041C409.472 65.8108 410.609 66.6794 411.733 68.0214C414.447 71.2552 426.704 82.2349 427.93 84.2415C428.286 84.8259 431.486 87.661 431.748 87.7903C433.899 88.8591 436.646 86.6668 440.056 89.8005L441.423 91.2572C442.127 92.3351 442.792 94.4309 442.886 95.9094C442.085 95.4979 442.065 95.325 441.455 94.8115C438.326 92.1785 434.158 91.0532 431.511 94.9098C430.269 96.7179 429.699 99.298 430.975 101.368C431.086 101.547 431.374 102.015 431.421 102.077C431.958 102.796 433.45 103.939 434.16 104.431L435.433 105.161C435.165 105.52 435.113 105.569 434.363 105.695C430.727 106.308 429.418 105.323 427.187 103.32C424.692 101.081 425.44 94.4783 425.33 94.0576C424.996 92.8122 423.202 91.8708 422.445 91.0678C422.009 90.6035 422.192 90.6253 421.828 90.1847L419.622 88.2473C419.047 87.7175 418.621 87.3551 418.051 86.8034C417.43 86.2025 417.346 85.7983 416.769 85.2593C415.11 83.7061 415.592 84.8114 413.821 82.5517L407.815 76.8688C407.458 76.4118 407.581 76.4373 407.185 76.0003L403.415 72.6008C401.432 71.2206 396.109 73.2709 391.548 70.1791C389.444 68.7533 390.585 69.753 389.234 67.9904C388.296 66.7668 387.442 64.3851 387.416 62.6644L390.876 65.2027C392.156 66.0567 393.009 66.6758 394.742 67.0035C398.05 67.6317 400.734 66.2642 402.608 63.7314C404.891 60.6433 404.268 55.6924 401.394 53.2889L399.848 52.007V52.0015ZM407.795 81.0532C404.637 84.0029 400.598 88.2947 397.382 91.5594C394.532 94.4528 395.282 93.5041 392.924 93.342C390.757 93.1927 388.213 93.3421 385.997 93.3238C379.14 93.2692 379.857 94.948 379.855 101.082C379.855 103.171 379.54 105.762 380.648 107.215C381.751 108.661 384.144 108.457 386.373 108.453C388.691 108.45 391.009 108.466 393.326 108.453C395.638 108.439 397.154 108.377 398.972 107.159C400.665 106.026 399.759 106.483 400.728 105.503C401.55 104.671 401.266 105.365 402.615 103.814C405.126 100.924 407.245 99.1014 409.389 96.6396C409.685 96.2991 409.867 96.0132 410.156 95.7037C410.647 95.1775 410.946 95.2121 412.831 93.1108C413.758 92.0766 415.617 90.3905 416.209 89.3562C417.131 89.7204 420.039 92.479 420.852 93.6279L422.351 95.0373C421.962 98.8592 422.471 102.262 424.765 105.179C425.141 105.658 425.344 105.749 425.782 106.239L427.044 107.252C428.864 108.42 431.2 108.983 433.673 108.803C436.28 108.613 442.33 106.58 438.142 103.433L434.618 100.755C431.469 98.1272 434.424 94.9553 436.63 95.3759C437.695 95.578 439.578 97.2114 440.449 97.9197C441.707 98.943 443.262 100.589 444.696 99.4583C446.205 98.2693 445.886 94.6021 445.294 92.6884C444.943 91.5558 444.637 90.7346 444.035 89.795C439.397 82.5462 434.032 86.4574 432.42 84.4363C429.766 81.1078 423.217 75.6653 419.718 71.8998C419.036 71.1641 419.441 71.2279 417.707 69.5836C416.921 68.8371 416.338 68.3473 415.61 67.5279C414.312 66.0658 414.382 66.6885 413.385 65.4303C412.336 64.1065 411.715 63.7642 411.608 63.0869C411.474 62.2292 411.612 59.9586 411.614 58.9499C411.626 54.6618 411.344 52.2546 408.604 49.2648C408.003 48.6075 407.247 47.8446 406.359 47.3493C404.27 46.1858 402.251 45.5721 399.524 45.6978C397.679 45.7834 392.663 46.8613 392.613 49.3231C392.591 50.3591 393.377 50.8016 394.478 51.7612C397.739 54.6035 401.514 55.6888 400.918 60.0187C400.411 63.7114 396.426 65.2318 393.444 63.3509L388.626 59.6983C386.103 57.6006 384.543 58.6713 384.472 62.1509C384.324 69.5691 389.645 74.7512 396.891 74.9843C399.671 75.0735 401.139 74.4326 402.3 75.8219C402.781 76.3972 402.899 76.4409 403.491 76.8834C404.036 77.2913 404.147 77.3222 404.552 77.9031C405.179 78.7971 405.771 79.0939 406.654 79.937C407.078 80.3412 407.524 80.6052 407.797 81.055L407.795 81.0532Z" fill="#697391"/>
<path fill-rule="evenodd" clip-rule="evenodd" d="M205.632 106.106C205.393 115.403 207.949 121.221 212.561 128.492L216.329 134.458C216.916 134.216 216.861 133.974 217.305 133.426C217.817 132.792 218.056 132.898 218.514 132.374C220.207 130.434 220.084 130.804 222.047 129.122L226.852 125.074C227.285 124.71 227.761 124.446 228.158 124.12L233.235 120.158C235.897 117.938 237.61 116.814 240.612 114.163C241.667 113.231 243.884 110.624 244.838 109.351C246.076 107.697 247.15 105.758 247.958 103.418C248.294 102.444 248.714 100.824 248.819 99.7531C248.888 99.0448 248.87 98.3656 248.946 97.6609L249.178 95.5105C248.736 94.8641 248.894 87.4988 248.861 85.9838C248.832 85.942 248.807 85.8819 248.794 85.8473C248.749 85.7198 248.627 85.9493 248.62 84.844L248.704 81.3389L245.229 87.8047C244.01 89.875 242.529 92.2676 241.008 94.1503L236.818 99.012L230.336 104.589C227.162 106.867 222.755 109.262 218.994 110.232C215.109 111.235 209.392 111.443 207.033 107.586C206.495 106.709 206.233 106.477 205.887 105.245L205.635 106.106H205.632Z" fill="#FFD0BF"/>
<path fill-rule="evenodd" clip-rule="evenodd" d="M69.2078 44.4486L69.2187 45.1387L106.346 45.2953L106.303 44.8819C105.294 43.7494 106.678 25.4189 105.712 23.7219C105.139 22.7149 104.38 22.8661 103.029 22.846C102.479 22.8388 100.027 22.5893 99.6739 23.0991C99.2828 23.9986 99.5508 28.1083 99.5508 29.4685C99.5508 31.6389 99.721 33.9004 96.9978 32.9791L96.938 23.0973C96.3387 22.8934 86.458 22.6075 85.8568 22.8369C85.1833 25.0183 86.706 32.7514 84.8501 33.6236C83.6297 33.6983 83.1517 33.3469 83.1082 32.1233C83.034 30.093 83.4704 23.6509 83.11 22.8588C81.743 22.6585 80.079 22.6549 78.6377 22.5948C77.0751 22.531 75.8692 22.3289 74.2813 22.3253C68.4546 22.3089 68.9272 20.1057 69.206 35.703C69.2295 37.0486 69.8524 44.3229 69.206 44.4467L69.2078 44.4486Z" fill="#FFD0BF"/>
<path fill-rule="evenodd" clip-rule="evenodd" d="M362.78 298.289C364.037 298.473 372.898 298.577 373.899 298.282C374.153 295.944 373.284 292.585 375.748 292C378.366 291.377 385.857 293.096 392.701 287.887C392.955 287.694 393.167 287.543 393.341 287.395L398.121 282.024C400.373 278.571 401.164 273.085 401.125 268.868C401.092 265.425 401.253 264.258 401.726 261.179L386.715 261.204C386.362 264.036 388.213 270.226 385.665 274.753C383.293 278.965 378.962 279.179 374.349 279.161C369.873 279.143 363.097 277.881 362.653 282.963C362.481 284.935 362.425 297.348 362.782 298.289H362.78Z" fill="#8D98AF"/>
<path fill-rule="evenodd" clip-rule="evenodd" d="M394.827 152.019L446.9 152.012L446.853 208.192L394.758 208.01L394.827 152.019ZM445.368 211.094C447.534 210.992 448.412 211.526 449.388 210.555C449.882 210.064 449.799 210.313 449.893 209.539L449.902 167.78C449.898 163.751 449.898 159.717 449.906 155.688C449.918 148.927 451.14 149.074 444.432 149.076L396.895 149.078C395.008 149.074 392.354 148.583 391.843 150.271C391.564 151.196 391.717 154.848 391.717 156.067C391.715 161.303 391.563 208.864 391.818 209.893C392.224 211.533 394.84 211.091 396.5 211.069C396.573 212.817 396.292 213.86 397.13 214.967C398.425 215.14 400.384 215.197 401.57 214.807C401.97 213.261 401.867 212.791 402.037 211.091C408.121 210.858 414.799 211.087 420.95 211.094C424.144 211.098 427.338 211.103 430.532 211.098C432.098 211.094 433.664 211.102 435.228 211.096C435.964 211.094 439.244 210.969 439.766 211.275C439.891 212.178 439.826 213.356 440.2 214.148C440.707 215.215 441.319 215.069 442.744 215.066C443.934 215.062 444.858 215.22 445.2 214.071C445.47 213.165 445.25 212.043 445.372 211.094H445.368Z" fill="#697391"/>
<path fill-rule="evenodd" clip-rule="evenodd" d="M46.3734 300.513C46.1109 299.83 46.0801 283.963 46.3517 282.93L57.1161 282.94C57.3822 284.096 57.3695 299.626 57.0907 300.545L46.3716 300.513H46.3734ZM32.129 272.024C32.3354 271.871 32.2666 271.947 32.4766 271.8L37.3328 267.808C37.4958 267.675 37.4234 267.755 37.6461 267.555C38.1078 267.142 37.8072 267.328 38.3486 266.938L40.6409 265.084C40.6825 265.048 40.8038 264.946 40.8437 264.91L50.8403 256.628C51.0431 256.466 51.3455 256.279 51.5465 256.137L57.5126 260.987C57.5416 261.013 57.5796 261.053 57.6086 261.08C57.6484 261.117 57.7534 261.231 57.7932 261.268L58.666 261.907C58.8362 262.049 58.8253 262.074 58.9484 262.184C58.9774 262.209 59.0154 262.249 59.0462 262.273C59.0752 262.298 59.1186 262.333 59.1494 262.357C59.1802 262.38 59.2273 262.411 59.2599 262.435L62.2601 264.902C62.4177 265.041 62.4666 265.066 62.5752 265.155C62.6168 265.19 62.7418 265.29 62.7834 265.326L65.9973 267.949C66.0245 267.974 66.0625 268.016 66.0915 268.041L70.7612 271.851C71.1939 272.237 70.6851 271.86 71.1541 272.202C71.3478 272.342 71.2917 272.277 71.509 272.419C72.2532 272.907 74.808 274.979 75.219 275.631C73.6419 275.385 71.7172 275.183 71.5561 276.867C71.1704 280.915 72.0486 298.752 71.3877 300.545L60.2829 300.513C59.7995 299.123 60.1525 288.843 60.1507 285.689C60.1489 284.039 60.7935 281.354 59.3812 280.263C58.5121 279.591 45.2092 279.806 44.4288 280.017C42.9929 280.405 43.2808 281.891 43.2863 283.233L43.1794 300.502C42.0333 300.693 32.3463 300.693 31.4826 300.427C31.4826 297.197 31.8139 278.16 31.2327 275.693C29.7425 275.301 29.1957 275.623 27.9047 275.467L32.129 272.025V272.024ZM74.5147 278.599C77.4986 278.511 80.6528 279.185 80.8737 277.171C81.0529 275.543 79.6479 275.132 78.2519 273.937L59.1024 258.249C58.7058 257.941 58.4559 257.735 58.0558 257.409L57.0346 256.55C55.8703 255.647 52.756 252.644 51.5501 252.642C50.4148 252.641 48.5317 254.494 47.5323 255.376L39.0602 262.353C38.7542 262.588 38.8556 262.488 38.5369 262.77L36.9037 264.154C36.4601 264.485 36.7625 264.254 36.3858 264.571L32.1344 268.045C31.5568 268.455 31.622 268.396 31.0933 268.89C30.9466 269.028 30.3455 269.554 30.0757 269.753L25.7899 273.196C25.377 273.513 25.0801 273.772 24.651 274.127C23.0848 275.425 21.9911 275.895 22.2519 277.315C22.6321 279.376 26.6101 278.397 28.5529 278.582C28.4787 281.405 28.2687 301.179 28.7123 302.388C29.3297 304.072 31.7524 303.579 33.697 303.577L69.5842 303.582C71.4076 303.586 73.9063 304.009 74.4006 302.419C74.7555 301.283 74.4096 281.896 74.5147 278.599Z" fill="#697391"/>
<path fill-rule="evenodd" clip-rule="evenodd" d="M270.984 251.34C272.335 251.484 274.254 251.994 275.67 252.293C276.378 252.442 277.395 252.664 278.029 252.768C279.195 252.959 279.378 252.519 279.642 251.634C279.487 249.09 281.096 237.624 281.638 234.54C282.583 229.157 283.526 223.78 284.709 218.352C285.261 215.814 291.229 189.563 292.237 187.551C292.992 188.124 295.593 190.537 296.237 191.351C297.257 192.635 299.091 193.882 300.34 195.16C300.863 195.695 300.822 195.941 302.172 197.281C303.36 198.459 307.454 202.598 308.439 202.9C309.469 203.294 308.58 203.061 308.959 202.602C307.682 202.205 303.766 197.76 302.703 196.744C300.61 194.741 298.504 192.82 296.433 190.772L293.373 187.811C292.791 187.336 292.181 186.972 291.609 186.546C290.977 186.074 290.584 185.655 290.054 185.096C289.543 184.557 288.931 184.122 288.507 183.614C287.191 182.035 287.646 182.902 286.909 182.196C286.157 181.476 287.26 182.199 285.371 180.73C284.537 180.08 284.696 179.619 283.405 179.404C282.724 180.449 280.061 194.095 279.617 196.586L273.745 232.243C273.265 235.414 273.003 238.343 272.592 241.466L271.616 250.902L270.986 251.344L270.984 251.34Z" fill="#317DA3"/>
<path fill-rule="evenodd" clip-rule="evenodd" d="M396.627 49.4979C396.86 49.8475 396.625 49.5617 396.933 49.8184C397.174 50.0223 397.161 49.9732 397.38 50.1425C397.411 50.1662 397.454 50.2008 397.483 50.2245L397.773 50.4903C397.802 50.5158 397.844 50.554 397.873 50.5777L399.185 51.5282C399.231 51.561 399.361 51.6538 399.406 51.6848C399.576 51.8068 399.714 51.9015 399.848 51.998L401.394 53.2798C404.266 55.6834 404.891 60.6342 402.607 63.7224C400.733 66.257 398.05 67.6245 394.742 66.9945C393.009 66.6649 392.156 66.0458 390.876 65.1936L387.416 62.6554C387.441 64.3761 388.296 66.7578 389.234 67.9814C390.585 69.7439 389.446 68.7461 391.548 70.17C396.109 73.2618 401.432 71.2115 403.415 72.5917L407.185 75.9913C407.581 76.4283 407.456 76.4046 407.815 76.8598L413.821 82.5427C415.59 84.8023 415.11 83.6971 416.769 85.2503C417.344 85.7892 417.428 86.1935 418.051 86.7943C418.623 87.3461 419.046 87.7066 419.622 88.2383L421.828 90.1757C422.192 90.6163 422.009 90.5945 422.445 91.0588C423.202 91.8618 424.996 92.8031 425.329 94.0486C425.442 94.4674 424.692 101.07 427.187 103.311C429.418 105.314 430.727 106.297 434.363 105.686C435.112 105.56 435.165 105.511 435.433 105.152L434.16 104.422C433.45 103.93 431.958 102.787 431.42 102.068C431.373 102.006 431.085 101.536 430.975 101.359C429.698 99.289 430.269 96.7107 431.511 94.9008C434.158 91.046 438.326 92.1695 441.455 94.8024C442.067 95.3177 442.085 95.4889 442.886 95.9004C442.791 94.4219 442.129 92.3261 441.422 91.2481L440.055 89.7915C436.646 86.6578 433.899 88.8501 431.748 87.7812C431.487 87.652 428.288 84.8169 427.929 84.2324C426.704 82.2258 414.447 71.2461 411.733 68.0123C410.607 66.6703 409.47 65.8036 408.999 64.895C408.324 63.5986 408.657 60.7053 408.635 59.1284C408.595 56.2515 408.747 53.7423 406.685 51.7412L403.884 49.4816C403.176 49.1283 402.356 48.8916 401.581 48.7514C400.837 48.6166 399.71 48.6549 398.968 48.7641C398.358 48.8534 397.128 49.0882 396.627 49.4925V49.4979Z" fill="#8D98AF"/>
<path fill-rule="evenodd" clip-rule="evenodd" d="M325.752 60.7908L335.935 60.7944C335.819 63.8789 333.922 64.0446 330.943 64.0483C329.576 64.0501 327.585 64.1047 326.614 63.1142C326.576 63.0759 326.469 62.9594 326.435 62.9157C326.051 62.4423 325.767 61.7431 325.752 60.7908ZM324.367 55.0333L337.737 54.9623L338.186 56.7594C338.302 57.9157 338.26 57.1181 338.039 57.4477C336.933 57.9448 331.079 57.6935 329.441 57.6844C328.014 57.6753 326.52 57.7136 325.1 57.6262C324.076 57.5624 323.784 57.6589 323.914 56.794C323.996 56.2569 324.278 55.6014 324.367 55.0333ZM323.252 51.7485C323.4 48.7896 323.024 46.8121 321.584 44.5598C319.877 41.8922 317.74 40.268 316.574 38.6347L315.674 37.2764C315.227 36.5244 314.649 35.3463 314.278 34.3448C312.632 29.9092 312.96 24.1535 315.06 19.9018C316.015 17.9718 318.278 15.0875 319.976 13.9131C327.241 8.88391 335.629 8.82382 342.644 14.2991C343.712 15.1331 343.984 15.0529 344.871 16.4058C345.199 16.9047 345.519 17.2744 345.843 17.6895C350.064 23.1211 350.162 31.6008 346.173 37.6078L343.263 41.2986C342.74 41.8376 342.637 41.6646 342.169 42.2655C339.761 45.3646 338.628 47.4513 338.668 51.8085L323.252 51.7485ZM340.632 54.4087C341.163 53.7569 341.699 53.7787 341.796 52.495C342.032 49.3631 341.465 48.6658 344.112 45.1588C344.648 44.4487 345.088 44.1482 345.637 43.4873C347.154 41.661 348.71 40.2971 349.883 37.91C353.193 31.1784 353.187 23.2121 349.329 17.0431C348.921 16.3931 348.505 15.6902 348.034 15.1203C346.276 12.9954 345.392 12.0813 342.915 10.4189C333.172 3.88204 318.718 7.26517 313.429 16.2092C309.109 23.5162 308.719 31.5316 312.913 39.079C315.466 43.673 319.994 44.6526 320.217 51.3861C320.264 52.8246 320.108 53.0576 320.956 53.8989C321.733 54.6709 321.253 54.6928 320.97 55.9455C320.65 57.3658 320.664 58.7023 321.682 59.7493C323.648 61.7722 322.104 60.4485 323.049 63.2599C323.397 64.2959 324.42 65.4904 325.095 65.9711C327.335 67.5698 332.386 67.4715 334.811 66.8378C338.572 65.8564 338.662 63.4419 339.099 61.2296C339.372 59.8494 342.807 59.5562 340.636 54.4069L340.632 54.4087Z" fill="#697391"/>
<path fill-rule="evenodd" clip-rule="evenodd" d="M362.781 298.289C362.424 297.346 362.48 284.935 362.652 282.963C363.096 277.881 369.871 279.143 374.347 279.161C378.961 279.179 383.292 278.965 385.664 274.753C388.213 270.226 386.361 264.036 386.714 261.204L401.724 261.179C401.252 264.259 401.089 265.427 401.123 268.868C401.163 273.085 400.373 278.57 398.119 282.024L393.339 287.395C393.165 287.543 392.955 287.694 392.7 287.887C385.856 293.096 378.365 291.377 375.747 292C373.282 292.586 374.151 295.944 373.898 298.282C372.897 298.577 364.035 298.473 362.779 298.289H362.781ZM406.298 253.892C406.309 254.813 406.352 256.424 405.914 257.167C405.365 258.096 404.668 258.136 403.47 258.134L384.09 258.09C382.448 257.803 382.81 255.153 382.882 253.862L406.298 253.89V253.892ZM399.017 286.117C399.98 285.037 400.953 283.322 401.556 282.04C402.309 280.436 402.977 278.531 403.401 276.492C404.395 271.694 403.636 267.297 404.505 262.688C404.842 260.905 404.924 261.483 406.381 260.871C409.546 259.543 409.604 255.062 409.061 252.306C408.818 251.075 408.074 250.935 406.671 250.898C402.465 250.792 382.086 250.674 381.066 251.229C379.583 252.036 379.821 255.65 380.119 257.571C380.443 259.645 381.89 260.656 383.688 261.264C383.915 266.088 386.292 275.729 377.36 276.137C370.427 276.454 362.04 274.309 359.978 280.913C359.364 282.876 359.664 289.249 359.657 291.732C359.623 303.288 358.86 301.153 372.279 301.352C378.073 301.438 376.657 297.841 376.971 294.944C379.605 294.464 384.599 295.496 389.982 292.938C392.162 291.902 395.267 290.35 396.814 288.448C397.48 287.628 397.254 288.242 398.563 286.599C398.776 286.332 398.789 286.372 399.017 286.115V286.117Z" fill="#697391"/>
<path fill-rule="evenodd" clip-rule="evenodd" d="M87.2582 85.3538C89.8963 84.3269 91.678 88.4566 88.9258 89.713C86.2008 90.9566 84.3449 86.4882 87.2582 85.3538ZM70.2598 56.6773C70.8899 56.9086 71.415 57.4239 72.027 57.7516C76.4106 60.0969 80.7109 61.6373 82.7388 67.1508C84.5223 72.0016 80.4067 81.5756 81.3573 87.8429C82.4545 95.0863 91.0805 96.1587 94.0482 90.5815C95.4442 87.9595 94.968 83.6859 94.3741 80.7544C93.8961 78.4019 92.6974 73.735 92.6974 71.0402C92.6974 64.8948 96.8764 61.5008 102.115 59.303C104.479 58.3106 104.43 58.0539 106.23 56.6974C95.7085 57.0761 82.1775 56.366 71.0691 56.5371L70.2634 56.6792L70.2598 56.6773Z" fill="#55627D"/>
<path fill-rule="evenodd" clip-rule="evenodd" d="M67.2158 146.944L67.2231 147.146C70.0242 146.558 71.5596 147.39 75.4399 144.204C77.236 142.727 77.6163 142.07 78.7588 140.904L80.3449 139.103C80.3703 139.072 80.4047 139.031 80.43 139L81.4331 137.734C83.2347 135.314 86.5881 129.713 87.535 126.256C88.0293 124.457 88.0076 122.585 87.5912 120.924C91.6163 121.461 98.7122 127.891 100.112 128.06C99.2482 127.173 92.1993 122.607 90.7363 121.756C89.056 120.78 88.4223 121.084 86.9411 120.483C86.4903 121.001 87.8157 120.92 86.3056 120.92C85.9018 120.427 83.9644 119.305 83.3035 118.872L78.5868 115.862C78.0544 115.527 77.6488 115.296 77.0423 114.964C75.735 114.249 75.0886 114.101 73.2834 114.12C73.1204 115.083 72.9937 114.314 73.7052 114.884C74.0692 115.176 74.1344 115.148 74.3661 115.544C75.3059 117.148 74.4458 120.385 73.8754 121.995C72.2766 126.498 70.3863 128.482 67.8441 131.643C66.0751 133.845 60.2285 137.721 57.3695 135.861C57.0255 136.711 57.1739 137.142 57.5886 137.727C58.2096 138.603 60.9818 140.861 61.9505 141.616L66.6183 145.418C68.0125 146.492 67.9546 146.784 67.9655 146.769C67.9908 146.735 68.0415 146.895 68.0777 146.971L67.214 146.944H67.2158Z" fill="#697391"/>
<path fill-rule="evenodd" clip-rule="evenodd" d="M38.5749 170.612C38.8737 171.62 38.6618 176.819 38.6709 178.363C38.6854 180.597 39.272 180.737 37.2803 180.719C35.9621 180.708 34.6404 180.726 33.3204 180.726C28.696 180.723 22.241 181.07 17.9262 180.603C15.9182 180.386 13.4665 179.537 11.817 178.248L9.55552 176.001C6.77435 172.225 7.27771 164.317 7.58371 159.428L18.5617 159.382C18.9003 162.802 18.1507 167.227 18.855 170.185C22.8494 171.318 35.5873 169.985 38.5749 170.612ZM3.07698 151.751L22.996 151.822L22.9471 156.485L3.03896 156.429L3.07698 151.749V151.751ZM21.4823 159.455C24.3033 159.306 25.9619 160.076 25.9872 156.831C26.0597 147.827 26.7477 148.752 19.9813 148.75L5.88894 148.752C3.29245 148.752 0.590953 148.191 0.136478 150.107C-0.0789902 151.014 0.0187853 155.801 0.0568091 157.024C0.145531 159.849 2.12639 159.32 4.57078 159.457C4.72106 163.441 4.33358 167.751 4.6595 171.686C5.03612 176.209 8.33875 180.65 12.5503 182.274C18.3933 184.526 22.7715 183.667 29.1867 183.696C43.5904 183.762 41.7146 184.747 41.7128 177.795C41.7128 175.781 41.7019 173.762 41.7164 171.748C41.7327 169.515 42.0604 167.642 39.5327 167.565L27.4937 167.576C25.9764 167.576 22.8711 167.746 21.5149 167.523L21.4787 159.453L21.4823 159.455Z" fill="#697391"/>
<path fill-rule="evenodd" clip-rule="evenodd" d="M210.513 322.499C208.52 318.909 208.1 311.425 207.714 306.847C207.528 304.64 206.791 290.272 207.287 289.085C208.071 288.81 213.575 289.085 214.406 289.398C214.625 290.174 215.018 305.96 215.15 308.395C215.308 311.306 215.864 319.105 214.109 321.625C213.597 322.363 211.544 322.752 210.513 322.497V322.499ZM212.431 359H221.147C221.408 356.899 222.25 353.74 222.178 351.815C222.578 350.495 219.853 337.323 219.288 335.66C217.81 331.305 215.245 334.977 213.943 331.571C213.262 329.79 211.361 326.64 211.142 324.892C214.933 324.823 216.192 323.666 216.938 320.105C218.022 314.921 217.086 305.247 216.878 299.671L216.472 289.28C217.005 288.892 217.22 288.863 217.486 288.413C215.545 289.143 214.87 288.968 212.527 288.848C210.714 288.755 208.858 288.726 207.055 288.577C204.142 288.338 199.351 288.724 197.788 286.891C198.105 288.424 201.455 288.608 202.802 288.657C204.683 288.724 204.323 288.491 204.768 289.019C205.134 289.402 205.214 299.5 205.27 300.993C205.585 309.424 205.744 314.939 207.986 323.171C208.389 324.651 209.628 328.987 210.381 330.212C210.783 330.866 211.229 331.469 211.417 332.153C210.582 331.722 210.128 331.421 209.032 331.001C206.211 329.917 204.04 328.799 201.513 327.783C197.924 326.341 193.488 323.297 191.648 323.606C191.038 325.183 191.791 325.504 192.961 326.214C197.569 329.009 213.418 335.345 213.836 336.139C214.064 336.573 212.48 357.822 212.433 359.002L212.431 359Z" fill="#27406B"/>
<path fill-rule="evenodd" clip-rule="evenodd" d="M38.5748 170.611C35.5873 169.985 22.8493 171.318 18.855 170.185C18.1506 167.227 18.9002 162.802 18.5617 159.382L7.58364 159.428C7.27764 164.317 6.77427 172.225 9.55544 176.001L11.817 178.248C13.4665 179.537 15.9181 180.386 17.9261 180.602C22.2427 181.07 28.6959 180.723 33.3203 180.726C34.6385 180.728 35.9621 180.708 37.2802 180.719C39.2719 180.737 38.6853 180.597 38.6708 178.363C38.6618 176.817 38.8736 171.618 38.5748 170.611Z" fill="#8D98AF"/>
<path fill-rule="evenodd" clip-rule="evenodd" d="M217.953 273.409C218.279 274.24 218.284 273.706 218.706 274.585C219.345 275.918 219.018 285.631 218.599 286.854C218.645 286.845 218.706 286.756 218.726 286.794C219.177 287.681 218.538 286.705 219.385 286.543C219.385 286.543 226.269 286.559 227.98 286.341L235.013 285.798C235.728 285.789 236.775 285.662 237.398 285.603C240.021 285.359 241.439 284.513 242.614 285.343L242.83 285.507C243.025 285.667 243.079 285.7 243.215 285.875C244.427 287.417 242.252 290.137 246.156 295.731C246.741 296.569 246.942 296.944 247.517 297.401C247.789 297.617 247.555 297.366 247.836 297.648C248.544 298.355 247.693 297.969 249.871 299.387C256.031 303.393 269.568 305.693 276.734 303.71C277.335 301.153 275.749 301.592 273.698 301.773C268.425 302.235 262.117 301.618 257.232 299.882C245.116 295.578 247.521 291.525 245.488 286.8C244.7 286.734 244.215 286.472 243.757 286.059C243.355 285.698 243.007 285.277 242.755 284.82C241.886 283.242 242.149 282.554 242.831 281.124C242.978 280.461 243.096 280.318 242.563 280.006C238.596 282.455 235.089 276.086 240.376 272.883L234.937 272.848C233.079 272.95 231.158 273.147 229.291 273.242C225.665 273.427 221.591 273.001 217.951 273.407L217.953 273.409Z" fill="#27406B"/>
<path fill-rule="evenodd" clip-rule="evenodd" d="M57.6358 134.096C57.4783 133.794 56.8735 132.397 56.0605 132.29C56.2688 131.802 57.7952 131.354 59.499 130.059L62.5862 127.292C65.6099 124.544 68.8601 118.746 69.0303 114.305C69.3671 114.464 69.8378 114.812 70.2145 115.034C71.1234 115.574 71.0582 115.25 71.7952 115.44C70.9333 120.667 70.6037 122.501 67.4333 127.461C67.1581 127.893 66.8394 128.299 66.5424 128.639C65.217 130.159 65.2695 130.245 63.3539 131.651C61.956 132.678 59.6819 133.812 57.6358 134.094V134.096ZM51.6462 105.993C54.4762 105.971 55.6713 105.287 59.2328 107.383C60.2214 107.963 61.1594 108.708 62.1045 109.378C63.1022 110.086 63.9079 110.706 64.911 111.472C64.4656 114.965 59.6945 122.179 56.7776 124.477C56.2 124.932 55.6169 125.418 54.9705 125.87C53.8787 126.633 52.365 127.454 50.969 127.914C50.3515 128.118 50.4765 128.249 49.5259 127.461L47.4382 125.782C45.2274 123.983 43.3606 122.086 42.9188 118.033C45.7253 118.488 46.8316 118.034 48.9392 116.035C49.3412 115.653 49.3665 115.729 49.7106 115.287C49.8953 115.048 50.1379 114.704 50.3588 114.415C51.6009 112.776 52.5841 110.31 52.5406 108.065C52.5225 107.091 52.4338 106.838 51.8797 106.241C51.8598 106.219 51.8164 106.175 51.7983 106.155L51.6444 105.993H51.6462ZM32.2975 104.402C30.9721 102.636 30.3402 103.102 28.2072 101.654C27.9066 101.45 27.6242 101.232 27.2186 100.953C25.6723 99.8843 25.7013 99.2579 24.7706 98.3402C23.4923 97.082 19.7442 95.9112 19.2861 93.7262C18.9149 91.9545 19.947 91.9071 20.1643 91.7924C21.4444 91.1223 23.4995 92.9778 24.2545 93.7553C26.7116 96.2899 25.5872 94.7495 28.687 96.1661C31.986 97.6738 31.9118 100.319 34.1987 100.877C40.6844 102.457 40.2245 106.008 41.8288 106.745C42.8138 107.199 46.4731 107.439 47.1123 108.189C48.454 109.762 48.1733 109.178 48.8125 109.873C50.252 111.441 47.7514 114.873 45.1079 115.198C42.9387 115.463 43.8839 114.617 43.5091 113.579C43.3497 113.135 41.0194 111.412 39.9348 110.296C38.3324 108.646 34.6097 107.488 32.2939 104.398L32.2975 104.402ZM67.216 146.942L68.0797 146.97C68.0435 146.893 67.9928 146.733 67.9674 146.767C67.9584 146.782 68.0145 146.491 66.6203 145.416L61.9524 141.614C60.9837 140.859 58.2116 138.603 57.5905 137.725C57.1759 137.139 57.0274 136.709 57.3715 135.859C60.2305 137.72 66.0771 133.843 67.8461 131.642C70.3883 128.481 72.2768 126.496 73.8774 121.993C74.4478 120.385 75.3096 117.146 74.3681 115.542C74.1363 115.147 74.0693 115.174 73.7072 114.883C72.9956 114.313 73.1224 115.081 73.2853 114.118C75.0905 114.1 75.7388 114.247 77.0442 114.963C77.6508 115.294 78.0564 115.527 78.5887 115.86L83.3055 118.87C83.9664 119.304 85.9038 120.423 86.3076 120.919C87.8177 120.919 86.4923 120.999 86.9431 120.482C86.2804 120.112 85.7245 119.697 85.118 119.276C83.4304 118.105 77.1475 114.136 75.6627 113.657C73.1133 112.832 72.476 114.189 71.0872 114.888C70.2489 114.267 69.5481 113.848 68.6211 113.186L66.2853 111.565C63.7685 109.786 59.0047 106.035 56.3412 105.516C54.1358 105.088 51.514 105.245 49.439 105.929C44.38 107.599 49.2977 107.472 43.471 106.525C41.8378 106.259 41.8813 106.146 41.1969 104.892C40.4925 103.602 38.3288 101.652 36.9038 101.053C36.0365 100.687 34.5898 100.549 33.9307 100.083C33.1901 99.5602 31.7072 97.3478 29.931 96.1679C28.0062 94.8897 27.1281 95.6107 25.6705 94.2196C25.2993 93.8645 25.0168 93.6734 24.6728 93.3383C19.8673 88.6533 17.8158 92.0692 18.8841 94.6147C19.2589 95.5088 20.1588 96.0496 20.9084 96.5667C21.7468 97.1439 22.5127 97.5281 23.3619 98.0689C25.4532 99.4054 24.5352 100.693 30.1591 103.335C31.2401 103.843 31.3668 104.476 32.1798 105.248C32.5347 105.585 32.8316 105.946 33.2137 106.285C36.0528 108.805 38.0282 109.209 38.9317 110.363C39.6922 111.334 42.6146 113.175 43.1759 113.95C42.1384 116.328 41.5554 117.262 42.9586 121.033C44.17 124.289 45.3722 124.633 46.8135 126.061C47.3042 126.547 47.4853 126.585 48.0647 127.071C48.4504 127.394 48.8143 127.763 49.2561 128.131L56.946 133.77C56.5422 135.97 56.0624 137.121 57.433 138.621C58.9884 140.323 66.6058 145.79 67.2142 146.944L67.216 146.942Z" fill="#26314A"/>
<path fill-rule="evenodd" clip-rule="evenodd" d="M422.78 162.851C428.491 162.811 434.211 162.785 439.923 162.809C441.339 162.815 442.835 163.241 443.213 161.777C443.666 160.029 442.275 159.958 440.861 159.983L415.306 160.001C412.055 159.996 401.146 159.557 398.887 160.469C398.606 163.395 399.962 162.756 402.341 162.796C407.741 162.889 415.029 162.565 419.84 162.875L419.754 200.559C415.682 200.459 402.528 200.284 399.149 200.681C398.952 201.158 398.731 201.914 398.955 202.529C399.252 203.345 398.972 202.698 399.267 203.033C400.424 203.795 418.273 203.279 421.321 203.316C424.263 203.35 441.969 203.525 443.472 203.103C443.552 202.586 443.863 201.497 443.237 200.896C442.17 200.171 425.277 200.309 422.88 200.577C422.425 199.026 422.742 184.583 422.753 181.762C422.771 177.086 422.557 166.748 422.782 162.849L422.78 162.851Z" fill="#276D8E"/>
<path fill-rule="evenodd" clip-rule="evenodd" d="M96.0128 229.685C97.0811 227.489 97.2133 223.201 94.9192 221.109C94.4973 220.725 94.309 220.51 93.9396 220.006C93.5449 219.465 92.3843 218.401 92.779 217.285L92.2503 217.2C92.2449 217.198 87.4484 213.412 84.3214 212.139C75.6303 208.603 73.2655 206.096 63.9407 204.985C62.0521 204.761 59.4394 204.541 57.5617 204.792C55.7746 205.031 55.2749 205.674 54.422 206.743L53.5801 207.926C55.2604 207.928 63.4156 211.367 65.2498 212.172C71.1453 214.758 80.9373 219.898 86.3095 223.126L96.0165 229.687L96.0128 229.685Z" fill="#878A9E"/>
<path fill-rule="evenodd" clip-rule="evenodd" d="M70.2595 56.6774L71.0652 56.5354C82.1736 56.3642 95.7047 57.0743 106.226 56.6956C104.427 58.0521 104.475 58.3107 102.111 59.3012C96.8725 61.499 92.6935 64.893 92.6935 71.0384C92.6935 73.7333 93.894 78.4001 94.3702 80.7526C94.9659 83.686 95.4403 87.9577 94.0443 90.5797C91.0766 96.157 82.4507 95.0827 81.3534 87.8412C80.4046 81.5738 84.5184 71.9998 82.7349 67.1491C80.7088 61.6355 76.4067 60.0969 72.0231 57.7499C71.4111 57.4221 70.886 56.9086 70.2559 56.6756L70.2595 56.6774ZM71.2771 53.4964C70.714 52.2418 71.1793 49.7436 71.1377 48.1285L104.912 48.378L104.914 53.7058L71.2753 53.4945L71.2771 53.4964ZM106.346 45.2953L69.2184 45.1387C68.6172 45.6139 68.2949 45.6631 68.1302 46.3404L68.0505 53.2797C68.0396 55.5066 68.0414 55.7524 69.4175 56.6665C70.79 57.5769 69.4791 57.1089 72.2874 58.531C76.8304 60.8326 80.5187 62.8409 82.2189 67.3785C84.2993 72.9266 77.9512 85.1809 82.0831 91.5266C83.1079 93.0998 85.4346 94.846 88.3751 94.7568C91.0513 94.6766 93.4142 92.945 94.3231 91.3754C95.5942 89.1813 95.7445 86.186 95.3317 83.3728C94.9369 80.6743 94.4607 78.0323 93.8795 75.3738C92.6302 69.6527 93.3019 65.5959 98.1219 62.1508C100.052 60.7706 102.006 60.0988 104.258 58.8861C105.294 58.3289 107.586 56.6701 107.876 55.4975C108.019 54.9166 107.948 53.7294 107.943 53.0867C107.93 51.5135 107.939 49.9366 107.943 48.3616C107.947 46.5753 107.986 45.6503 106.342 45.2934L106.346 45.2953Z" fill="#697391"/>
<path fill-rule="evenodd" clip-rule="evenodd" d="M205.539 101.237L205.632 106.106L205.883 105.245C206.229 106.478 206.492 106.707 207.029 107.587C209.391 111.443 215.107 111.236 218.991 110.232C222.751 109.262 227.16 106.867 230.333 104.589L236.815 99.0122L241.005 94.1506C242.526 92.2678 244.008 89.8752 245.225 87.8049L248.7 81.3391L248.617 84.8442C248.624 85.9495 248.745 85.7201 248.79 85.8475C248.803 85.8821 248.828 85.9422 248.857 85.9841C248.832 84.3581 248.821 82.2695 248.953 80.6654C249.08 79.1486 249.493 77.9195 249.663 76.3919C251.22 76.0131 252.272 76.0149 253.647 75.3084C258.336 72.8976 263.232 64.6947 262.224 59.234C261.697 56.3753 260.105 54.3341 258.229 53.2252L258.063 53.2034C258.691 53.9408 259.287 54.2285 259.915 54.9769C261.843 57.2784 262.566 60.1863 261.824 63.2854C260.547 68.6132 255.906 75.8693 249.949 76.0277C247.834 76.0841 246.942 73.6952 246.065 77.925C245.747 79.4654 244.954 81.6195 244.161 82.9924C243.943 83.3693 243.699 83.6971 243.514 84.023C242.033 86.6177 242.478 85.8512 240.679 88.16C240.333 88.6043 240.244 88.6534 239.884 89.0595L233.68 95.0919C233.452 95.2977 233.083 95.5981 232.743 95.8531C231.52 96.7635 230.018 97.7631 228.498 98.5625C225.411 100.187 221.451 101.714 218.067 102.049C215.44 102.31 211.04 102.403 208.458 101.804C207.401 101.558 206.709 101.261 205.536 101.234L205.539 101.237Z" fill="#276D8E"/>
<path fill-rule="evenodd" clip-rule="evenodd" d="M106.63 162.083C107.275 161.795 107.012 162.33 107.838 161.294C108.265 160.759 108.613 160.42 108.999 159.81C110.217 157.88 114.355 151.387 114.827 149.83L114.05 148.954C113.862 148.81 113.685 148.728 113.482 148.577C111.646 147.217 109.924 145.587 107.805 144.258C107.543 144.093 107.463 144.062 107.212 143.903C106.911 143.712 106.933 143.768 106.933 143.672C106.576 143.078 103.82 141.567 103.065 141.09C102.154 140.513 99.8984 139.118 98.8953 138.85C98.0642 139.733 97.4105 141.094 96.737 142.195C95.9692 143.45 95.3409 144.537 94.5497 145.664C93.7294 146.831 93.0957 147.685 92.3171 149.102C91.8934 149.872 91.6798 150.52 92.0184 151.425L93.3112 152.993C93.4397 153.108 93.8019 153.346 94.0789 153.546C94.2853 153.696 94.5098 153.854 94.834 154.115C96.8094 155.706 105.522 161.536 106.629 162.084L106.63 162.083Z" fill="#697391"/>
<path fill-rule="evenodd" clip-rule="evenodd" d="M64.9128 111.474C63.9079 110.707 63.1021 110.087 62.1063 109.38C61.1611 108.71 60.2232 107.965 59.2346 107.384C55.673 105.287 54.478 105.973 51.6479 105.995L51.8018 106.157C51.8199 106.175 51.8634 106.221 51.8833 106.243C52.4392 106.84 52.5261 107.093 52.5442 108.067C52.5858 110.312 51.6045 112.778 50.3624 114.417C50.1433 114.706 49.8988 115.05 49.7141 115.289C49.3701 115.733 49.3448 115.657 48.9428 116.037C46.8352 118.036 45.7289 118.49 42.9224 118.035C43.3624 122.086 45.2291 123.985 47.4418 125.784L49.5295 127.463C50.48 128.251 50.3551 128.118 50.9725 127.916C52.3686 127.457 53.8823 126.636 54.9741 125.871C55.6205 125.42 56.2017 124.934 56.7811 124.479C59.6981 122.181 64.4692 114.968 64.9146 111.474H64.9128Z" fill="#697391"/>
<path fill-rule="evenodd" clip-rule="evenodd" d="M210.513 322.499C211.543 322.754 213.597 322.364 214.109 321.627C215.864 319.107 215.308 311.308 215.15 308.397C215.018 305.962 214.625 290.176 214.406 289.4C213.575 289.087 208.071 288.812 207.287 289.087C206.79 290.272 207.527 304.642 207.714 306.849C208.099 311.425 208.52 318.909 210.513 322.501V322.499Z" fill="#33667B"/>
<path fill-rule="evenodd" clip-rule="evenodd" d="M145.743 155.715C145.61 156.669 145.763 156.116 145.835 156.329C147.046 150.783 149.512 143.434 151.917 138.725C152.625 137.337 153.309 136.152 154.026 134.985C159.915 125.407 168.747 122.472 178.624 118.16C181.594 116.864 183.966 115.952 186.993 114.65L195.586 111.152L192.843 116.603C191.831 118.488 191.259 120.507 190.627 122.508C189.926 124.735 189.551 126.895 189.408 129.227C189.189 132.804 191.092 132.813 193.955 132.082C197.757 131.112 202.871 126.312 205.869 128.798L209.347 132.29C210.077 133.078 210.477 133.679 211.151 134.45C211.815 135.209 212.721 135.478 213.403 136.418C211.243 142.061 210.041 143.293 209.293 150.138L207.971 162.296C207.682 164.479 207.674 164.472 208.096 166.453C210.454 167.494 215.163 168.337 217.95 167.527C218.066 166.615 218.051 166.679 217.966 165.75C216.125 165.142 212.13 165.588 210.318 164.552C209.947 163.459 211.031 158.507 211.133 156.919C211.506 151.087 211.71 147.063 213.867 141.666C214.459 140.183 216.407 136.272 216.112 134.907C215.54 134.564 214.477 134.342 213.363 132.976C211.879 131.156 211.131 130.617 209.996 129.18C209.481 128.528 209.282 128.716 208.728 128.007C208.113 127.221 207.14 126.079 206.123 125.682C201.674 123.943 192.966 131.094 191.925 129.724C191.357 128.173 193.057 121.369 193.629 119.44C194.1 117.856 194.672 116.318 195.19 114.761L196.472 110.806C196.687 110.232 196.548 110.824 196.756 110.21C194.364 111.518 190.962 112.689 188.217 113.812L171.327 121.015C168.714 122.219 165.567 123.636 163.377 125.105C158.131 128.623 155.131 132.113 151.988 137.851C150.271 140.983 145.706 152.889 145.744 155.717L145.743 155.715Z" fill="#27406B"/>
<path fill-rule="evenodd" clip-rule="evenodd" d="M197.163 285.496C197.163 284.088 197 275.334 197.219 274.389C197.445 273.409 197.721 273.213 198.266 272.623C198.678 272.176 198.157 272.552 198.707 272.166C197.838 272.033 197.355 272.176 196.589 272.082L181.383 270.057L181.343 283.04C183.875 283.284 186.239 283.976 188.981 284.365C190.125 284.527 191.517 284.768 192.883 284.939C194.342 285.123 195.859 285.148 197.165 285.496H197.163Z" fill="#27406B"/>
<path fill-rule="evenodd" clip-rule="evenodd" d="M168.437 267.384C165.484 297.446 163.005 328.087 163.074 358.809C163.485 358.527 163.585 359.104 163.494 357.115C163.402 355.1 163.719 353.082 163.722 351.442L164.276 329.151C164.763 324.273 164.568 319.422 165.068 314.573L166.149 300.423C166.782 299.573 166.768 300.026 168.919 299.456C171.318 298.819 172.091 298.125 173.884 296.869C175.189 295.955 174.827 296.09 175.789 294.973C175.814 294.944 175.854 294.906 175.879 294.877L176.631 293.928C177.424 292.794 178.123 291.749 178.506 290.143C178.744 289.15 179.406 284.203 178.517 283.315C177.119 283.577 177.501 285.126 176.71 287.989C175.799 291.281 174.009 294.076 171.124 295.775C170.259 296.285 167.411 297.712 166.351 297.785C166.346 296.246 166.507 294.799 166.67 293.26C166.835 291.703 166.773 289.759 166.978 288.28L167.852 278.688C168.195 278.59 171.548 280.081 172.261 280.361C173.045 280.671 173.779 280.873 174.639 281.192C175.39 281.468 176.296 282.055 176.937 281.791C176.996 278.1 176.688 272.876 177.246 269.36C175.515 269.016 174.244 268.73 172.624 268.365C171.563 268.127 169.52 267.699 168.979 266.794C168.904 266.854 168.801 266.903 168.742 266.956C168.693 267 168.611 267.067 168.564 267.111C168.53 267.142 168.497 267.286 168.47 267.253C168.45 267.227 168.443 267.34 168.437 267.386V267.384Z" fill="#27406B"/>
<path fill-rule="evenodd" clip-rule="evenodd" d="M46.3734 300.513L57.0925 300.545C57.3695 299.628 57.3822 284.096 57.1179 282.94L46.3535 282.93C46.0819 283.963 46.1127 299.828 46.3752 300.513H46.3734Z" fill="#AEB0BC"/>
<path fill-rule="evenodd" clip-rule="evenodd" d="M215.011 285.496C213.789 285.816 205.166 285.419 203.14 285.285C202.01 285.21 201.152 285.104 200.91 284.156C200.667 283.205 200.661 276.279 201.06 275.073C202.023 274.822 213.867 275.454 215.015 275.696C215.402 276.905 215.413 284.376 215.013 285.496H215.011ZM197.163 285.496C197.216 285.531 197.629 286.57 197.788 286.889C199.351 288.722 204.142 288.336 207.055 288.575C208.858 288.722 210.716 288.753 212.527 288.846C214.87 288.966 215.545 289.141 217.486 288.411C217.91 287.475 217.613 288.118 218.06 287.625C218.234 287.432 218.384 287.242 218.601 286.856C219.02 285.633 219.346 275.92 218.708 274.587C218.286 273.708 218.281 274.239 217.955 273.411C215.31 272.65 211.33 272.919 208.445 272.746C205.677 272.581 201.301 271.98 198.708 272.167C198.157 272.552 198.679 272.178 198.266 272.624C197.721 273.213 197.446 273.409 197.219 274.391C197 275.337 197.163 284.09 197.163 285.498V285.496Z" fill="#8D98AF"/>
<path fill-rule="evenodd" clip-rule="evenodd" d="M6.66042 201.981C6.85054 204.073 7.94237 206.178 9.64257 207.289C15.7282 211.26 22.9509 204.874 19.0725 196.874C18.0893 194.845 17.1803 193.27 16.0414 191.593C14.7939 189.756 13.253 187.944 11.4985 190.615C10.4121 192.269 9.7657 192.52 8.34614 195.592C7.35933 197.727 6.41055 199.253 6.65861 201.979L6.66042 201.981Z" fill="#0179E5"/>
<path fill-rule="evenodd" clip-rule="evenodd" d="M71.2774 53.4964L104.916 53.7076L104.914 48.3798L71.1398 48.1304C71.1815 49.7455 70.7161 52.2437 71.2792 53.4982L71.2774 53.4964Z" fill="#AEB0BC"/>
<path fill-rule="evenodd" clip-rule="evenodd" d="M75.3043 157.8C78.0257 158.206 78.1416 158.479 80.3234 159.277L81.475 158.794C81.6397 158.567 81.6452 158.548 81.7973 158.366C88.5202 157.813 89.6338 168.079 84.124 171.455C83.5246 171.822 82.2807 172.494 81.4207 172.469C80.4845 172.441 79.7241 171.411 79.5847 170.67C80.8141 170.207 83.5301 170.249 85.0673 167.09C86.2587 164.641 85.0945 160.837 82.7877 160.843C83.215 161.926 85.7898 164.878 83.0702 167.928C80.5642 170.739 77.4119 169.83 75.3894 169.643L75.1793 172.054C75.8909 172.349 79.4561 172.944 80.6113 173.264L85.1452 174.592C85.7029 174.932 85.5236 174.51 85.5526 175.149L89.3622 176.74C88.8262 175.156 88.1563 173.315 89.4419 171.87C89.4944 171.811 89.6754 171.413 90.6695 170.854C91.1022 170.61 91.9551 170.105 92.491 169.87C95.6506 168.488 99.0347 168.337 102.573 168.596C102.301 168.184 102.587 168.514 102.25 168.215L101.03 167.501C100.463 167.181 100.083 166.937 99.5109 166.586C98.9261 166.227 98.5277 166.047 97.9483 165.692C97.3888 165.349 96.9742 164.934 96.4455 164.564C94.4954 163.201 92.3226 161.924 90.4088 160.431C90.0104 160.12 89.4998 159.736 89.0182 159.375C84.2743 155.821 84.5694 156.276 76.713 156.269C75.2246 156.267 75.632 156.309 74.5728 155.925C75.1087 156.565 75.0761 156.684 75.3024 157.802L75.3043 157.8Z" fill="#697391"/>
<path fill-rule="evenodd" clip-rule="evenodd" d="M86.6444 195.67C87.2401 195.532 88.4804 194.794 88.7846 194.465C88.9476 194.288 89.8547 192.809 90.014 192.32C90.7582 190.029 89.5396 188.505 88.5891 187.402C86.3203 187.325 78.2683 183.978 74.7194 182.889C71.7898 181.992 70.7559 180.511 68.6736 183.496C66.8268 186.142 67.6633 188.046 68.9362 190.309C71.2937 190.193 71.9745 190.217 74.2034 190.881C76.6423 191.61 85.1669 194.807 86.6462 195.67H86.6444Z" fill="#FFD0BF"/>
<path fill-rule="evenodd" clip-rule="evenodd" d="M122.939 146.341L123.071 150.019C123.528 148.827 123.261 147.758 123.171 146.387C123.997 148.118 123.232 153.146 122.657 155.136C120.676 161.981 115.856 168.656 108.476 170.804C108.754 171.493 109.028 171.644 109.558 172.199L111.423 174.878C111.793 175.54 111.726 175.704 112.218 176.296C112.955 176.209 113.612 175.526 114.261 175.107C120.504 171.076 124.963 166.786 126.883 158.905C127.127 157.9 127.871 154.18 127.803 153.417C127.6 151.185 126.119 148.526 124.592 147.042C124.292 146.749 124.134 146.585 123.834 146.283C123.694 146.143 123.602 146.059 123.482 145.926C123.31 145.731 123.298 145.719 123.265 145.626C123.202 146.891 123.229 145.99 122.939 146.34V146.341Z" fill="#697391"/>
<path fill-rule="evenodd" clip-rule="evenodd" d="M313.69 134.134L308.617 129.02C307.744 128.239 306.826 127.481 305.873 126.667C301.406 122.851 295.223 120.3 289.414 118.089C284.616 116.263 279.557 114.531 274.536 112.834C270.933 111.614 262.101 108.958 259.501 107.92C258.738 108.42 259.439 107.728 259.184 108.451L258.617 111.909C258.376 112.929 258.059 114.44 257.712 115.525C253.793 127.778 249.745 131.241 248.733 134.031C246.806 133.876 242.506 131.558 240.996 130.684C237.179 128.475 233.297 125.973 228.73 129.042C227.066 130.16 225.71 131.554 224.971 132.062C224.741 132.221 224.821 132.128 224.617 132.281C224.026 132.727 224.419 132.661 223.579 133.317C222.248 134.358 220.251 135.529 220.332 137.432C223.134 136.857 224.296 135.629 226.179 134.233C226.217 134.204 226.501 134.005 226.509 134C228.424 132.528 230.952 130.007 233.409 130.127C237.166 130.311 241.582 135.09 247.547 136.401C250.063 136.955 250.141 136.261 251.979 133.71C256.289 127.721 260.748 116.374 259.986 108.635C262.762 108.868 287.178 117.554 289.706 118.55C294.033 120.258 299.699 122.567 303.224 124.983C307.298 127.774 309.276 130.205 312.279 133.266L313.223 134.205C313.764 134.391 313.281 134.479 313.688 134.136L313.69 134.134Z" fill="#27406B"/>
<path fill-rule="evenodd" clip-rule="evenodd" d="M20.168 91.7924C19.9489 91.9071 18.9187 91.9545 19.2899 93.7262C19.748 95.9112 23.496 97.082 24.7743 98.3402C25.7068 99.2579 25.6761 99.8843 27.2224 100.953C27.6261 101.232 27.9104 101.45 28.211 101.654C30.3421 103.1 30.9758 102.636 32.3012 104.402C34.6189 107.49 38.3416 108.648 39.9422 110.3C41.0268 111.416 43.3571 113.138 43.5165 113.582C43.8895 114.62 42.9443 115.467 45.1153 115.201C47.7588 114.877 50.2575 111.445 48.8199 109.877C48.1807 109.182 48.4614 109.764 47.1197 108.193C46.4805 107.443 42.8212 107.202 41.8362 106.749C40.2319 106.011 40.6918 102.461 34.2061 100.88C31.9174 100.323 31.9934 97.6756 28.6944 96.1697C25.5946 94.7549 26.719 96.2936 24.2619 93.7589C23.5087 92.9814 21.4518 91.126 20.1717 91.7961L20.168 91.7924Z" fill="#697391"/>
<path fill-rule="evenodd" clip-rule="evenodd" d="M394.771 96.7052L394.78 105.402C397.242 105.687 400.301 101.895 401.488 100.409C401.975 99.8006 402.799 99.6076 405.035 96.7981C407.02 94.3035 406.47 95.3614 407.418 94.4783C408.085 93.8574 408.945 92.6957 409.607 91.9491C410.006 91.5012 410.257 91.1789 410.659 90.7401C411.519 89.7987 411.434 90.1374 412.025 89.6658C412.709 89.1195 413.435 87.9178 414.254 87.1002C413.531 86.3883 412.765 86.0059 412.057 85.263C410.882 84.0303 412.408 85.0263 410.044 83.291C409.07 84.0339 409.629 83.3074 408.749 84.48L406.526 86.7743C405.812 87.4662 406.068 86.9364 404.615 88.4422L399.307 93.8738C396.927 96.301 397.78 95.6546 394.769 96.7052H394.771Z" fill="#8D98AF"/>
<path fill-rule="evenodd" clip-rule="evenodd" d="M71.824 201.167L72.3871 201.562C75.1954 202.347 78.4564 203.662 81.5056 202.992C83.2529 202.607 84.1039 201.848 84.8825 200.925C85.8168 199.818 86.4559 198.673 86.2984 196.657C84.4352 197.027 83.6693 196.367 81.8659 195.721C80.4663 195.22 79.0956 194.605 77.7032 194.055C74.9927 192.986 73.5278 192.691 70.973 191.952C70.0369 191.68 69.6802 191.238 68.8328 191.131C67.3861 191.932 65.7293 194.721 66.8918 197.332C67.7609 199.284 70.1401 200.357 71.824 201.169V201.167Z" fill="#FFD0BF"/>
<path fill-rule="evenodd" clip-rule="evenodd" d="M215.011 285.496C215.411 284.376 215.4 276.905 215.013 275.696C213.866 275.454 202.021 274.824 201.058 275.073C200.66 276.279 200.665 283.205 200.908 284.156C201.15 285.106 202.008 285.21 203.138 285.285C205.164 285.42 213.787 285.817 215.009 285.496H215.011Z" fill="#27406B"/>
<path fill-rule="evenodd" clip-rule="evenodd" d="M363.11 316.296C363.475 319.752 367.399 322.568 371.288 320.616C374.294 319.109 375.451 315.121 373.374 311.061C372.646 309.637 371.536 307.783 370.707 306.736C368.565 304.03 367.376 305.07 365.485 308.539C363.991 311.277 362.778 313.167 363.11 316.296Z" fill="#0179E5"/>
<path fill-rule="evenodd" clip-rule="evenodd" d="M74.8894 169.113C81.0004 171.356 87.2652 166.087 81.8568 160.73C81.5762 160.451 81.4331 160.245 81.1253 159.956C80.794 159.643 80.6926 159.703 80.3214 159.278C78.1395 158.481 78.0237 158.206 75.3022 157.802C74.9021 157.997 72.9466 158.008 71.6175 159.439C69.7073 161.496 69.4429 165.203 71.2138 167.467C72.177 168.7 73.2797 168.723 74.8894 169.115V169.113Z" fill="#FFD0BF"/>
<path fill-rule="evenodd" clip-rule="evenodd" d="M163.237 201.801L164.023 202.052C164.691 201.593 163.599 196.282 163.44 195.062C161.535 180.572 159.735 164.874 162.122 150.262C162.355 148.827 163.626 144.377 163.038 143.312C160.861 141.427 159.096 155.761 159.063 156.048C157.915 166.249 158.703 177.438 160.335 187.573C160.717 189.945 161.195 192.296 161.656 194.792C162.02 196.766 163.123 200.095 163.239 201.801H163.237Z" fill="#27406B"/>
<path fill-rule="evenodd" clip-rule="evenodd" d="M282.746 176.906C283.115 176.564 282.945 177.07 283.166 176.201C283.359 175.44 282.666 170.571 282.546 169.816C282.132 167.205 281.884 164.925 281.793 162.112C281.465 152.001 284.6 141.509 290.254 133.463L291.978 131.048C292.145 130.815 292.174 130.691 292.346 130.467C292.927 129.708 293.356 129.961 293.917 128.816C294.339 127.954 293.642 125.895 291.281 128.462C288.232 131.78 289.447 130.526 286.736 134.3C284.161 137.887 281.663 144.464 280.575 148.734C278.809 155.659 278.793 167.267 281.277 174.239C281.813 175.741 282.298 175.876 282.744 176.904L282.746 176.906Z" fill="#27406B"/>
<path fill-rule="evenodd" clip-rule="evenodd" d="M331.544 29.7944C331.999 28.4543 332.674 26.5952 333.268 25.1713C333.931 23.5853 334.796 21.7754 333.947 20.4389C331.724 20.0602 331.776 21.2583 330.762 22.6895L328.713 25.916C328.356 26.5151 328.019 26.9776 327.688 27.5257C326.868 28.884 324.709 31.903 325.033 32.8717C325.598 34.5578 328.367 33.4816 330.847 33.2322C330.31 35.5374 327.458 40.9835 327.775 42.8972C328.416 43.3998 328.399 43.5382 329.5 43.4599C329.996 43.2651 335.157 34.7927 336.001 33.6C336.573 32.7897 338.535 30.0366 337.071 29.2391C335.789 29.057 332.895 29.5504 331.543 29.7962L331.544 29.7944Z" fill="#697391"/>
<path fill-rule="evenodd" clip-rule="evenodd" d="M279.001 359H281.299C281.333 356.953 280.5 348.639 280.314 345.588C280.051 341.279 279.563 336.766 279.409 332.432C279.246 327.893 278.648 323.595 278.492 319.136C278.371 315.687 277.806 312.532 277.725 309.141C277.698 307.991 277.542 307.097 276.207 307.297C275.025 307.712 275.65 311.119 275.773 313.085C275.914 315.343 276.095 317.457 276.307 319.704C276.707 323.952 276.894 328.395 277.239 332.729C277.583 337.026 277.763 341.458 278.098 345.771C278.44 350.191 278.768 354.471 279.003 358.998L279.001 359Z" fill="#27406B"/>
<path fill-rule="evenodd" clip-rule="evenodd" d="M122.939 146.342C123.23 145.992 123.201 146.893 123.265 145.628C123.297 145.721 123.308 145.733 123.482 145.928C123.6 146.061 123.692 146.145 123.833 146.285C124.134 146.587 124.291 146.751 124.592 147.044C126.118 148.528 127.599 151.187 127.802 153.419C127.871 154.182 127.127 157.902 126.882 158.907C124.963 166.786 120.503 171.078 114.26 175.109C113.612 175.528 112.955 176.209 112.218 176.298C111.725 175.706 111.792 175.542 111.423 174.88L109.558 172.201C109.027 171.646 108.754 171.495 108.475 170.806C115.855 168.658 120.675 161.983 122.656 155.138C123.232 153.148 123.996 148.119 123.17 146.389C123.261 147.76 123.527 148.829 123.071 150.021C122.432 157.487 117.988 166.322 110.775 169.534C110.275 169.756 109.69 169.985 109.14 170.145C108.77 170.253 108.571 170.271 108.238 170.351C108.091 170.386 107.908 170.429 107.769 170.48C107.289 170.655 107.626 170.459 107.365 170.701C107.925 171.027 109.63 173.042 110.107 173.698C110.983 174.909 111.443 175.998 112.107 177.547C113.927 177.5 117.554 175.912 119.001 175.167C122.598 173.317 126.109 168.867 127.668 164.954C130.632 157.512 128.664 148.361 122.683 144.413L111.868 136.666C111.771 136.886 111.483 136.503 112.278 137.093L117.65 140.981C119.915 142.561 122.629 144.058 122.941 146.342H122.939Z" fill="#26314A"/>
<path fill-rule="evenodd" clip-rule="evenodd" d="M382.882 253.862C382.812 255.153 382.448 257.803 384.09 258.09L403.469 258.134C404.666 258.136 405.365 258.094 405.914 257.167C406.352 256.424 406.31 254.813 406.298 253.892L382.882 253.864V253.862Z" fill="#8D98AF"/>
<path fill-rule="evenodd" clip-rule="evenodd" d="M3.03906 156.431L22.9472 156.485L22.9961 151.822L3.07709 151.751L3.03906 156.431Z" fill="#AEB0BC"/>
<path fill-rule="evenodd" clip-rule="evenodd" d="M69.2078 44.4487C69.8542 44.3249 69.2313 37.0506 69.2078 35.705C68.929 20.1077 68.4564 22.3127 74.2831 22.3273C75.8728 22.3309 77.0787 22.533 78.6395 22.5968C80.0808 22.6568 81.7448 22.6605 83.1118 22.8608C83.4722 23.6547 83.0376 30.095 83.11 32.1252C83.1535 33.347 83.6315 33.7003 84.8519 33.6256C86.7078 32.7534 85.1832 25.0203 85.8586 22.8389C86.4597 22.6095 96.3405 22.8954 96.9398 23.0993L96.9996 32.981C99.7228 33.9024 99.5508 31.6391 99.5526 29.4705C99.5526 28.1103 99.2846 24.0006 99.6757 23.1011C100.029 22.5913 102.48 22.8389 103.031 22.848C104.382 22.8681 105.14 22.7151 105.714 23.7239C106.679 25.4209 105.296 43.7514 106.305 44.8839C106.462 44.314 106.533 25.7705 106.353 24.2082C106.131 22.2726 104.764 22.4438 102.843 22.4256C101.262 22.411 99.0547 22.2053 97.5808 22.3437C93.8744 22.6914 76.5989 22.1506 71.9057 21.7901C70.0697 21.6499 69.005 21.9959 68.757 23.7949C68.5487 25.2989 68.8964 42.9338 69.2096 44.4524L69.2078 44.4487Z" fill="#276D8E"/>
<path fill-rule="evenodd" clip-rule="evenodd" d="M382.725 103.16V103.349C382.728 106.252 384.224 105.514 389.379 105.494L391.771 105.447V96.3556C390.927 96.1243 385.763 96.1444 384.485 96.1972C383.163 96.2518 382.924 96.2372 382.799 97.4809C382.634 99.1251 382.723 101.454 382.725 103.16Z" fill="#98B2CF"/>
<path fill-rule="evenodd" clip-rule="evenodd" d="M57.6358 134.096C59.6819 133.814 61.9561 132.678 63.3539 131.653C65.2677 130.247 65.217 130.163 66.5424 128.641C66.8394 128.3 67.1581 127.894 67.4333 127.463C70.6038 122.501 70.9333 120.667 71.7952 115.442C71.0582 115.252 71.1234 115.576 70.2145 115.035C69.8378 114.812 69.3671 114.464 69.0303 114.307C68.8601 118.748 65.6118 124.546 62.5862 127.293L59.499 130.061C57.7952 131.356 56.2688 131.804 56.0605 132.292C56.8735 132.397 57.4783 133.796 57.6358 134.098V134.096Z" fill="#697391"/>
<path fill-rule="evenodd" clip-rule="evenodd" d="M222.467 40.8962C220.787 41.0637 218.665 41.8212 217.739 42.8008C217.423 43.1376 215.873 46.3369 220.184 45.6449C224.607 44.933 227.441 44.8365 231.611 46.244C233.047 46.7284 235.386 48.2397 235.956 46.1657C236.453 44.3631 234.816 43.3853 233.26 42.6569C229.798 41.0364 226.253 40.5211 222.467 40.898V40.8962Z" fill="#030229"/>
<path fill-rule="evenodd" clip-rule="evenodd" d="M71.8239 201.167C70.1381 200.355 67.7607 199.283 66.8916 197.331C65.7292 194.72 67.3859 191.93 68.8327 191.129C69.68 191.236 70.0386 191.679 70.9729 191.95C73.5277 192.689 74.9925 192.984 77.7031 194.053C79.0955 194.603 80.4661 195.219 81.8658 195.719C83.671 196.366 84.4351 197.025 86.2983 196.655C86.3381 196.083 86.4322 196.016 86.6441 195.67C85.1648 194.807 76.642 191.608 74.2013 190.881C71.9723 190.217 71.2915 190.195 68.9341 190.31C67.6612 188.046 66.8246 186.143 68.6715 183.496C70.7538 180.512 71.7876 181.99 74.7173 182.89C78.268 183.978 86.3182 187.325 88.5869 187.402C88.3244 186.646 88.2501 186.446 88.7336 185.912C87.6128 185.759 81.6213 183.347 80.0605 182.711L73.3828 180.568C71.8039 180.253 72.0176 180.677 70.8153 180.859C69.2147 178.317 69.0789 175.014 71.8402 173.423C72.7437 172.902 72.8469 173.135 72.5318 172.92C71.1503 173.133 69.8484 174.716 69.5026 176.196C68.9576 178.523 69.9064 179.761 70.6759 181.2C70.0621 182.198 68.389 182.653 67.5489 185.206C66.7069 187.764 68.4705 189.836 68.8308 190.646C68.1663 191.704 65.1787 193.538 66.506 197.13C67.1252 198.809 69.7108 201.029 71.8221 201.167H71.8239Z" fill="#276D8E"/>
<path fill-rule="evenodd" clip-rule="evenodd" d="M135.407 205.353C133.667 205.24 125.285 201.167 123.538 200.253C119.882 198.339 115.801 196.196 112.622 194.108C112.127 194.259 112.348 193.784 111.925 195.442C111.447 197.311 109.573 201.182 108.383 202.844C107.311 204.344 106.824 204.738 107.405 205.741C109.009 206.109 110.63 202.962 111.38 201.486C112.66 198.962 112.538 198.157 113.063 195.79L113.36 194.916C114.072 195.138 114.927 195.892 115.884 196.404L118.157 197.691C120.742 199.226 132.879 205.435 135.315 205.561C135.751 207.715 138.503 207.221 142.787 210.379L145.291 212.764C146.046 213.674 145.558 212.819 146.608 214.263L149.249 218.403C149.731 219.41 150.209 220.459 151.372 219.554C152.262 218.332 148.522 213.379 147.652 212.282L145.896 210.264C144.906 209.368 142.706 207.828 141.4 207.209C140.642 206.85 139.541 206.426 138.688 206.14C137.542 205.756 136.542 205.71 135.403 205.353H135.407Z" fill="#276D8E"/>
<path fill-rule="evenodd" clip-rule="evenodd" d="M197.167 40.6449C195.106 40.8779 192.781 41.7774 191.449 43.3871C189.426 45.8325 190.417 47.8827 193.944 46.1038C197.887 44.1154 200.18 45.3245 203.167 45.8033C205.141 46.1183 206.568 44.9967 205.925 42.9865C205.555 41.8302 203.949 41.1401 202.396 40.7905C200.591 40.3827 198.867 40.4519 197.167 40.6449Z" fill="#030229"/>
<path fill-rule="evenodd" clip-rule="evenodd" d="M213.62 73.269C213.865 69.589 209.579 73.4474 205.847 70.4303C204.813 69.5945 205.302 68.3745 205.586 67.0071C205.852 65.7343 206.088 64.4998 206.332 63.2488C206.888 60.3992 208.737 54.4378 208.373 52.4421C208.248 51.7611 207.947 51.335 207.647 50.8671C207.111 50.035 207.335 49.8948 206.559 49.7163C205.753 50.7815 206.521 52.6661 206.312 54.0153C206.104 55.3719 205.67 56.5773 205.311 57.9156C204.598 60.5886 204.357 63.4437 203.645 66.0548C202.792 69.183 202.646 69.844 204.118 71.6011C206.269 74.1685 210.98 74.2977 213.62 73.2671V73.269Z" fill="#276D8E"/>
<path fill-rule="evenodd" clip-rule="evenodd" d="M201.112 78.9537C201.035 79.8969 201.252 80.1227 201.837 80.5197C203.153 81.4137 204.991 81.9654 206.534 82.2422C208.889 82.6664 211.701 83.0288 214.455 82.732C217.258 82.4279 218.877 82.3514 221.535 81.4155C228.953 78.8044 227.293 75.3576 224.861 77.1529C221.987 79.276 218.938 80.0462 215.389 80.4905C213.059 80.7819 209.728 80.6999 207.488 80.2647C205.471 79.8733 202.574 78.2527 201.111 78.9519L201.112 78.9537Z" fill="#276D8E"/>
<path fill-rule="evenodd" clip-rule="evenodd" d="M242.565 280.008C243.098 280.319 242.98 280.463 242.833 281.126C243.387 280.605 243.655 280.789 244.49 280.398C245.091 280.115 245.461 279.802 246.026 279.476C247.049 278.886 247.976 278.28 248.923 277.672L252.857 275.394C253.265 275.199 253.116 275.252 253.585 275.004C255.501 273.988 260.368 272.537 262.367 271.949C263.462 271.627 264.947 271.361 266.198 271.122C267.562 270.862 269.36 270.858 268.9 269.085C267.263 267.785 256.475 271.299 254.154 272.482C253.058 273.04 251.975 273.635 250.925 274.158C249.605 274.815 243.418 279.014 242.567 280.008H242.565Z" fill="#276D8E"/>
<path fill-rule="evenodd" clip-rule="evenodd" d="M75.853 149.264C77.4156 152.052 83.197 147.024 84.5351 145.402C85.3173 144.453 85.4459 144.597 85.971 143.821L88.9405 139.801C89.7462 138.632 91.5025 136.19 91.7198 134.336C91.6202 133.763 90.5012 132.94 89.8458 132.627C88.9749 134.661 84.9534 141.254 83.1047 143.024C82.7661 143.348 82.5923 143.694 82.2664 144.067C81.6109 144.815 80.8504 145.16 80.3127 145.872L78.2974 147.625C77.9932 147.851 77.5098 148.193 77.1658 148.366L76.1844 148.916C75.8204 149.222 76.1862 148.792 75.853 149.262V149.264Z" fill="#697391"/>
<path fill-rule="evenodd" clip-rule="evenodd" d="M80.3235 159.277C80.6947 159.699 80.7961 159.641 81.1274 159.954C81.4352 160.244 81.5765 160.449 81.8589 160.728C87.2673 166.085 81.0025 171.354 74.8915 169.111L74.4932 172.256C75.5071 172.662 78.7138 173.115 80.2094 173.539C81.9241 174.026 83.914 174.455 85.5527 175.144C85.5219 174.504 85.7029 174.927 85.1453 174.586L80.6114 173.259C79.4562 172.938 75.891 172.341 75.1794 172.048L75.3894 169.637C77.4119 169.827 80.5643 170.733 83.0702 167.922C85.7899 164.872 83.2169 161.922 82.7878 160.837C85.0964 160.832 86.2588 164.635 85.0674 167.084C83.5302 170.244 80.8142 170.202 79.5847 170.664C79.7242 171.407 80.4864 172.436 81.4207 172.463C82.2808 172.489 83.5247 171.817 84.124 171.449C89.6339 168.073 88.5185 157.809 81.7974 158.361C81.6471 158.543 81.6416 158.563 81.4751 158.789L80.3235 159.271V159.277Z" fill="#26314A"/>
<path fill-rule="evenodd" clip-rule="evenodd" d="M117.145 151.786C119.96 153.862 117.416 157.358 115.957 159.646C115.517 160.337 115.168 160.826 114.708 161.409C113.344 163.141 112.191 165.175 109.732 163.434L117.147 151.786H117.145ZM106.632 162.083C107.338 162.817 111.019 165.264 112.663 164.257C112.969 164.069 113.974 163.044 114.19 162.751C116.004 160.286 121.409 153.851 117.326 151.141C114.822 149.481 108.568 144.095 106.933 143.672C106.933 143.769 106.911 143.712 107.212 143.903C107.463 144.064 107.543 144.095 107.805 144.258C109.924 145.586 111.646 147.215 113.482 148.577C113.685 148.729 113.862 148.811 114.05 148.954L114.827 149.83C114.355 151.387 110.217 157.88 108.999 159.81C108.613 160.42 108.265 160.757 107.838 161.294C107.011 162.33 107.273 161.795 106.63 162.083H106.632Z" fill="#26314A"/>
<path fill-rule="evenodd" clip-rule="evenodd" d="M109.73 163.436C112.189 165.176 113.343 163.142 114.706 161.411C115.166 160.826 115.515 160.338 115.955 159.648C117.415 157.359 119.961 153.862 117.143 151.788L109.729 163.436H109.73Z" fill="#697391"/>
<path fill-rule="evenodd" clip-rule="evenodd" d="M253.471 284.522L253.362 285.23C254.318 284.939 255.211 284.813 256.087 284.527L263.046 281.887C264.715 281.292 266.404 280.76 268.032 280.29C270.058 279.707 272.613 279.558 272.088 278.016C271.641 276.705 268.016 278.162 266.928 278.517C264.534 279.296 256.994 281.781 255.122 282.932C254.574 283.269 254.666 283.276 254.202 283.699L253.471 284.522Z" fill="#276D8E"/>
<path fill-rule="evenodd" clip-rule="evenodd" d="M323.915 56.7959C323.782 57.659 324.076 57.5643 325.1 57.628C326.518 57.7154 328.014 57.6772 329.441 57.6863C331.079 57.6954 336.933 57.9467 338.039 57.4496C338.262 57.12 338.304 57.9157 338.186 56.7613L337.737 54.9641L324.367 55.0351C324.278 55.6032 323.998 56.2587 323.915 56.7959Z" fill="#A6CEEE"/>
<path fill-rule="evenodd" clip-rule="evenodd" d="M198.753 51.8668C195.211 52.8737 196.182 60.4557 200.359 59.4251C201.244 59.2066 201.717 58.613 202.052 57.7955C202.459 56.7995 202.505 55.6815 202.3 54.6035C201.934 52.6734 201.007 51.2259 198.753 51.8668Z" fill="#030229"/>
<path fill-rule="evenodd" clip-rule="evenodd" d="M254.355 58.1905C250.558 59.008 251.219 63.9371 250.75 65.7925C250.502 66.7739 249.184 69.1665 249.426 69.8348C250.143 71.8068 251.938 69.0373 252.316 67.9011C252.723 66.6774 253.413 64.7528 253.478 63.4819C253.524 62.5896 253.285 61.7375 253.793 61.1038C253.989 60.8598 255.055 60.2207 255.611 60.2262C256.301 60.2335 256.763 60.818 257.371 61.011C258.405 61.3387 259.066 60.6468 258.57 59.6071C258.297 59.0372 257.54 58.5674 256.93 58.3471C256.088 58.043 255.204 58.0048 254.355 58.1887V58.1905Z" fill="#276D8E"/>
<path fill-rule="evenodd" clip-rule="evenodd" d="M224.888 52.1543C223.112 52.6095 222.031 55.7469 222.771 57.9046C223.289 59.4122 224.499 60.1843 226.085 59.7782C229.549 58.8878 228.975 51.1073 224.888 52.1543Z" fill="#030229"/>
<path fill-rule="evenodd" clip-rule="evenodd" d="M325.752 60.7908C325.769 61.7431 326.051 62.4423 326.435 62.9157C326.469 62.9576 326.576 63.0741 326.614 63.1142C327.585 64.1047 329.577 64.0501 330.944 64.0483C333.922 64.0446 335.82 63.8789 335.936 60.7944L325.752 60.7908Z" fill="#98B2CF"/>
<path fill-rule="evenodd" clip-rule="evenodd" d="M321.137 213.176L320.742 213.789C320.959 214.006 321.267 214.498 322.542 214.144L326.116 212.083C326.397 211.937 326.536 211.843 326.859 211.704C329.652 210.506 331.519 210.417 334.094 209.701C334.385 207.475 333.027 207.842 331.159 208.21C327.333 208.962 324.344 210.199 321.447 212.855L321.135 213.176H321.137Z" fill="#276D8E"/>
<path fill-rule="evenodd" clip-rule="evenodd" d="M208.884 87.3478C208.366 89.8989 211.138 89.8151 213.691 89.7259C215.594 89.6585 219.038 89.4327 218.79 87.2277C217.647 86.645 215.587 87.4189 214.06 87.5463C210.81 87.8176 210.229 87.1803 208.884 87.3478Z" fill="#276D8E"/>
<path fill-rule="evenodd" clip-rule="evenodd" d="M87.2583 85.3538C84.345 86.4882 86.2009 90.9566 88.9259 89.7129C91.6781 88.4565 89.8946 84.3269 87.2583 85.3538Z" fill="#FFFCFA"/>
<path fill-rule="evenodd" clip-rule="evenodd" d="M429.443 183.275C430.169 180.779 426.99 179.033 426.276 181.855C425.657 184.304 428.514 186.467 429.443 183.275Z" fill="#697391"/>
<path fill-rule="evenodd" clip-rule="evenodd" d="M412.868 183.086C413.401 185.863 416.544 185.215 416.075 182.161C415.617 179.173 412.349 180.375 412.868 183.086Z" fill="#697391"/>
<path fill-rule="evenodd" clip-rule="evenodd" d="M221.147 359H223.713C223.599 357.722 223.23 356.514 223.021 355.267C222.886 354.444 222.786 352.219 222.176 351.813C222.248 353.739 221.408 356.897 221.146 358.998L221.147 359Z" fill="#FFFCFA"/>
<path fill-rule="evenodd" clip-rule="evenodd" d="M217.015 144.786C215.19 145.187 215.712 148.698 218.026 147.96C219.912 147.359 219.154 144.317 217.015 144.786Z" fill="#26314A"/>
</g>
<defs>
<clipPath id="clip0_53_1198">
<rect width="450" height="359" fill="white"/>
</clipPath>
</defs>
</svg>
