<svg width="260" height="183" viewBox="0 0 260 183" fill="none" xmlns="http://www.w3.org/2000/svg">
<g clip-path="url(#clip0_55_1384)">
<path fill-rule="evenodd" clip-rule="evenodd" d="M216.943 80.9321C217.522 80.8365 217.606 80.9199 217.744 81.454C217.831 81.7894 217.902 82.1848 217.962 82.5306C218.088 83.2568 218.214 83.9904 218.348 84.71C218.711 86.6609 220.897 96.9154 220.728 97.3005C219.817 97.367 219.719 96.6952 219.547 95.8856C218.779 92.2782 218.011 88.8909 217.343 85.1963C217.131 84.0279 216.554 81.8766 216.944 80.9321H216.943ZM226.093 58.4179C226.268 59.2444 225.458 59.5592 224.349 60.2826C222.387 61.5634 222.897 61.4903 222.124 62.2146C221.918 62.4077 221.998 62.3112 221.843 62.4283C221.063 63.0205 219.733 65.3695 219.298 66.2175C217.737 69.2552 217.41 71.8273 217.301 75.1883C217.29 75.5041 217.573 78.821 216.554 77.7838C215.99 77.2113 216.487 71.7804 216.651 70.8256C217.159 67.8657 218.116 65.362 219.892 63.0617C220.083 62.8162 220.145 62.6813 220.313 62.4939C221.529 61.1418 222.143 60.4971 223.659 59.4908C224.023 59.2481 224.391 58.9783 224.78 58.73C225.298 58.3992 225.456 58.2455 226.092 58.4198L226.093 58.4179ZM156.882 90.8389L157.075 91.0254C158.769 91.8143 160.372 92.5902 162.239 93.3257C163.185 93.6986 167.112 95.047 168.019 95.0048C168.344 94.5232 168.001 95.2869 167.924 93.8167C167.896 93.2864 167.864 92.7598 167.845 92.2285L167.649 82.6196C167.639 80.4514 167.702 78.2916 167.712 76.1543C167.719 74.731 167.479 71.0608 168.38 70.3496C169.264 70.0892 168.863 72.56 168.849 73.0032C168.818 74.0695 168.782 75.1086 168.772 76.1778C168.744 79.149 169.011 94.6216 168.78 95.195L169.179 107.883C169.486 115.287 169.531 123.514 169.116 130.97C168.994 133.159 169.426 132.702 170.176 133.401C170.598 133.316 170.644 133.487 171.492 133.691C172.031 133.821 172.443 133.905 172.957 134.013C176.479 134.752 185.327 135.657 188.852 135.736C194.475 135.863 197.132 136.002 202.89 135.647C205.068 135.513 207.365 135.403 209.444 135.141C212.122 134.803 216.119 134.346 218.724 133.809C219.628 133.622 220.76 133.303 221.733 133.206C222.511 132.938 222.436 132.771 222.898 132.234L222.934 130.829C222.734 128.983 222.726 126.62 222.721 124.73C222.717 122.649 222.714 120.569 222.72 118.487C222.732 114.533 223.069 110.81 223.532 106.907C223.49 105.466 222.883 103.858 222.582 102.463C222.42 101.71 222.36 100.927 222.213 100.17L222.116 97.7746C222.295 97.6649 225.878 97.2892 226.548 97.159C229.408 96.6024 231.977 96.0739 234.721 95.121C236.037 94.6637 237.239 94.1465 238.512 93.6986C238.808 93.4588 239.976 92.995 240.378 92.7495C241.241 92.221 241.069 91.8396 240.866 90.7405C239.983 85.9637 239.257 80.8028 238.115 76.1459C237.15 72.2133 236.934 71.043 235.651 67.1123C234.977 65.0462 233.564 62.1566 232.236 60.4128L231.511 59.6126C231.356 59.6529 230.798 58.9136 230.528 58.7281C230.046 58.3955 229.83 58.1753 229.411 57.8754C227.485 56.4952 226.374 55.9565 224.212 54.9501C223.709 54.7159 223.233 54.5228 222.755 54.3176L221.344 53.7461C219.506 52.9581 217.495 52.3312 215.44 51.5357L210.925 49.9915C210.389 49.8154 209.872 49.5015 209.381 49.4799L207.681 53.2176C206.453 55.3062 205.857 56.5374 204.41 58.8649L203.284 60.5159C202.825 61.1034 202.022 62.4161 200.452 61.0668C200.225 60.8719 200.258 60.8523 199.982 60.6461L197.58 58.5875C197.39 58.4048 196.857 57.9738 196.539 57.837C196.305 57.8248 193.635 60.1073 193.27 60.4222C192.926 60.7183 191.909 61.4051 191.737 61.7621C191.313 62.6419 190.934 68.4841 190.848 69.6141C190.673 71.9275 190.892 73.7547 189.308 73.84C186.421 73.9955 187.305 72.2077 187.434 70.2475C187.541 68.6246 188.167 64.4222 188.519 62.6063C188.816 61.0734 188.989 60.886 188.397 60.4325C187.215 59.5273 186.908 58.1668 185.833 57.2654C185.204 57.0321 182.644 59.4093 181.827 59.7897C181.134 60.113 180.538 59.8534 180.619 59.0335C180.761 57.5831 182.185 52.6854 182.191 51.7643C181.759 51.8027 179.533 52.6901 178.935 52.9365C175.525 54.3392 169.279 56.3893 166.83 59.2575C166.625 59.4983 166.528 59.5358 166.276 59.7934C166.09 59.9837 165.544 60.7548 165.343 61.0462C164.208 62.6944 163.185 64.5824 162.39 66.7132C161.982 67.8066 161.552 68.723 161.143 69.8259L157.729 79.3973C157.343 80.5423 156.98 81.439 156.586 82.6084C156.244 83.6259 155.865 84.7363 155.486 85.7651C155.218 86.4922 154.312 88.473 154.604 89.0465C154.802 89.4353 154.616 89.1242 154.875 89.3744L154.978 89.469C154.993 89.4822 155.015 89.5028 155.03 89.5159L155.792 90.0434C155.98 90.1596 156.951 90.6075 156.879 90.8342L156.882 90.8389Z" fill="#3598C5"/>
<path fill-rule="evenodd" clip-rule="evenodd" d="M45.8113 61.6225C45.5488 61.9354 44.2112 62.3552 43.7134 62.6269C42.9879 63.0242 42.2643 63.4 41.6287 63.816C41.1826 64.1074 39.1804 65.5363 38.9179 65.8671C38.7623 66.0638 38.7942 66.1285 38.5917 66.3346C38.0199 66.9174 38.647 65.9992 37.3984 67.623C37.1519 67.9435 36.971 68.1683 36.7254 68.5366C35.2978 70.6776 34.6904 73.3602 34.2798 75.9323C33.1109 83.2633 35.4047 91.6167 37.1341 98.5598C37.6881 100.783 39.3959 106.387 40.1505 108.531L41.8518 113.272C42.0149 114.22 37.8193 126.773 37.3703 128.248C36.5529 130.929 35.819 132.99 35.1797 135.766C34.8057 137.387 35.5378 137.227 36.2117 137.745L45.0885 140.162C45.5825 140.246 46.2181 140.343 46.6764 140.471L48.2446 140.778C49.6057 140.947 52.1263 141.516 53.0974 141.574L54.7762 141.792C55.1033 141.836 55.1417 141.916 55.4839 141.954C55.812 141.991 56.1241 141.949 56.4559 141.996C58.0785 142.225 59.8736 142.303 61.558 142.51L68.861 142.758C70.0496 142.758 71.3572 142.791 72.5317 142.683C73.7193 142.574 75.0288 142.654 76.134 142.511C76.7976 142.426 77.1838 142.385 77.8868 142.362L82.9195 141.749C84.8974 141.479 88.718 140.382 89.0977 140.349L89.1324 140.215C89.4061 139.419 89.9947 140.2 89.9291 138.463C89.8719 136.963 89.3414 132.777 88.9205 131.689L81.9044 130.756C75.6831 129.944 67.5177 128.523 61.617 126.934C57.0858 125.713 50.9386 124.093 46.8892 121.625C45.0089 120.479 44.258 118.928 43.136 117.255C42.7114 116.621 41.8312 115.321 42.2952 114.465C43.2138 114.384 43.4528 115.518 44.2102 116.771C45.2713 118.529 46.6371 119.997 48.4987 121.011C51.5235 122.657 61.2318 125.46 64.7047 126.111C67.0978 126.56 69.4168 127.128 71.8221 127.51C74.2377 127.894 76.717 128.346 79.1063 128.749C81.5613 129.162 84.08 129.404 86.549 129.826C87.1452 129.929 87.7788 130.087 88.3618 130.131C88.9805 130.178 89.4464 130.049 90.2235 130.197C92.0757 130.547 91.8545 130.799 92.5444 129.35C92.6475 129.134 92.5003 128.973 92.7262 129.215C92.8949 129.215 92.8349 129.246 92.8171 129.044C93.0496 128.506 93.4189 126.752 93.5773 126.062C93.8154 125.021 94.0507 124.038 94.3 123.006C94.7753 121.036 95.3124 118.775 95.5439 116.757C95.1043 115.655 94.3919 115.819 93.2043 115.536C91.5601 115.145 85.9725 114.028 84.7474 113.567C83.8756 113.387 83.1698 113.097 82.179 113.06L82.1293 112.887C82.0506 112.783 82.0543 112.838 81.9953 112.646C81.955 112.514 81.985 112.488 82.0019 112.365L81.8688 112.974C79.9697 113.122 71.4603 110.642 69.0784 109.945C67.0284 109.346 64.9775 108.71 62.9612 108.039C60.5231 107.229 59.2399 107.101 58.4038 104.662C57.7251 102.683 57.2827 100.393 56.7278 98.3096C56.1813 96.2595 55.7313 93.9994 55.1521 91.9746C54.8043 90.7584 51.8432 79.5538 52.1984 79.1509C53.1386 78.5774 53.5248 80.6266 53.716 81.4081L56.0744 90.9242C57.1561 95.0882 58.056 99.4603 59.2568 103.512C59.6476 104.832 59.702 105.351 60.7987 105.938C61.6105 106.372 62.6941 106.733 63.653 107.047C67.5102 108.309 71.9515 109.703 75.9174 110.632C76.9467 110.873 78.0134 111.196 79.0698 111.46C79.9275 111.675 81.6082 111.86 82.1678 112.247L82.9233 106.108C83.1248 102.699 83.8606 97.2321 84.2853 93.6949C84.4034 92.7111 84.4034 91.4443 84.5852 90.5007C84.7502 89.6471 84.8795 88.3503 84.9217 87.4723L86.3109 75.0871C86.3343 74.3909 86.623 71.1883 87.0158 70.6467C88.4125 68.7193 91.1252 69.9308 94.5044 69.6788C94.2513 69.2328 94.0648 68.8355 93.807 68.3951C92.4609 66.1032 90.8177 64.6162 88.6103 63.1676C87.731 62.5913 86.848 62.0919 85.9172 61.6937C85.5638 61.6497 83.7341 60.8195 83.1529 60.6096C82.2099 60.2676 81.2866 59.9143 80.2921 59.7232C80.338 61.2346 80.0165 62.9015 79.3182 64.039C78.8908 64.7352 78.0031 65.63 77.3741 66.0573C72.2823 69.5139 65.0525 67.0964 60.4931 64.0306C59.942 63.6595 59.4808 63.3615 58.9259 62.923C58.1404 62.3037 56.8327 61.1231 56.2572 60.4381C55.9019 60.0146 55.3227 59.5011 55.0724 59.0167C53.4648 59.4252 51.8835 59.7457 50.3115 60.2057C49.5091 60.44 48.808 60.6265 48.0094 60.8832C47.2848 61.1156 46.4862 61.4669 45.8141 61.6234L45.8113 61.6225Z" fill="#E59B84"/>
<path fill-rule="evenodd" clip-rule="evenodd" d="M170.175 133.404L169.236 145.546C169.012 147.471 168.961 149.681 168.825 151.621C168.679 153.695 168.526 155.792 168.419 157.846C168.201 162.024 167.9 166.245 167.777 170.415C167.653 174.587 167.239 178.869 167.202 183H192.331C192.033 181.6 193.698 172.353 193.715 170.019C193.718 169.579 193.527 169.269 193.403 168.893C193.132 168.066 191.963 159.213 191.744 157.665C191.604 156.669 190.957 156.379 190.098 155.649C189.002 154.717 186.906 153.036 185.888 152.029C184.487 150.644 182.921 150.105 183.665 148.935C184.399 148.87 185.011 149.758 185.938 150.493C186.367 150.833 186.531 151.081 186.893 151.419C187.223 151.729 187.62 151.918 187.954 152.243C188.918 153.179 191.103 154.75 192.107 155.72C192.926 156.513 192.825 157.113 193.047 158.648C193.329 160.597 194.472 167.515 194.232 168.567L196.618 183H223.366L223.085 169.329C222.278 169.219 222.012 169.342 221.733 168.701C221.552 168.586 221.451 168.545 221.189 168.516C220.603 168.775 220.135 169.354 219.193 169.07C218.614 168.895 218.212 168.322 218.179 167.539C218.098 165.617 221.734 157.025 220.867 154.725C219.813 154.259 219.181 156.711 218.855 157.749C218.434 159.09 217.74 160.167 216.644 160.584C215.374 161.067 213.796 160.462 214.552 158.097C214.979 156.763 215.338 155.614 215.714 154.206C216.087 152.811 216.401 151.534 216.898 150.235C217.232 149.362 218.219 147.822 218.837 147.122L220.564 144.985C221.819 143.213 222.35 142.89 222.159 140.214L221.731 133.21C220.758 133.306 219.626 133.626 218.721 133.812C216.117 134.35 212.12 134.807 209.442 135.145C207.362 135.407 205.066 135.516 202.888 135.651C197.129 136.006 194.472 135.866 188.85 135.74C185.325 135.66 176.476 134.756 172.955 134.017C172.441 133.909 172.03 133.824 171.49 133.694C170.642 133.49 170.596 133.32 170.174 133.405L170.175 133.404Z" fill="#33667B"/>
<path fill-rule="evenodd" clip-rule="evenodd" d="M30.8027 183H62.9111L63.9966 176.232C64.1972 175.099 64.3631 173.96 64.5515 172.826L64.9968 169.796C65.1467 169.385 64.9593 169.655 65.2264 169.504C64.8074 167.612 65.248 166.926 65.6538 164.614C65.9388 162.992 66.1928 161.336 66.4769 159.721C66.6146 158.937 66.7787 158.107 66.9437 157.311C67.2577 155.8 67.8557 155.866 70.0988 154.71C70.6003 154.452 71.652 153.695 72.162 153.934C72.6569 154.552 71.982 154.998 71.5395 155.26C68.4313 157.102 68.4097 156.122 67.9091 158.658C67.7273 159.578 66.1647 168.894 65.8938 169.448C65.6848 169.875 65.6323 169.616 65.547 170.217C65.382 171.38 66.7599 181.803 66.7215 182.418C66.6868 182.963 66.7843 182.787 66.4562 182.902L66.4628 183.001H92.6189C92.5749 176.178 91.9 167.987 91.4641 161.101C91.3582 159.424 89.6859 141.802 89.0973 140.351C88.7176 140.384 84.896 141.481 82.9191 141.751L77.8864 142.363C77.1834 142.387 76.7972 142.428 76.1336 142.513C75.0284 142.655 73.7199 142.575 72.5313 142.685C71.3568 142.793 70.0491 142.76 68.8606 142.76L61.5576 142.511C59.8741 142.304 58.079 142.227 56.4555 141.998C56.1237 141.951 55.8125 141.992 55.4835 141.956C55.1404 141.918 55.1029 141.837 54.7758 141.794L53.097 141.576C52.1258 141.517 49.6053 140.949 48.2442 140.78L46.676 140.473C46.2177 140.345 45.5821 140.248 45.0881 140.164L36.2113 137.747C33.9326 144.381 32.924 152.014 32.1216 158.991C31.3811 165.43 30.8224 176.444 30.8027 183.002V183Z" fill="#33667B"/>
<path fill-rule="evenodd" clip-rule="evenodd" d="M60.604 41.612C59.4173 41.3384 59.0115 41.4911 57.9729 40.7874C55.8179 39.3267 54.5093 35.9066 55.4251 33.4133C56.2219 31.2451 59.1277 29.1415 61.9876 31.32C62.7806 31.9244 63.3205 32.9841 63.7048 33.2034C64.1679 32.9504 64.1641 32.1568 64.2907 31.5805C64.4388 30.904 64.9346 30.8347 65.5505 30.6585C68.4441 29.834 72.1767 27.9356 74.6223 26.4458C75.3319 26.0138 77.2356 24.7442 77.8196 24.1932L79.0288 23.2234C79.4834 22.8018 79.3663 22.8065 79.5744 22.5779C79.8621 22.263 80.059 22.3061 80.6898 21.5116L83.4316 17.6361C84.4121 17.743 85.61 19.1391 86.0618 19.7453C88.5037 23.0211 89.2676 26.5948 89.6341 30.7494C89.9191 30.5714 89.6463 30.7803 89.8357 30.5789C90.564 29.804 91.298 28.2457 91.5632 27.2591C92.4368 24.0002 91.2567 19.4736 89.1889 17.4066C89.0633 17.281 88.9902 17.2192 88.8477 17.0571C88.6208 16.7994 88.4268 16.5801 88.1747 16.345C87.9488 16.1332 88.0162 16.2194 87.7707 16.0554C86.9655 15.5176 86.6964 15.259 85.6372 14.8298C83.201 13.8422 84.5864 15.1915 81.9674 13.1311C76.8026 9.06825 69.8033 7.28795 63.163 9.35684C60.0669 10.321 58.5868 11.4435 56.1638 13.1507C55.7851 13.4178 56.0316 13.3456 55.4664 13.7382L54.1634 15.1137C53.8325 15.4361 53.7379 15.3246 53.4135 15.7509L52.8314 16.4593C50.4243 19.5242 49.1935 22.8524 48.2984 26.9742C47.7594 29.4517 46.8923 33.2371 45.969 35.4381C44.8226 38.1704 44.2902 39.3145 42.5964 41.4911C42.3161 41.8519 42.2542 41.9587 42.0199 42.3119C41.8568 42.5574 41.6637 42.802 41.4809 43.055L39.9277 45.5642C39.3372 46.5977 38.7082 48.1335 38.412 49.494C37.874 51.9705 38.1673 54.0478 39.25 56.2441C39.6896 57.1352 40.9588 58.5988 41.7584 59.1704L45.1779 61.094C46.1396 61.5344 46.5192 61.2514 47.3572 60.946C49.3116 60.2329 50.9192 59.9584 52.6055 59.458L53.6938 59.161C54.4371 58.9895 55.1289 58.8096 55.8807 58.5501C58.7584 57.5569 58.57 57.8595 58.9758 56.2853C59.3377 54.8817 59.6939 53.1792 59.8691 51.6997C60.0632 50.0562 60.1579 48.379 60.3575 46.7514L60.6059 41.6111L60.604 41.612Z" fill="#291D02"/>
<path fill-rule="evenodd" clip-rule="evenodd" d="M223.532 106.911C223.908 107.709 223.92 111.753 223.86 112.758L223.29 124.933C223.247 125.933 223.142 126.878 223.115 127.904C223.102 128.406 223.088 128.903 223.064 129.402C223.045 129.791 223.094 130.488 222.933 130.832L222.896 132.236C222.983 133.379 222.738 135.385 222.631 136.609C222.51 137.998 222.408 139.413 222.268 140.822L222.16 140.212C222.351 142.888 221.821 143.211 220.566 144.983L218.838 147.121C218.221 147.82 217.233 149.36 216.9 150.233C216.403 151.532 216.089 152.809 215.716 154.204C215.339 155.613 214.98 156.761 214.553 158.095C213.797 160.461 215.375 161.065 216.646 160.582C217.741 160.165 218.435 159.088 218.856 157.747C219.182 156.708 219.815 154.257 220.868 154.723C221.736 157.023 218.1 165.615 218.18 167.537C218.213 168.32 218.615 168.894 219.194 169.068C220.136 169.352 220.604 168.774 221.191 168.514C221.45 167.517 221.871 166.752 222.243 165.791C223.069 163.653 223.415 162.386 223.938 160.158C224.093 159.498 224.307 157.111 225.175 157.946C225.639 158.556 224.249 162.814 223.956 163.728C223.644 164.704 222.894 166.764 222.383 167.602C222.279 167.774 222.123 168.007 222.03 168.145C221.866 168.387 221.763 168.39 221.735 168.7C222.012 169.34 222.278 169.216 223.086 169.327L223.474 169.136C223.517 168.433 223.771 168.129 224.097 167.644C225.981 164.828 226.605 162.067 227.549 159.007C227.728 158.428 227.868 157.924 228.511 158.269C228.854 158.941 227.281 163.047 226.944 163.94C226.348 165.512 226.037 166.327 225.139 167.689C224.93 168.006 224.596 168.4 224.536 168.903C225.156 168.567 225.805 168.475 226.405 167.976C226.866 167.593 226.18 168.19 226.517 167.878C226.618 167.784 226.604 167.799 226.686 167.706C226.591 167.523 227.599 167.068 228.059 166.152C228.954 164.37 229.928 161.174 230.462 159.243C230.584 158.804 230.616 158.253 230.972 158.175C231.521 158.055 231.448 158.733 231.37 159.148C231.153 160.29 230.438 162.884 230.023 163.952C229.76 164.626 229.212 165.615 229.154 166.206C229.531 166.043 229.377 166.067 229.864 165.578C231.633 163.81 232.385 162.201 232.985 159.569C233.836 155.834 233.815 151.256 233.42 147.329C233.3 146.136 234.341 141.973 234.622 140.579C236.379 131.879 238.511 122.36 239.246 113.719C239.54 110.27 239.428 106.863 239.325 103.383C239.277 101.79 239.135 100.037 239.001 98.4745C238.867 96.921 238.826 95.1716 238.51 93.7015C237.237 94.1493 236.034 94.6666 234.718 95.1238C231.974 96.0767 229.405 96.6052 226.545 97.1618C225.876 97.292 222.292 97.6678 222.113 97.7774L222.211 100.173C222.357 100.929 222.417 101.713 222.579 102.466C222.88 103.861 223.487 105.469 223.53 106.909L223.532 106.911Z" fill="#FFD0BF"/>
<path fill-rule="evenodd" clip-rule="evenodd" d="M181.614 36.9279L181.594 36.2739C182.99 35.723 183.862 38.0017 187.719 36.4379C188.4 36.1624 188.769 35.5862 189.55 35.8082C189.718 36.3189 189.533 36.4688 189.202 36.7415C187.367 38.2538 183.609 38.3803 181.614 36.927V36.9279ZM206.618 25.4526C207.194 25.3626 207.869 25.6081 207.383 26.2537C207.234 26.4514 206.476 26.7531 206.233 26.9115C205.546 27.3612 205.204 28.7929 204.891 29.0562C204.097 29.7253 203.721 28.2036 204.616 26.9845C205.084 26.3483 205.73 25.5903 206.618 25.4516V25.4526ZM189.698 23.7238C191.347 22.947 192.167 26.2565 190.589 26.9358C189.737 27.3031 189.046 26.4401 188.886 25.7627C188.796 25.3767 188.816 24.8697 188.96 24.5202C189.113 24.1511 189.395 23.8662 189.697 23.7238H189.698ZM179.192 23.0079C180.026 22.7821 180.617 23.6226 180.706 24.3516C180.817 25.2577 180.49 26.2181 179.677 26.3596C177.882 26.6735 177.499 23.4661 179.192 23.0079ZM184.541 32.2982C185.441 33.6616 182.54 33.5313 181.549 32.6028C181.532 32.5868 181.399 32.4603 181.394 32.4557C180.046 30.9106 181.716 27.8756 182.235 26.5142C182.675 25.3598 183.011 23.17 183.144 23.0801C184.024 22.8983 184.068 23.3387 183.973 24.1529C183.919 24.6121 183.785 25.2652 183.648 25.7224C183.354 26.6922 182.981 27.4868 182.607 28.3582C182.258 29.1724 181.701 30.2875 181.927 31.2451C182.226 32.5081 184.14 32.2149 184.542 32.2982H184.541ZM187.808 19.8578C187.784 18.8973 188.191 18.8402 189.124 18.7502C190.419 18.6265 191.974 18.8524 193.125 19.4333C195.895 20.8285 194.155 21.7739 193.318 21.4469C192.868 21.2707 192.402 20.8575 191.728 20.6486C190.175 20.1679 189.233 20.3975 188.52 20.2813C188.006 20.1979 188.166 20.0939 187.807 19.8578H187.808ZM179.157 18.1309C179.877 18.0147 181.724 17.8938 181.904 18.8121C182.078 19.7041 181.485 19.7612 180.983 19.7416C178.567 19.6469 179.004 20.0526 177.899 20.1285C176.826 20.2016 175.927 18.649 179.157 18.1309ZM177.39 12.1491C176.776 13.28 176.036 20.5127 175.869 22.3267C175.346 28.0124 174.707 35.1786 177.23 40.4726C178.783 43.7296 181.725 45.9034 185.539 46.0271L186.23 46.1545C186.506 45.7872 186.862 46.0815 187.994 45.8079C190.588 45.1801 190.173 45.3309 192.846 44.23C194.523 43.5394 196.095 42.4712 197.517 41.4771C197.82 41.2644 197.927 41.1369 198.324 41.1997C198.361 41.7038 198.201 41.5033 197.655 42.3091C197.365 42.7364 196.219 43.827 195.725 44.2506C195.444 44.4904 195.643 44.3152 195.441 44.5645L194.043 45.7413C194.027 45.7544 194.005 45.7741 193.989 45.7863L193.315 46.3017C192.507 46.9323 191.088 47.7231 190.116 48.1691C188.963 48.6985 187.541 49.2663 186.274 49.3816L186.192 49.5821L187.598 55.1928C188.282 56.8831 189.213 58.2999 189.873 59.9312C190.483 59.7963 194.738 56.2104 195.262 55.7737C195.618 55.4777 196.103 55.1862 196.386 54.9145C196.647 54.6643 197.002 54.2708 197.312 53.9607C197.693 53.5802 197.947 53.4856 198.362 53.0274C198.844 52.4952 198.961 52.6976 199.882 51.6735L202.339 49.2766C202.967 48.751 204.278 46.8667 204.567 45.7498C204.739 45.0845 204.494 44.7734 204.472 44.0866C204.382 42.5715 203.731 39.1364 203.995 37.923L203.907 36.0144C203.899 35.262 203.88 34.5067 203.874 33.7543C204.527 33.7112 204.923 33.9033 205.668 33.8012C206.302 33.714 206.634 33.4601 207.079 33.403C207.103 33.3936 207.139 33.3505 207.149 33.3702L207.447 33.1715C207.592 33.0572 207.682 32.9897 207.839 32.8773L208.818 31.9619C209.543 31.2254 210.02 29.8255 210.237 28.8098C210.362 28.2223 210.372 26.7803 210.443 26.5826C210.138 26.3586 210.261 26.1787 210.136 25.7149C209.673 24.0096 208.015 22.5319 205.999 22.814C204.966 22.9583 203.929 23.5936 203.385 24.3544C203.072 24.7901 202.808 25.0684 202.501 25.5491C202.165 26.0738 202.046 26.4598 201.401 26.5067C200.692 26.3867 200.112 23.9702 199.9 23.2712C199.556 22.1478 198.927 21.104 198.517 19.9936C197.032 15.9739 198.553 14.0531 198.856 12.4274C197.608 11.0275 190.399 12.046 188.296 12.2428C184.026 12.6429 181.635 12.7881 177.394 12.1472L177.39 12.1491Z" fill="#FFD0BF"/>
<path fill-rule="evenodd" clip-rule="evenodd" d="M75.666 42.905C76.2641 42.6923 76.6203 43.1637 76.9483 43.3183C77.3805 43.5216 77.8613 43.5413 78.3141 43.6115C79.3133 43.7671 80.3397 43.9451 81.293 44.1128C83.4143 44.4858 84.1154 43.8917 84.1332 44.7622C84.1529 45.7113 83.1659 46.5715 82.7656 46.8826C81.2986 48.0239 79.0246 47.9227 77.3748 47.0747C74.9724 45.8388 74.5581 43.3005 75.666 42.9069V42.905ZM75.9247 32.4519C77.5689 31.8925 78.1238 35.1664 76.6353 35.7042C75.7251 36.0331 75.0924 35.2732 74.9752 34.4646C74.8327 33.4845 75.1074 32.7302 75.9247 32.4519ZM85.9358 32.0649C86.4223 31.8241 86.7606 31.9291 87.1206 32.2626C87.1356 32.2767 87.1571 32.2964 87.1721 32.3114C88.028 33.1622 87.7439 34.8394 86.8666 35.2282C85.1118 36.0059 84.3676 32.8417 85.9367 32.0649H85.9358ZM83.4461 36.8127C83.1021 36.0959 82.0663 33.2043 82.431 32.3882C82.6681 31.856 83.3355 31.9656 83.4293 32.8351C83.5595 34.0467 83.7517 34.6379 84.1782 35.7174C84.8737 37.478 86.037 39.6087 84.3872 40.972C83.6655 41.568 82.1948 41.6373 81.4167 41.2597C81.4027 40.868 81.4364 40.8924 81.5339 40.5813C82.7581 40.0959 85.5777 41.2522 83.4461 36.8136V36.8127ZM61.3816 36.7078C60.4939 37.1575 60.6495 35.6995 59.8031 34.7982C59.0503 33.9961 58.3858 34.2416 58.187 33.7122C58.0333 33.3036 58.1833 33.2877 58.3595 33.1603C58.7251 32.897 59.3747 33.1219 59.789 33.3121C61.1716 33.9474 62.1052 36.3414 61.3806 36.7078H61.3816ZM72.4893 29.7046C72.9795 28.1905 75.2967 27.513 77.0918 27.5992C78.6796 27.6751 78.3338 27.7941 78.7959 28.049C78.8006 28.4341 78.7068 28.5971 78.6018 28.8389C77.4864 29.075 76.3231 28.54 75.0005 29.1143C73.4173 29.8012 73.1942 31.0136 72.4893 29.7056V29.7046ZM85.273 27.0323C89.3778 26.6913 89.3384 28.9269 88.2304 28.7901C87.7983 28.7367 87.2837 28.3779 86.7663 28.2795C85.6874 28.0761 83.6139 28.8192 83.3102 28.6458C83.1152 28.5343 82.9896 28.1773 83.104 27.8925C83.2905 27.4268 84.8109 27.0708 85.273 27.0323ZM55.0722 59.0148C55.3225 59.5002 55.9017 60.0137 56.257 60.4362C56.8326 61.1212 58.1402 62.3018 58.9257 62.9212C59.4806 63.3587 59.9418 63.6576 60.4929 64.0287C65.0513 67.0945 72.2822 69.5129 77.3739 66.0554C78.0029 65.6281 78.8906 64.7342 79.318 64.0371C80.0163 62.8996 80.3378 61.2336 80.2919 59.7213C79.5064 59.607 78.2719 59.1141 77.5201 58.8124C77.2408 58.7 76.3287 58.4273 76.1497 58.2943C75.7973 58.0319 75.9257 57.4425 75.741 56.9881C74.0266 56.677 71.7338 54.7871 70.3699 53.7564C70.0559 53.5184 69.8647 53.1164 69.3051 52.6423C68.6639 52.0989 67.8934 51.1206 67.3947 50.3879C67.211 50.119 66.7208 49.3825 66.703 49.0349C67.1604 48.9412 67.5194 49.3834 67.8541 49.6355C69.5666 50.9257 71.3279 51.9171 73.2561 52.8466C74.2056 53.3038 74.9443 53.4219 75.8188 53.7217C77.3073 54.1977 79.6911 54.149 81.1449 53.6627C81.891 53.4135 82.5584 53.0724 83.1443 52.6938C83.5183 52.4521 83.6786 52.3406 84.002 52.0679C84.3244 51.7953 84.5428 51.7128 84.8419 51.4233L86.1542 49.7676C87.2649 48.1166 87.9239 46.6268 88.521 44.7097C88.6485 44.3002 88.6279 43.9151 88.7413 43.694C88.9006 43.3839 88.416 43.7212 88.9428 43.4766C88.9053 43.3407 89.5137 38.6042 89.5455 37.819C89.5915 36.7049 89.6402 35.6771 89.5933 34.5573C89.5559 33.6447 89.449 32.2439 89.4977 31.3744C89.3853 30.7054 89.3853 29.8274 89.2868 29.1087C89.0309 27.2375 88.5088 24.9297 87.8133 23.2431C87.0034 21.2773 85.1174 18.1758 83.4321 17.7879C82.9259 18.4982 82.7131 19.2084 81.8592 20.3028C81.2461 21.088 80.664 21.9313 80.0332 22.5404C76.5846 25.8733 72.1003 28.3825 67.5503 30.176C66.5717 30.5611 65.5181 30.8215 64.5798 31.1654C64.4542 31.8813 64.3521 32.8979 63.9256 33.4611C63.2066 33.3842 62.8851 32.3161 62.1493 31.6555C59.5218 29.298 56.4145 31.2413 55.6243 33.4189C54.94 35.3023 55.6159 37.5745 56.4942 38.9884C57.2441 40.1953 58.7476 41.5745 60.9026 41.329C61.1322 42.6155 60.2661 50.5547 59.999 52.171C59.7112 53.911 59.43 55.4608 58.9857 57.0893C58.7523 57.9438 58.0802 57.9916 57.2272 58.3036C56.5195 58.5622 55.7649 58.789 55.0703 59.012L55.0722 59.0148Z" fill="#FFD0BF"/>
<path fill-rule="evenodd" clip-rule="evenodd" d="M120.418 116.461C119.946 116.442 119.666 116.296 119.21 116.249C118.733 116.2 118.212 116.21 117.729 116.193C116.595 116.266 115.69 116.226 114.557 116.375C113.651 116.494 112.488 116.717 111.575 116.635C111.834 117.892 111.304 117.341 109.847 118.636C108.916 119.463 107.837 120.373 107.012 121.252L105.623 123.032C104.776 124.83 106.191 126.063 108.562 124.874C110.095 124.105 111.026 123.219 112.386 122.361C114.763 120.865 115.235 122.623 117.117 124.159L120.015 126.71C120.196 126.888 120.272 126.909 120.46 127.06L122.136 128.556C122.449 128.792 122.642 129.053 122.961 129.316C123.455 129.722 125.775 131.898 125.662 132.975C126.147 132.764 126.606 132.619 127.062 132.281C128.626 131.122 128.178 131.26 129.318 130.271C129.829 129.827 129.602 129.673 130.576 129.373C132.767 128.698 135.049 128.147 137.242 127.411C144.36 125.022 149.185 123.419 155.924 120.416L158.817 119.041C160.681 118.105 162.407 116.873 163.985 115.581C165.221 114.57 167.03 112.383 167.777 110.842C168.023 110.335 168.279 109.913 168.52 109.404C168.677 109.072 169.026 108.053 169.177 107.886L168.778 95.1979L168.017 95.0058C167.11 95.0479 163.183 93.6996 162.237 93.3267C160.37 92.5911 158.768 91.8162 157.073 91.0264C156.99 91.1838 154.673 98.5326 154.025 100.092C152.685 103.321 153.224 101.388 152.002 103.1L149.797 104.959C149.557 105.153 149.512 105.213 149.241 105.392C145.841 107.634 144.329 108.772 140.474 110.798C134.85 113.754 132.766 114.874 126.511 117.144C125.569 117.485 124.167 118.091 123.182 117.678C122.95 117.581 120.451 116.504 120.416 116.46L120.418 116.461Z" fill="#FFD0BF"/>
<path fill-rule="evenodd" clip-rule="evenodd" d="M177.39 12.1491C181.631 12.7909 184.022 12.6448 188.291 12.2447C190.396 12.047 197.603 11.0294 198.851 12.4292C198.548 14.0549 197.027 15.9758 198.512 19.9955C198.922 21.1058 199.552 22.1487 199.895 23.2731C200.108 23.9721 200.687 26.3886 201.396 26.5085C202.041 26.4626 202.16 26.0766 202.496 25.5509C202.803 25.0693 203.069 24.792 203.38 24.3563C203.924 23.5945 204.961 22.9601 205.994 22.8158C208.01 22.5338 209.669 24.0115 210.131 25.7168C210.256 26.1806 210.135 26.3605 210.438 26.5844C211.032 25.1949 211.459 24.7001 212.057 22.8102C215.249 12.7197 209.275 9.5686 209.093 8.93987C208.496 6.88036 208.037 6.17386 206.682 4.70465C206.036 4.00472 205.283 3.43596 204.437 2.87657C200.192 0.068397 193.575 -0.492864 188.722 0.372921C187.837 0.530336 184.715 1.01851 183.95 0.972598C182.33 0.874213 180.385 0.676507 178.773 0.907945C172.679 1.78404 171.858 7.46879 173.965 10.158C174.793 11.214 175.793 11.6225 177.391 12.1491H177.39Z" fill="#030229"/>
<path fill-rule="evenodd" clip-rule="evenodd" d="M15.4439 71.8966C16.6213 71.4684 17.7592 72.9395 17.8914 74.0049C17.9898 74.7948 17.7958 75.4076 17.3805 75.8564L13.2571 80.0513C12.9318 80.4355 13.064 80.3418 12.6422 80.6238C11.089 81.6667 10.4197 81.1785 9.52169 80.2996C8.19907 79.0047 7.98536 78.9906 9.38859 77.6713L14.2019 72.9686C14.6219 72.5197 14.7044 72.1637 15.4439 71.8948V71.8966ZM6.02065 102.003C6.01502 101.194 5.297 100.476 6.17718 100.035C6.94582 99.6495 7.39575 99.6711 7.86069 98.9702C7.40513 97.7493 6.83334 97.3248 8.45779 96.7739C9.07644 96.564 9.19268 96.5274 9.57231 96.2023C9.49076 95.2822 8.61714 94.3695 9.68479 94.035C9.87414 93.976 10.1216 93.9367 10.3175 93.8832C10.7703 93.7614 11.1536 93.5356 11.3786 93.3576C11.4452 92.756 11.1386 92.4 11.1808 91.5033C12.1707 90.8511 11.9748 91.4471 13.3499 90.2945C13.244 89.7586 12.7912 89.1889 13.0209 88.5527C13.4511 88.0242 14.8243 88.1263 15.3146 87.4798C15.3896 86.7621 14.8384 86.3264 14.9715 85.5299C15.4805 85.1945 16.3954 85.0661 16.9184 84.7072C17.7274 84.1525 16.8284 83.7852 16.9259 82.6206C17.493 81.9796 18.3385 82.0274 18.7322 81.4315C18.7181 80.7681 18.002 80.2378 17.687 79.7468C19.1681 77.5973 23.0375 76.2368 20.8722 73.2187C20.4457 72.6237 20.0586 72.2649 19.618 71.7926L17.5371 69.7106C17.1499 69.3255 17.1724 69.4604 17.1706 68.7539C17.1649 66.3075 14.6144 65.422 12.555 67.8572L11.2277 69.2075C10.7309 69.6647 10.3006 70.1098 9.83571 70.5895C9.37265 71.0674 9.00989 71.5031 8.54402 71.9735L5.83973 74.8201C5.60258 75.089 5.42636 75.2876 5.17421 75.5415C4.95018 75.7674 4.69428 75.936 4.42151 76.1759C4.14217 76.4214 3.51226 77.2328 3.39603 77.8409C3.18325 78.9522 3.94251 79.9248 4.65772 80.5048C5.46479 81.1598 5.40855 80.9199 4.64085 83.5594C3.83191 86.3386 3.01171 89.3903 2.31244 92.2154C1.89157 93.9123 0.17432 99.7516 0.0402769 100.854C-0.203437 102.862 0.629877 103.074 2.61521 103.77C4.13936 104.305 3.74379 103.439 4.1956 102.904C4.37089 102.696 4.78333 102.596 5.14515 102.481C5.61945 102.33 5.68507 102.253 6.01971 102.004L6.02065 102.003Z" fill="#8D98AF"/>
<path fill-rule="evenodd" clip-rule="evenodd" d="M95.5422 116.757C95.3107 118.775 94.7726 121.036 94.2983 123.006C94.0499 124.038 93.8137 125.02 93.5756 126.062C93.4182 126.752 93.0479 128.506 92.8154 129.044L95.9697 130.145C96.5546 130.304 96.817 130.255 97.042 130.58L97.1498 130.446C98.6552 128.467 100.677 128.502 101.945 130.905C102.037 131.079 101.975 130.989 102.067 131.112C104.257 130.096 105.102 131.284 105.684 133.106C107.072 133.053 108.426 132.543 108.96 135.06L110.146 135.087C111.548 135.29 111.824 136.394 112.179 137.22C113.733 137.684 114.404 138.02 115.419 139.323L115.282 139.581C116.324 139.726 116.55 139.922 117.573 139.351C117.875 139.182 118.033 138.964 118.253 138.728C118.556 138.403 118.531 138.259 118.654 137.773L118.135 137.406C116.577 136.039 114.879 134.871 113.296 133.53C112.551 132.899 111.635 132.631 112.176 131.789C112.972 131.679 114.133 132.826 114.866 133.44L116.084 134.402C117.098 135.258 118.168 135.962 118.861 137.078C119.437 138.005 120.538 137.663 121.203 137.239C121.69 136.929 122.09 136.701 122.123 135.893C121.321 135.49 121.188 135.181 120.718 134.826L115.642 130.589C115.379 130.396 114.849 129.984 115.344 129.583C116.031 129.027 118.533 131.597 119.283 132.194L121.959 134.576C122.109 134.72 122.539 135.237 122.585 135.456C122.675 135.889 122.669 135.432 122.578 135.671C123.411 135.444 123.673 135.837 124.646 135.125C125.242 134.689 125.379 134.23 125.551 133.277C125.027 133.396 124.632 132.603 123.821 131.725L122.171 130.105C121.424 129.546 121.681 129.64 121.332 129.359C121.16 129.22 121.028 129.166 120.872 129.021C120.637 128.803 120.711 128.775 120.446 128.561C120.266 128.415 120.163 128.389 119.987 128.224C119.758 128.011 119.848 128.041 119.575 127.843C118.872 127.335 119.257 127.447 118.67 127.062L116.961 125.603C116.734 125.373 116.804 125.413 116.549 125.218C116.363 125.076 116.279 125.009 116.104 124.867C115.935 124.728 115.838 124.669 115.697 124.486C115.063 123.664 115.192 123.966 114.424 123.276C113.736 122.657 113.78 122.729 112.845 123.324C112.68 123.429 112.523 123.534 112.375 123.649C111.082 124.654 108.749 126.405 107.094 126.505C106.045 126.568 105.277 126.435 104.696 125.664C103.45 124.006 104.342 122.762 105.225 121.653L105.994 120.835C106.148 120.681 106.222 120.581 106.374 120.421C106.673 120.11 106.911 119.873 107.225 119.585C107.561 119.278 107.644 119.044 108.001 118.777L110.723 116.561C108.66 116.132 104.993 116.578 102.992 117.116C101.151 117.612 101.24 117.582 99.3892 117.279C98.1284 117.073 96.8302 116.845 95.5394 116.755L95.5422 116.757Z" fill="#FFD0BF"/>
<path fill-rule="evenodd" clip-rule="evenodd" d="M82.1664 112.247L82.1289 112.888L82.1786 113.061C83.1684 113.098 83.8743 113.388 84.747 113.568L89.2857 72.4288L122.989 72.8374L121.291 87.8106L121.317 87.8612C122.598 87.8527 122.943 88.0495 123.999 88.1966L124.631 82.3704C124.874 80.4411 125.05 78.5156 125.311 76.6013C125.439 75.669 125.505 74.6683 125.623 73.7153C125.849 71.8657 126.089 70.0264 123.183 70.0086L107.223 69.8362C104.388 69.8259 96.8895 69.8718 94.5021 69.6788C91.1238 69.9308 88.4111 68.7202 87.0135 70.6467C86.6217 71.1873 86.333 74.3909 86.3086 75.0871L84.9194 87.4723C84.8773 88.3503 84.7479 89.6471 84.5829 90.5007C84.4011 91.4442 84.4011 92.7111 84.283 93.6949C83.8583 97.2321 83.1225 102.699 82.921 106.108L82.1655 112.247H82.1664Z" fill="#33667B"/>
<path fill-rule="evenodd" clip-rule="evenodd" d="M186.191 49.584V47.8852C185.916 48.0651 185.753 48.2038 185.526 48.4202C185.258 48.6769 185.178 48.6835 184.879 48.9618C184.225 49.5727 182.888 50.669 182.431 51.2799C182.139 51.6707 181.552 51.7718 180.767 52.0829C178.409 53.019 176.076 53.8192 173.777 54.8058C168.493 57.0734 165.891 59.0879 163.478 63.8413C161.758 67.2257 159.382 74.0077 158.095 77.7866C157.748 78.8089 154.366 88.1029 154.306 88.5799C154.214 89.3276 154.748 89.619 155.293 89.9647C155.693 90.2196 156.418 90.7153 156.882 90.8399C156.954 90.6141 155.983 90.1652 155.795 90.0491L155.033 89.5215C155.018 89.5084 154.996 89.4887 154.981 89.4747L154.878 89.3801C154.62 89.1299 154.805 89.441 154.607 89.0521C154.315 88.4777 155.221 86.4978 155.489 85.7707C155.868 84.7419 156.247 83.6316 156.589 82.614C156.983 81.4446 157.345 80.5479 157.733 79.4029L161.146 69.8315C161.555 68.7287 161.985 67.8123 162.393 66.7188C163.188 64.5881 164.211 62.6991 165.346 61.0519C165.546 60.7604 166.093 59.9893 166.279 59.7991C166.532 59.5414 166.628 59.5039 166.833 59.2631C169.282 56.395 175.528 54.3448 178.938 52.9422C179.536 52.6967 181.762 51.8084 182.194 51.77C182.188 52.691 180.764 57.5887 180.622 59.0392C180.541 59.8591 181.138 60.1186 181.83 59.7953C182.647 59.4149 185.208 57.0378 185.836 57.2711C186.912 58.1725 187.218 59.533 188.4 60.4381C188.992 60.8907 188.819 61.079 188.522 62.6119C188.171 64.4278 187.544 68.6303 187.438 70.2532C187.308 72.2133 186.424 74.0021 189.311 73.8456C190.895 73.7603 190.676 71.9332 190.851 69.6197C190.937 68.4897 191.316 62.6476 191.74 61.7677C191.912 61.4107 192.929 60.723 193.273 60.4278C193.639 60.113 196.308 57.8305 196.542 57.8426C196.861 57.9794 197.393 58.4095 197.584 58.5932L199.985 60.6518C200.262 60.8588 200.228 60.8776 200.455 61.0725C202.025 62.4217 202.828 61.109 203.287 60.5215L204.413 58.8705C205.86 56.543 206.456 55.3118 207.685 53.2233L209.384 49.4856C209.875 49.5071 210.392 49.821 210.928 49.9972L215.443 51.5413C217.498 52.3369 219.509 52.9628 221.347 53.7517L222.758 54.3233C223.236 54.5285 223.712 54.7224 224.215 54.9558C226.377 55.9621 227.488 56.5009 229.414 57.8811C229.833 58.1809 230.048 58.4011 230.531 58.7337C230.8 58.9193 231.359 59.6585 231.514 59.6182C231.062 58.3627 226.762 55.9583 225.296 55.264C221.755 53.5859 217.641 52.0651 213.837 50.7646C213.07 50.5022 210.338 49.6908 209.864 49.3881C208.711 48.6535 207.536 46.3916 206.892 45.7179C206.578 45.39 206.518 45.5043 206.176 45.048C205.938 44.7303 205.111 44.0791 204.474 44.0894C204.497 44.7762 204.741 45.0873 204.569 45.7526C204.279 46.8685 202.969 48.7538 202.342 49.2794L199.884 51.6763C198.963 52.7013 198.846 52.498 198.364 53.0302C197.949 53.4884 197.696 53.5831 197.314 53.9635C197.004 54.2736 196.649 54.6672 196.388 54.9173C196.106 55.1891 195.621 55.4805 195.264 55.7766C194.74 56.2132 190.485 59.7991 189.875 59.934C189.214 58.3036 188.284 56.8869 187.6 55.1956L186.195 49.5849L186.191 49.584Z" fill="#27406B"/>
<path fill-rule="evenodd" clip-rule="evenodd" d="M128.542 25.1471C127.764 26.8993 125.274 26.0035 126.125 24.3141C126.353 23.8606 127.051 23.0351 127.82 23.2694C128.398 23.4455 128.906 24.3263 128.542 25.1471H128.542ZM119.239 13.4543C119.091 12.85 119.451 12.1763 120.071 12.5005C120.421 12.6841 120.794 13.355 121.037 13.7148L125.97 21.7702C126.095 22.1412 125.952 24.0986 124.197 21.46L120.841 16.1932C120.562 15.749 119.33 13.8244 119.239 13.4543ZM114.834 0.196777C113.604 -0.380413 111.276 0.885469 110.225 2.58986C108.018 6.16638 109.586 10.128 113.222 12.0245C116.387 13.6755 115.561 12.0104 117.452 15.1147C119.683 18.7793 122.035 22.7849 124.367 26.338C124.838 27.0567 125.428 27.7164 126.435 27.9618C127.448 28.2083 128.617 27.7669 129.298 27.3003C131.086 26.0757 130.795 23.9571 129.595 22.2134C128.492 20.6092 127.785 19.7669 126.638 17.9369C125.755 16.5277 124.571 14.857 123.804 13.5368C123.367 12.7844 122.834 12.077 122.369 11.3049C121.535 9.92092 121.135 9.91343 121.718 8.9174C123.471 5.92932 123.21 3.50156 120.774 1.09723C120.486 0.81332 120.109 0.547214 119.644 0.418845C118.89 0.209895 118.936 0.65122 118.771 1.32679C117.976 4.58192 118.684 6.68173 117.043 6.81946C116.108 6.89817 114.618 6.65455 114.077 6.11016C112.975 4.99982 115.155 1.28557 114.834 0.199588L114.834 0.196777Z" fill="#8D98AF"/>
<path fill-rule="evenodd" clip-rule="evenodd" d="M16.2363 11.4866C16.4725 11.8108 16.4032 12.7075 16.3254 13.1489C16.5475 14.3295 16.1004 15.2927 16.9768 16.2644C17.6789 17.043 19.0072 16.7882 20.2867 16.8013C22.8307 16.8275 25.3756 16.8425 27.9196 16.8322C30.8892 16.82 34.4493 16.8622 37.3729 16.7675C37.6785 16.7582 37.8641 16.7591 38.1219 16.6204C39.3339 15.9692 39.1989 14.0634 39.1651 12.76C39.1361 11.6356 39.3742 10.2498 38.8061 9.31655C38.1378 8.21745 37.4629 8.32802 35.95 8.31584C33.4088 8.29522 30.8592 8.3149 28.317 8.31584C25.7749 8.31677 23.2253 8.30553 20.6841 8.31959C19.639 8.32521 18.0042 8.11345 17.2646 8.64472C16.017 9.54143 16.7116 10.7633 16.2373 11.4848L16.2363 11.4866Z" fill="#8D98AF"/>
<path fill-rule="evenodd" clip-rule="evenodd" d="M248.696 85.4578C248.568 86.7386 248.82 85.7239 248.197 86.6974C246.611 89.1767 245.038 92.2379 243.497 94.7837C243.198 95.2775 242.843 96.1049 243.369 96.5565C243.671 96.816 244.802 97.1983 245.275 97.2049L246.989 94.9776C246.82 95.7179 246.337 96.6924 246.28 97.4288C247.458 97.8289 254.12 99.6223 255.086 99.225C255.412 98.5392 255.158 97.1327 255.323 96.7148C255.569 97.0728 255.856 98.304 256.042 98.8371C256.38 99.8022 256.895 99.7526 257.999 99.8004C260.188 99.895 259.366 98.3536 258.994 96.0083C258.743 94.4248 258.31 92.8244 258.012 91.2381L257.205 87.6738C257.203 87.1565 257.503 87.0703 257.381 86.3816C257.396 85.5027 257.285 85.7304 257.253 85.4924C257.246 85.4353 257.224 85.4278 257.218 85.3959L257.207 86.6299C256.772 86.8586 255.679 86.4276 255.159 86.317C254.441 86.1643 253.711 86.0649 253.02 85.9057C252.319 85.7445 251.603 85.588 250.88 85.4475C250.513 85.3762 250.185 85.3275 249.776 85.2535C248.435 85.0118 248.761 85.3004 248.697 85.4587L248.696 85.4578Z" fill="#8D98AF"/>
<path fill-rule="evenodd" clip-rule="evenodd" d="M75.818 53.7255C75.4506 53.8042 75.7215 53.629 75.5527 53.8819L75.7402 56.9909C75.9258 57.4453 75.7964 58.0347 76.1489 58.2971C76.3279 58.4301 77.239 58.7028 77.5193 58.8152C78.2711 59.1169 79.5047 59.6098 80.2911 59.7241C81.2866 59.9153 82.2089 60.2685 83.1519 60.6105C83.7322 60.8213 85.5628 61.6506 85.9162 61.6946L86.7955 61.1137C86.9614 61.0031 87.1207 60.9057 87.2688 60.7885C93.9991 55.4823 89.166 45.4612 88.9448 43.4794C88.4171 43.724 88.9026 43.3857 88.7433 43.6968C88.6299 43.9179 88.6505 44.303 88.523 44.7125C87.925 46.6287 87.2669 48.1194 86.1562 49.7704L84.8439 51.4261C84.5439 51.7166 84.3264 51.799 84.004 52.0707C83.6815 52.3434 83.5203 52.4549 83.1463 52.6966C82.5614 53.0752 81.893 53.4163 81.1469 53.6655C79.6931 54.1518 77.3093 54.2005 75.8208 53.7245L75.818 53.7255Z" fill="#030229"/>
<path fill-rule="evenodd" clip-rule="evenodd" d="M89.1308 140.216C90.4656 139.916 90.206 138.912 90.1347 138.263C90.0316 137.332 89.9632 136.401 89.8591 135.465C89.667 133.748 89.3361 131.86 88.9171 130.261C89.7129 130.243 90.6118 130.589 91.3814 130.659C91.8688 130.704 92.1191 130.584 92.3619 130.289C92.5719 130.035 92.7312 129.603 92.7256 129.215C92.4997 128.974 92.6469 129.135 92.5437 129.351C91.8538 130.8 92.0751 130.548 90.2228 130.197C89.4458 130.05 88.9799 130.179 88.3612 130.132C87.7782 130.088 87.1445 129.929 86.5484 129.827C84.0794 129.405 81.5607 129.163 79.1057 128.75C76.7164 128.347 74.2371 127.895 71.8215 127.511C69.4162 127.129 67.0972 126.561 64.7041 126.112C61.2312 125.462 51.5229 122.658 48.498 121.012C46.6355 119.999 45.2707 118.53 44.2096 116.772C43.4522 115.518 43.2132 114.385 42.2946 114.466C41.8306 115.323 42.7108 116.622 43.1354 117.256C44.2574 118.929 45.0082 120.48 46.8886 121.626C50.938 124.094 57.0852 125.715 61.6164 126.935C67.5162 128.524 75.6825 129.944 81.9038 130.757L88.9199 131.69C89.3417 132.777 89.8713 136.963 89.9285 138.464C89.9951 140.2 89.4064 139.42 89.1317 140.216H89.1308Z" fill="#DE7D63"/>
<path fill-rule="evenodd" clip-rule="evenodd" d="M16.1087 12.8603L16.1555 11.7237C12.917 12.1125 13.2422 12.5848 13.2478 15.8334C13.2497 16.8135 13.1878 18.293 13.4091 19.1484C13.9696 21.312 16.0993 21.2942 17.8418 21.58C19.8853 21.9145 25.786 22.3905 26.8686 23.0107C27.3879 27.5093 25.1964 24.2007 25.3098 27.3275C25.3867 29.4498 25.1814 35.3276 25.3998 36.08C25.6004 36.7705 26.415 37.522 27.1527 37.686C28.3075 37.9418 28.9027 37.1641 29.3405 36.6881C29.9976 35.9741 29.6357 31.6742 29.6714 30.3999C29.7014 29.3224 29.7388 28.1998 29.7257 27.1251C29.7088 25.7262 29.0283 25.9726 28.165 25.4066C27.7366 22.7437 28.7265 21.9126 25.5048 21.4225L16.8782 20.271C15.969 20.1632 14.8301 20.0601 14.5714 19.2431C14.3727 18.6144 14.1496 13.89 14.3942 13.1976L16.1068 12.8612L16.1087 12.8603Z" fill="#27406B"/>
<path fill-rule="evenodd" clip-rule="evenodd" d="M110.204 98.72C111.012 98.4024 113.479 95.582 114.107 95.3197C114.662 95.0882 115.167 95.4508 115.133 96.0299C115.101 96.5818 114.157 97.2236 113.475 97.962L110.628 100.571C109.816 101.087 109.174 99.9372 108.586 99.2935C108.335 99.0189 107.856 98.5879 107.748 98.245C107.588 97.7399 107.963 97.2639 108.318 97.1618C109.051 96.951 109.798 98.349 110.204 98.72ZM116.415 98.0191C116.833 96.4975 116.391 94.5204 115.536 93.6378C111.978 89.9657 106.766 92.9406 106.041 96.981C104.754 104.154 114.391 105.401 116.415 98.0191Z" fill="#8D98AF"/>
<path fill-rule="evenodd" clip-rule="evenodd" d="M252.457 81.8269C252.635 82.2607 252.406 81.8972 252.757 81.9431C252.766 81.944 253.066 81.9403 253.127 81.944C253.56 81.9647 254.71 82.3076 255.027 82.4913L255.221 82.242C256.203 77.7257 257 73.0454 257.856 68.4897L259.841 58.194C260.097 56.9066 260.223 55.4205 258.793 55.3493C257.388 55.279 257.347 56.5046 257.099 57.7611L253.204 78.4369C253.101 78.9719 252.723 81.6152 252.457 81.8279V81.8269Z" fill="#8D98AF"/>
<path fill-rule="evenodd" clip-rule="evenodd" d="M82.1292 112.888L82.1667 112.247C81.6071 111.86 79.9264 111.675 79.0687 111.46C78.0123 111.196 76.9456 110.873 75.9164 110.632C71.9504 109.704 67.5092 108.309 63.6519 107.047C62.6921 106.733 61.6094 106.372 60.7976 105.938C59.7009 105.351 59.6466 104.832 59.2557 103.512C58.0549 99.4612 57.1551 95.0882 56.0733 90.9242L53.7149 81.4081C53.5237 80.6266 53.1375 78.5784 52.1974 79.1509C51.843 79.5538 54.8032 90.7584 55.151 91.9746C55.7303 93.9994 56.1802 96.2595 56.7267 98.3096C57.2825 100.393 57.724 102.684 58.4027 104.662C59.2388 107.101 60.5221 107.23 62.9601 108.039C64.9764 108.709 67.0274 109.346 69.0774 109.945C71.4592 110.642 79.9686 113.122 81.8677 112.974L82.0008 112.365C81.983 112.488 81.9539 112.514 81.9942 112.646C82.0533 112.838 82.0495 112.782 82.1283 112.887L82.1292 112.888Z" fill="#DE7D63"/>
<path fill-rule="evenodd" clip-rule="evenodd" d="M60.3561 46.7524C60.1564 48.3799 60.0618 50.0581 59.8677 51.7006C59.6934 53.1801 59.3362 54.8817 58.9744 56.2863C58.5685 57.8604 58.757 57.5569 55.8793 58.551C55.1275 58.8106 54.4367 58.9905 53.6924 59.1619L52.6041 59.459C50.9178 59.9603 49.3102 60.2339 47.3558 60.9469C46.5178 61.2524 46.1391 61.5353 45.1765 61.095L41.757 59.1713C40.9574 58.5997 39.6882 57.1361 39.2486 56.2451C38.165 54.0497 37.8725 51.9714 38.4106 49.4949C38.7058 48.1335 39.3358 46.5978 39.9263 45.5652L41.4795 43.0559C41.6623 42.8029 41.8563 42.5584 42.0185 42.3129C42.2528 41.9587 42.3147 41.8519 42.595 41.4921C44.2888 39.3154 44.8212 38.1713 45.9676 35.4391C46.8909 33.2381 47.7589 29.4526 48.2969 26.9752C49.193 22.8533 50.4229 19.5251 52.83 16.4602L53.4121 15.7518C53.7364 15.3264 53.8321 15.437 54.162 15.1147L55.4649 13.7392C56.0302 13.3475 55.7836 13.4187 56.1623 13.1517C58.5864 11.4435 60.0655 10.322 63.1616 9.35778C69.8019 7.2889 76.8012 9.06919 81.966 13.132C84.586 15.1934 83.2005 13.8432 85.6358 14.8308C86.695 15.2599 86.9641 15.5195 87.7692 16.0564C88.0148 16.2203 87.9473 16.1341 88.1732 16.3459C88.4245 16.5811 88.6194 16.8003 88.8463 17.058C88.9888 17.2201 89.0628 17.2829 89.1875 17.4075C91.2553 19.4745 92.4354 24.0021 91.5618 27.26C91.2975 28.2467 90.5626 29.804 89.8342 30.5798C89.6449 30.7813 89.9177 30.5723 89.6327 30.7503C89.2662 26.5957 88.5023 23.022 86.0604 19.7463C85.6086 19.14 84.4107 17.7439 83.4302 17.6371L80.6884 21.5125C80.0585 22.3071 79.8607 22.264 79.573 22.5788C79.3649 22.8065 79.482 22.8018 79.0274 23.2244L77.8182 24.1942C77.2342 24.7451 75.3295 26.0148 74.6209 26.4467C72.1753 27.9365 68.4427 29.8349 65.5491 30.6594C64.9323 30.8347 64.4374 30.9049 64.2893 31.5815C64.1627 32.1577 64.1665 32.9504 63.7034 33.2043C63.32 32.9851 62.7801 31.9244 61.9862 31.321C59.1263 29.1434 56.2205 31.246 55.4237 33.4142C54.507 35.9076 55.8155 39.3276 57.9714 40.7884C59.01 41.4921 59.4159 41.3393 60.6026 41.6129L60.3542 46.7533L60.3561 46.7524ZM45.812 61.6225C46.4841 61.466 47.2827 61.1146 48.0073 60.8823C48.8069 60.6265 49.508 60.4391 50.3095 60.2048C51.8823 59.7457 53.4637 59.4243 55.0703 59.0158C55.7649 58.7928 56.5195 58.566 57.2272 58.3074C58.0811 57.9954 58.7532 57.9476 58.9857 57.093C59.43 55.4636 59.7112 53.9138 59.999 52.1748C60.2661 50.5584 61.1322 42.6193 60.9026 41.3328C58.7476 41.5783 57.2441 40.199 56.4942 38.9922C55.6149 37.5773 54.94 35.3051 55.6243 33.4226C56.4154 31.2451 59.5228 29.3017 62.1493 31.6592C62.8851 32.3198 63.2066 33.388 63.9256 33.4648C64.3521 32.9017 64.4542 31.8841 64.5798 31.1692C65.5181 30.8253 66.5717 30.5657 67.5503 30.1797C72.1003 28.3872 76.5846 25.877 80.0332 22.5441C80.664 21.9351 81.2461 21.0918 81.8592 20.3066C82.7131 19.2131 82.9259 18.5019 83.4321 17.7917C85.1174 18.1787 87.0025 21.2801 87.8133 23.2469C88.5088 24.9335 89.0309 27.2413 89.2868 29.1125C89.3853 29.8321 89.3853 30.7091 89.4977 31.3781C89.9842 30.9818 90.9356 29.5735 91.289 28.8379C91.8318 27.7088 92.0614 26.5938 92.112 25.1471C92.2067 22.412 91.3443 19.9889 90.1708 18.2124C87.6221 14.3538 83.9532 14.2161 83.4236 13.9556C83.2062 13.8488 83.0562 13.653 82.819 13.4721C81.4824 12.4508 81.1758 12.1603 79.5523 11.1868C75.9744 9.04108 70.2781 7.46036 65.221 8.52198C61.9252 9.21348 58.7195 10.7886 56.2579 12.7469C55.4143 13.4187 54.5894 14.1224 53.9117 14.8617C50.3001 18.7952 49.4733 21.2642 48.0973 26.6941C46.8553 31.5936 45.8532 36.2346 43.5295 39.7661C42.3512 41.5576 41.2845 42.5471 39.9422 44.9936C37.5248 49.4003 36.7599 54.1752 40.3237 58.2287C40.9152 58.9024 41.8348 59.667 42.7862 60.2235C43.2202 60.4775 43.7057 60.7295 44.2307 60.9638C44.7284 61.1849 45.3696 61.3985 45.8092 61.6244L45.812 61.6225Z" fill="#160A13"/>
<path fill-rule="evenodd" clip-rule="evenodd" d="M118.706 94.08C118.839 94.2777 118.8 94.1999 118.841 94.5026C119.335 94.2093 121.685 95.0582 122.201 95.1913C122.835 95.3553 125.21 95.91 125.627 96.1058C126.867 95.6439 126.988 94.5401 126.557 93.5319C126.342 93.0268 126.296 93.0915 125.964 92.8582C126.019 91.6523 126.272 92.2988 126.522 91.4977C126.696 90.9392 126.639 90.2477 126.387 89.7389C125.824 88.6042 125.181 88.7345 123.998 88.1957C122.942 88.0486 122.597 87.8518 121.317 87.8602C120.693 88.1591 119.731 88.0645 119.287 89.1411C119.107 89.5787 119.045 90.2271 119.433 90.5241C119.658 90.6965 122.834 91.4752 123.32 91.6054C123.787 91.73 125.557 92.0308 125.926 92.3325L125.844 92.8544C124.169 92.5677 122.258 92.0046 120.581 91.5614C119.4 91.2493 118.82 90.8774 118.318 91.9343C117.623 93.3951 118.77 93.8776 118.706 94.08Z" fill="#FFD0BF"/>
<path fill-rule="evenodd" clip-rule="evenodd" d="M125.555 133.277L125.664 132.975C125.776 131.898 123.456 129.722 122.962 129.316C122.644 129.053 122.45 128.792 122.137 128.556L120.461 127.06C120.274 126.909 120.197 126.888 120.016 126.71L117.119 124.159C115.236 122.623 114.764 120.865 112.388 122.361C111.028 123.219 110.097 124.105 108.563 124.874C106.193 126.063 104.777 124.83 105.625 123.032L107.013 121.252C107.839 120.373 108.918 119.464 109.849 118.636C111.305 117.34 111.836 117.892 111.576 116.635L110.728 116.563L108.006 118.779C107.649 119.045 107.567 119.28 107.23 119.587C106.916 119.876 106.679 120.112 106.379 120.423C106.226 120.582 106.152 120.682 105.999 120.837L105.23 121.655C104.347 122.764 103.454 124.008 104.701 125.666C105.282 126.437 106.05 126.57 107.099 126.507C108.754 126.406 111.087 124.656 112.38 123.651C112.528 123.536 112.685 123.43 112.85 123.326C113.785 122.731 113.741 122.658 114.429 123.278C115.198 123.968 115.068 123.667 115.702 124.488C115.843 124.671 115.94 124.73 116.109 124.869C116.284 125.012 116.368 125.079 116.554 125.22C116.809 125.415 116.739 125.375 116.966 125.605L118.675 127.064C119.262 127.449 118.877 127.336 119.58 127.845C119.853 128.041 119.763 128.011 119.992 128.226C120.168 128.391 120.271 128.417 120.451 128.562C120.716 128.776 120.642 128.805 120.877 129.022C121.033 129.168 121.165 129.222 121.337 129.361C121.686 129.643 121.429 129.548 122.176 130.107L123.826 131.727C124.637 132.605 125.032 133.398 125.556 133.279L125.555 133.277Z" fill="#276D8E"/>
<path fill-rule="evenodd" clip-rule="evenodd" d="M97.0429 130.58C96.488 131.03 96.2752 132.276 96.5011 133.095C96.8067 132.796 97.774 130.432 98.9138 130.106C99.75 129.867 100.857 130.218 101.032 131.327C101.163 132.149 100.659 132.574 99.885 133.651C99.5091 134.175 99.421 134.383 99.5409 135.18L99.5306 135.336C99.8596 135.268 99.78 135.299 99.9853 135.137L101.386 133.164C101.796 132.598 102.516 131.273 103.771 131.852C104.634 132.249 105.01 133.629 104.295 134.493L102.698 136.646L102.825 136.873L102.945 137.656C103.186 137.595 103.311 137.446 103.52 137.183L104.717 135.506C105.37 134.658 105.521 133.746 106.901 133.987C108.011 134.181 108.035 135.499 107.566 136.377C107.308 136.86 106.549 138.549 106.303 138.846C106.329 139.372 106.285 139.4 106.523 139.793C107.008 139.596 107.597 138.465 107.931 137.731C108.288 136.949 108.644 136.016 109.699 136.096C110.687 136.17 111.187 137.074 111.085 138.111C110.974 139.236 110.14 139.867 110.207 140.586L110.601 140.968L110.682 140.868C111.861 139.474 111.963 138.469 112.237 138.347C113.266 138.197 114.371 139.832 115.14 139.745L115.282 139.581L115.419 139.323C114.403 138.02 113.732 137.685 112.179 137.22C111.824 136.394 111.548 135.29 110.146 135.087L108.96 135.06C108.426 132.543 107.072 133.052 105.683 133.106C105.102 131.284 104.256 130.096 102.067 131.112C101.975 130.989 102.038 131.08 101.945 130.905C100.677 128.501 98.6551 128.467 97.1497 130.446L97.0419 130.58H97.0429Z" fill="#276D8E"/>
<path fill-rule="evenodd" clip-rule="evenodd" d="M119.23 102.386L117.729 116.192C118.212 116.209 118.733 116.199 119.211 116.248C119.666 116.295 119.946 116.441 120.418 116.46L121.887 103.146C121.269 102.819 120.204 102.644 119.418 102.234C119.288 102.318 119.304 102.177 119.231 102.386H119.23Z" fill="#33667B"/>
<path fill-rule="evenodd" clip-rule="evenodd" d="M192.331 183H192.462L194.233 168.567C194.473 167.514 193.33 160.597 193.048 158.648C192.826 157.114 192.928 156.513 192.108 155.72C191.105 154.75 188.919 153.179 187.956 152.243C187.621 151.918 187.225 151.729 186.895 151.419C186.533 151.081 186.369 150.833 185.939 150.493C185.012 149.758 184.4 148.87 183.666 148.935C182.922 150.105 184.488 150.644 185.89 152.029C186.908 153.036 189.004 154.718 190.099 155.649C190.957 156.378 191.604 156.669 191.745 157.665C191.965 159.213 193.134 168.066 193.405 168.893C193.528 169.269 193.72 169.579 193.717 170.019C193.7 172.353 192.034 181.6 192.332 183H192.331Z" fill="#283C5D"/>
<path fill-rule="evenodd" clip-rule="evenodd" d="M192.461 183H196.619L194.233 168.567L192.461 183Z" fill="#FFFDF6"/>
<path fill-rule="evenodd" clip-rule="evenodd" d="M92.7271 77.7304C92.3652 78.1024 92.6586 78.6458 93.2032 78.6992C93.6766 78.7451 94.3909 78.7123 94.8924 78.7189L111.248 78.8876C112.569 78.8894 116.907 79.0731 117.821 78.8229C118.281 77.438 116.748 77.7875 115.61 77.781C112.189 77.7604 93.0486 77.3996 92.7271 77.7294V77.7304Z" fill="#8D98AF"/>
<path fill-rule="evenodd" clip-rule="evenodd" d="M92.6051 85.7661C91.9705 85.7914 91.7578 85.9347 91.7334 86.54C92.2536 87.0104 92.2949 86.8961 93.1057 86.9073L114.989 87.1772C115.976 87.1987 117.404 87.4255 116.816 86.1202C115.796 85.856 111.752 85.9881 110.355 85.9647C108.289 85.93 106.117 85.9066 104.007 85.8776C101.828 85.8476 99.6494 85.8438 97.47 85.8204L92.6061 85.7661H92.6051Z" fill="#8D98AF"/>
<path fill-rule="evenodd" clip-rule="evenodd" d="M104.706 82.8426C106.001 82.8548 117.079 83.1116 117.391 82.7611C117.6 82.1708 117.516 81.8738 116.808 81.8232C116.321 81.7885 115.64 81.7923 115.149 81.8101C111.676 81.9356 93.5889 81.3341 92.2654 81.7126C92.1529 82.034 92.0938 82.1033 92.1932 82.4856C92.9272 82.8951 102.895 82.8258 104.706 82.8426Z" fill="#8D98AF"/>
<path fill-rule="evenodd" clip-rule="evenodd" d="M186.231 46.1555L186.191 47.8852V49.5839L186.273 49.3834C187.54 49.2682 188.963 48.7013 190.115 48.171C191.086 47.724 192.505 46.9341 193.314 46.3035L193.988 45.7882C194.004 45.776 194.026 45.7563 194.042 45.7432L195.44 44.5663C195.642 44.3171 195.443 44.4923 195.723 44.2524C196.218 43.8289 197.364 42.7383 197.653 42.311C198.201 41.5042 198.361 41.7057 198.323 41.2016C197.926 41.1388 197.82 41.2662 197.516 41.4789C196.095 42.4731 194.522 43.5422 192.845 44.2318C190.171 45.3319 190.586 45.1819 187.993 45.8097C186.861 46.0833 186.505 45.7891 186.229 46.1564L186.231 46.1555Z" fill="#276D8E"/>
<path fill-rule="evenodd" clip-rule="evenodd" d="M248.696 85.4578C248.76 85.2994 248.435 85.0108 249.775 85.2526C250.185 85.3266 250.512 85.3753 250.879 85.4465C251.603 85.5871 252.318 85.7436 253.019 85.9047C253.71 86.064 254.44 86.1643 255.158 86.3161C255.679 86.4266 256.773 86.8567 257.207 86.629L257.218 85.395C257.223 85.4269 257.245 85.4344 257.252 85.4915C257.285 85.7295 257.395 85.5018 257.38 86.3807C257.793 85.6986 257.231 84.4383 256.844 83.8799C256.644 83.5922 256.295 83.2558 256.078 83.0506C255.727 82.7171 255.353 82.7339 255.219 82.242L255.025 82.4913C254.708 82.3076 253.558 81.9647 253.125 81.944C253.064 81.9412 252.764 81.945 252.755 81.9431C252.405 81.8972 252.633 82.2617 252.455 81.8269C251.306 81.9684 250.721 82.0265 249.857 82.9007C249.436 83.3261 249.39 83.3167 249.075 83.9155C248.809 84.4215 248.763 84.8487 248.695 85.4568L248.696 85.4578Z" fill="#697391"/>
<path fill-rule="evenodd" clip-rule="evenodd" d="M168.019 95.0048L168.78 95.1969C169.01 94.6235 168.744 79.1499 168.771 76.1796C168.781 75.1105 168.817 74.0714 168.849 73.0051C168.862 72.561 169.263 70.0901 168.38 70.3515C167.479 71.0627 167.719 74.732 167.712 76.1562C167.702 78.2935 167.639 80.4542 167.648 82.6215L167.845 92.2304C167.864 92.7617 167.897 93.2883 167.924 93.8186C168.001 95.2887 168.345 94.5251 168.019 95.0067V95.0048Z" fill="#27406B"/>
<path fill-rule="evenodd" clip-rule="evenodd" d="M124.573 100.076C124.776 99.5895 124.738 100.044 125.424 99.5258C126.431 98.7631 126.397 97.397 125.637 96.3934L125.607 96.7064C124.326 96.5415 121.747 95.7947 120.305 95.4124C119.679 95.2466 119.051 94.9561 118.547 94.8437C118.108 95.4077 117.54 95.8556 117.784 97.2911C117.955 98.2965 118.74 98.244 119.78 98.5092C120.815 98.7725 123.886 99.6008 124.573 100.076H124.573Z" fill="#FFD0BF"/>
<path fill-rule="evenodd" clip-rule="evenodd" d="M65.2263 169.504C65.0511 170.406 65.6088 175.066 65.7522 176.268C65.9978 178.342 66.3793 180.864 66.4571 182.901C66.7852 182.786 66.6877 182.963 66.7224 182.417C66.7617 181.802 65.3829 171.379 65.5479 170.216C65.6332 169.615 65.6856 169.873 65.8947 169.447C66.1665 168.894 67.7282 159.578 67.91 158.657C68.4106 156.12 68.4321 157.101 71.5404 155.259C71.9828 154.997 72.6577 154.552 72.1628 153.933C71.6529 153.695 70.6002 154.451 70.0997 154.709C67.8566 155.866 67.2585 155.8 66.9445 157.31C66.7786 158.107 66.6155 158.936 66.4777 159.72C66.1937 161.336 65.9397 162.991 65.6547 164.613C65.2479 166.925 64.8083 167.612 65.2273 169.503L65.2263 169.504Z" fill="#283C5D"/>
<path fill-rule="evenodd" clip-rule="evenodd" d="M62.9111 183H66.4628L66.4562 182.901C66.3784 180.864 65.9978 178.342 65.7513 176.268C65.6088 175.065 65.0511 170.406 65.2254 169.503C64.9583 169.656 65.1458 169.385 64.9958 169.796L64.5505 172.826C64.3612 173.959 64.1953 175.098 63.9956 176.232L62.9102 183H62.9111Z" fill="#FFFDF6"/>
<path fill-rule="evenodd" clip-rule="evenodd" d="M226.093 58.4179C225.456 58.2437 225.299 58.3964 224.781 58.7281C224.392 58.9764 224.025 59.2462 223.66 59.4889C222.144 60.4962 221.53 61.1408 220.314 62.492C220.146 62.6803 220.083 62.8143 219.894 63.0598C218.117 65.3601 217.159 67.8638 216.652 70.8238C216.488 71.7786 215.991 77.2094 216.555 77.7819C217.575 78.8191 217.291 75.5031 217.302 75.1864C217.411 71.8254 217.739 69.2543 219.299 66.2156C219.734 65.3676 221.064 63.0186 221.844 62.4264C221.999 62.3093 221.919 62.4067 222.125 62.2128C222.898 61.4885 222.387 61.5616 224.35 60.2807C225.458 59.5573 226.269 59.2425 226.094 58.4161L226.093 58.4179Z" fill="#27406B"/>
<path fill-rule="evenodd" clip-rule="evenodd" d="M75.7392 56.9909L75.5517 53.8819C75.7205 53.629 75.4505 53.8042 75.817 53.7255C74.9425 53.4256 74.2038 53.3076 73.2543 52.8503C71.3252 51.9208 69.5648 50.9295 67.8522 49.6392C67.5176 49.3872 67.1586 48.9449 66.7012 49.0386C66.719 49.3853 67.2092 50.1218 67.3929 50.3916C67.8916 51.1244 68.6621 52.1035 69.3033 52.646C69.8629 53.1202 70.0532 53.5231 70.3681 53.7601C71.732 54.7908 74.0238 56.6807 75.7392 56.9918V56.9909Z" fill="#276D8E"/>
<path fill-rule="evenodd" clip-rule="evenodd" d="M82.8033 45.2944C82.7387 45.4677 82.3562 45.8472 82.1734 45.9821C80.5827 47.1534 78.2028 46.5012 77.2532 45.6842C77.0751 45.5305 77.0957 45.5033 76.9148 45.3384C76.6477 45.0957 76.2381 44.675 76.2549 44.2375C76.5455 44.2375 77.3629 44.512 77.7547 44.5991C78.947 44.8643 81.5566 45.152 82.8043 45.2953L82.8033 45.2944ZM75.6653 42.9051C74.5574 43.2995 74.9707 45.8378 77.3741 47.0728C79.0239 47.9208 81.297 48.022 82.7649 46.8807C83.1652 46.5696 84.1513 45.7104 84.1325 44.7603C84.1147 43.8898 83.4136 44.4839 81.2923 44.111C80.339 43.9432 79.3126 43.7652 78.3134 43.6097C77.8606 43.5394 77.3798 43.5188 76.9476 43.3164C76.6196 43.1618 76.2634 42.6905 75.6653 42.9032V42.9051Z" fill="#276D8E"/>
<path fill-rule="evenodd" clip-rule="evenodd" d="M14.3959 13.1966C14.1512 13.8891 14.3743 18.6134 14.5731 19.2421C14.8308 20.0592 15.9697 20.1623 16.8799 20.27L25.5064 21.4216C28.7282 21.9116 27.7383 22.7428 28.1667 25.4057C29.03 25.9707 29.7105 25.7252 29.7274 27.1242C29.7396 28.1998 29.7021 29.3223 29.673 30.399C29.6383 31.6723 29.9992 35.9722 29.3421 36.6871C28.9044 37.1631 28.3082 37.9408 27.1543 37.685C26.4166 37.5211 25.6011 36.7705 25.4015 36.079C25.1831 35.3266 25.3883 29.4488 25.3115 27.3265C25.1981 24.1998 27.3896 27.5083 26.8703 23.0098C25.7877 22.3886 19.887 21.9135 17.8435 21.579C16.101 21.2932 13.9703 21.311 13.4107 19.1475C13.1895 18.292 13.2514 16.8125 13.2495 15.8324C13.2429 12.5848 12.9186 12.1116 16.1572 11.7227L16.1103 12.8593L14.3978 13.1957L14.3959 13.1966ZM16.3259 13.1479C16.4037 12.7075 16.4731 11.8099 16.2369 11.4857C12.987 11.5831 12.9777 12.3159 12.957 15.3358C12.9392 17.9538 12.6374 19.7313 14.4015 21.0243C15.7185 21.9894 24.6047 22.3567 26.6088 23.0885C26.6969 23.6395 26.7391 24.792 26.6013 25.3139C24.96 25.892 25.0556 26.0485 25.0931 27.9206C25.1184 29.1631 24.9871 35.5084 25.169 36.1174C25.9601 38.7729 29.463 38.2716 29.8783 36.1202C30.0264 35.3528 29.8539 32.9448 29.8558 31.9834C29.8577 30.6295 29.9083 29.268 29.9439 27.9243C29.9617 27.2666 30.0742 26.5713 29.7452 26.1C29.389 25.5893 28.6494 25.6175 28.3691 25.2567C27.967 24.3385 29.3852 21.8048 26.0464 21.2726C24.2026 20.9784 22.2529 20.6589 20.3894 20.4846C19.3761 20.39 15.4261 19.9477 14.9855 19.4464C14.5281 18.9264 14.4662 14.3791 14.5609 13.4553C15.0127 13.2182 15.7298 13.1779 16.3259 13.147V13.1479Z" fill="#07358A"/>
<path fill-rule="evenodd" clip-rule="evenodd" d="M119.231 102.386C119.303 102.177 119.287 102.318 119.418 102.234C120.205 102.644 121.269 102.819 121.887 103.146C122.905 103.239 123.647 103.331 124.377 102.742C125.286 102.008 124.625 101.151 124.58 100.384C124.307 100.635 124.326 100.586 123.88 100.468L118.873 99.0255C118.584 98.884 118.786 99.0377 118.589 98.8006C118.099 99.1604 117.62 99.8229 117.999 100.768C118.108 101.04 118.46 101.559 118.588 101.683C118.813 101.899 119.201 101.968 119.232 102.388L119.231 102.386Z" fill="#FFD0BF"/>
<path fill-rule="evenodd" clip-rule="evenodd" d="M118.656 137.773C118.901 137.259 119.117 137.717 119.811 137.738C120.63 137.765 121.529 137.356 121.999 136.729C122.355 136.256 122.178 135.938 122.581 135.671C122.672 135.431 122.678 135.888 122.588 135.456C122.542 135.237 122.112 134.72 121.962 134.576L119.286 132.194C118.536 131.597 116.034 129.027 115.347 129.583C114.851 129.984 115.382 130.396 115.645 130.589L120.721 134.826C121.191 135.181 121.323 135.49 122.126 135.893C122.092 136.702 121.692 136.93 121.206 137.239C120.541 137.663 119.44 138.006 118.864 137.078C118.17 135.962 117.101 135.257 116.087 134.402L114.869 133.44C114.136 132.826 112.975 131.679 112.179 131.789C111.638 132.631 112.554 132.899 113.299 133.53C114.882 134.871 116.579 136.039 118.138 137.406L118.657 137.773H118.656Z" fill="#276D8E"/>
<path fill-rule="evenodd" clip-rule="evenodd" d="M220.727 97.3005C220.897 96.9154 218.711 86.6609 218.347 84.71C218.213 83.9914 218.088 83.2577 217.961 82.5306C217.901 82.1848 217.83 81.7894 217.744 81.454C217.606 80.9208 217.521 80.8365 216.942 80.9321C216.553 81.8775 217.13 84.0279 217.341 85.1963C218.01 88.89 218.777 92.2772 219.545 95.8856C219.718 96.6952 219.816 97.367 220.726 97.3005H220.727Z" fill="#27406B"/>
<path fill-rule="evenodd" clip-rule="evenodd" d="M99.5322 135.336C99.7403 135.672 99.641 135.776 99.9494 136.159C100.146 136.403 100.336 136.598 100.642 136.769C101.629 137.319 101.992 136.862 102.826 136.871L102.7 136.644L104.297 134.491C105.011 133.628 104.635 132.248 103.773 131.85C102.517 131.272 101.798 132.596 101.387 133.162L99.9869 135.135C99.7816 135.298 99.8612 135.266 99.5322 135.334V135.336Z" fill="#FFD0BF"/>
<path fill-rule="evenodd" clip-rule="evenodd" d="M102.947 137.655C103.175 138.397 103.538 138.799 104.201 139.073C105.495 139.607 106.263 138.849 106.305 138.845C106.55 138.548 107.309 136.859 107.568 136.376C108.037 135.497 108.014 134.18 106.903 133.986C105.523 133.745 105.372 134.657 104.719 135.506L103.522 137.182C103.313 137.445 103.187 137.593 102.947 137.655Z" fill="#FFD0BF"/>
<path fill-rule="evenodd" clip-rule="evenodd" d="M222.933 130.833C223.094 130.489 223.045 129.793 223.065 129.403C223.089 128.903 223.104 128.407 223.116 127.905C223.142 126.879 223.247 125.933 223.29 124.934L223.86 112.759C223.92 111.754 223.908 107.71 223.532 106.912C223.069 110.816 222.732 114.537 222.72 118.493C222.713 120.575 222.716 122.654 222.721 124.736C222.726 126.626 222.734 128.988 222.934 130.835L222.933 130.833Z" fill="#FFFDF6"/>
<path fill-rule="evenodd" clip-rule="evenodd" d="M106.526 139.792C106.793 140.493 107.13 140.838 107.954 141.065C108.425 141.194 108.79 141.169 109.259 141.047C109.934 140.872 109.788 140.721 110.209 140.585C110.142 139.867 110.976 139.235 111.087 138.11C111.189 137.073 110.689 136.169 109.701 136.095C108.646 136.016 108.29 136.949 107.933 137.73C107.599 138.463 107.009 139.596 106.525 139.792H106.526Z" fill="#FFD0BF"/>
<path fill-rule="evenodd" clip-rule="evenodd" d="M110.204 98.72C109.799 98.349 109.052 96.951 108.318 97.1618C107.964 97.2639 107.588 97.7399 107.748 98.245C107.857 98.5879 108.336 99.0189 108.586 99.2935C109.175 99.9381 109.817 101.087 110.629 100.571L113.475 97.962C114.158 97.2237 115.102 96.5818 115.133 96.0299C115.167 95.4509 114.662 95.0882 114.107 95.3197C113.479 95.582 111.012 98.4024 110.204 98.72Z" fill="#FFFDF6"/>
<path fill-rule="evenodd" clip-rule="evenodd" d="M96.501 133.095C96.6941 133.653 97.0878 134.076 97.5358 134.329C98.3466 134.788 98.641 134.581 99.4621 134.44L99.5408 135.18C99.4209 134.383 99.508 134.175 99.8849 133.651C100.659 132.574 101.162 132.149 101.032 131.327C100.857 130.218 99.7508 129.867 98.9137 130.106C97.7739 130.432 96.8066 132.796 96.501 133.095Z" fill="#FFD0BF"/>
<path fill-rule="evenodd" clip-rule="evenodd" d="M100.839 91.5183C99.7397 91.508 98.6973 91.5286 97.5678 91.5051C96.7579 91.4883 91.5715 91.18 91.2397 91.6035C90.3764 92.7054 92.7976 92.5593 93.404 92.5621C95.1766 92.5724 102.511 92.8226 103.139 92.5021C103.435 91.2831 102.706 91.5361 100.839 91.5183Z" fill="#8D98AF"/>
<path fill-rule="evenodd" clip-rule="evenodd" d="M184.542 32.2982C184.139 32.2148 182.226 32.5081 181.927 31.2451C181.701 30.2874 182.258 29.1724 182.607 28.3582C182.981 27.4858 183.354 26.6913 183.647 25.7224C183.785 25.2661 183.919 24.6121 183.973 24.1529C184.068 23.3387 184.024 22.8974 183.144 23.0801C183.011 23.17 182.674 25.3598 182.235 26.5142C181.716 27.8756 180.046 30.9105 181.394 32.4557C181.399 32.4603 181.532 32.5868 181.549 32.6028C182.539 33.5313 185.44 33.6616 184.541 32.2982H184.542Z" fill="#276D8E"/>
<path fill-rule="evenodd" clip-rule="evenodd" d="M81.5333 40.5803C81.4358 40.8914 81.4021 40.8671 81.4161 41.2587C82.1932 41.6363 83.6649 41.567 84.3866 40.9711C86.0355 39.6087 84.8722 37.478 84.1776 35.7164C83.7511 34.637 83.5589 34.0457 83.4287 32.8342C83.3349 31.9647 82.6685 31.855 82.4304 32.3873C82.0657 33.2043 83.1006 36.0949 83.4455 36.8118C85.5771 41.2503 82.7575 40.094 81.5333 40.5794V40.5803Z" fill="#276D8E"/>
<path fill-rule="evenodd" clip-rule="evenodd" d="M223.475 169.137C224.179 169.108 223.993 169.057 224.538 168.905C224.598 168.402 224.93 168.008 225.14 167.69C226.038 166.329 226.349 165.514 226.945 163.941C227.283 163.049 228.855 158.943 228.512 158.271C227.869 157.926 227.728 158.43 227.55 159.009C226.606 162.068 225.982 164.829 224.098 167.645C223.773 168.131 223.518 168.435 223.476 169.138L223.475 169.137Z" fill="#276D8E"/>
<path fill-rule="evenodd" clip-rule="evenodd" d="M187.808 19.8578C188.166 20.0939 188.007 20.1979 188.521 20.2813C189.234 20.3975 190.176 20.1679 191.729 20.6486C192.404 20.8575 192.869 21.2707 193.319 21.4469C194.156 21.7739 195.896 20.8285 193.126 19.4333C191.974 18.8533 190.419 18.6265 189.125 18.7502C188.192 18.8392 187.785 18.8964 187.809 19.8578H187.808Z" fill="#030229"/>
<path fill-rule="evenodd" clip-rule="evenodd" d="M221.191 168.516C221.453 168.545 221.554 168.586 221.735 168.701C221.763 168.393 221.866 168.388 222.03 168.147C222.124 168.009 222.28 167.776 222.384 167.604C222.895 166.766 223.644 164.706 223.957 163.73C224.248 162.816 225.639 158.558 225.175 157.948C224.307 157.114 224.093 159.5 223.939 160.16C223.416 162.388 223.07 163.655 222.243 165.793C221.872 166.752 221.449 167.518 221.191 168.516Z" fill="#276D8E"/>
<path fill-rule="evenodd" clip-rule="evenodd" d="M118.841 94.5035C118.262 94.6375 117.694 95.6345 117.603 96.4478C117.475 97.5891 117.884 98.1381 118.807 98.3986L118.587 98.7987C118.785 99.0358 118.584 98.8821 118.871 99.0236L123.879 100.466C124.325 100.584 124.305 100.633 124.578 100.382L124.571 100.074C123.883 99.598 120.813 98.7706 119.778 98.5073C118.738 98.2431 117.953 98.2956 117.782 97.2892C117.538 95.8537 118.106 95.4059 118.545 94.8418C119.049 94.9533 119.677 95.2447 120.303 95.4105C121.745 95.7928 124.324 96.5396 125.605 96.7045L125.635 96.3916L125.625 96.1049C125.208 95.909 122.835 95.3543 122.199 95.1903C121.683 95.0573 119.334 94.2084 118.839 94.5017L118.841 94.5035Z" fill="#276D8E"/>
<path fill-rule="evenodd" clip-rule="evenodd" d="M110.604 140.967C111.009 141.699 112.562 141.741 113.398 141.518C113.69 141.44 114.364 141.049 114.512 140.937C114.872 140.667 115.005 140.306 115.142 139.744C114.374 139.831 113.268 138.196 112.239 138.346C111.966 138.468 111.863 139.473 110.685 140.867L110.604 140.967H110.604Z" fill="#FFD0BF"/>
<path fill-rule="evenodd" clip-rule="evenodd" d="M226.687 167.707C226.922 167.599 227.591 166.96 227.827 166.651C228.599 166.894 228.773 166.577 229.155 166.207C229.213 165.616 229.761 164.627 230.024 163.953C230.439 162.885 231.154 160.29 231.371 159.149C231.45 158.734 231.522 158.056 230.973 158.176C230.617 158.254 230.585 158.805 230.464 159.244C229.929 161.175 228.954 164.371 228.06 166.153C227.6 167.068 226.592 167.524 226.687 167.707Z" fill="#276D8E"/>
<path fill-rule="evenodd" clip-rule="evenodd" d="M181.614 36.928C183.609 38.3812 187.367 38.2547 189.202 36.7424C189.533 36.4698 189.718 36.3189 189.55 35.8092C188.769 35.5871 188.4 36.1624 187.719 36.4388C183.862 38.0036 182.989 35.7239 181.594 36.2749L181.614 36.9289V36.928Z" fill="#276D8E"/>
<path fill-rule="evenodd" clip-rule="evenodd" d="M82.8038 45.2944C81.5571 45.151 78.9465 44.8634 77.7542 44.5982C77.3633 44.5111 76.545 44.2365 76.2544 44.2365C76.2375 44.6741 76.6481 45.0948 76.9143 45.3375C77.0952 45.5024 77.0746 45.5296 77.2527 45.6832C78.2013 46.5003 80.5813 47.1534 82.1729 45.9812C82.3557 45.8463 82.7381 45.4668 82.8028 45.2934L82.8038 45.2944Z" fill="#FFFDF6"/>
<path fill-rule="evenodd" clip-rule="evenodd" d="M72.4883 29.7056C73.1932 31.0136 73.4163 29.8012 74.9995 29.1143C76.323 28.54 77.4854 29.075 78.6008 28.8389C78.7058 28.5971 78.7995 28.4341 78.7948 28.049C78.3327 27.7951 78.6786 27.6751 77.0907 27.5992C75.2957 27.5139 72.9785 28.1905 72.4883 29.7046V29.7056Z" fill="#030229"/>
<path fill-rule="evenodd" clip-rule="evenodd" d="M179.157 18.1309C175.928 18.649 176.827 20.2016 177.899 20.1285C179.003 20.0536 178.566 19.6479 180.983 19.7416C181.485 19.7612 182.079 19.7041 181.904 18.8121C181.724 17.8938 179.878 18.0147 179.157 18.1309Z" fill="#030229"/>
<path fill-rule="evenodd" clip-rule="evenodd" d="M85.2712 27.0333C84.8081 27.0717 83.2887 27.4278 83.1021 27.8934C82.9878 28.1783 83.1134 28.5353 83.3084 28.6468C83.6121 28.8201 85.6855 28.0771 86.7644 28.2804C87.2818 28.3779 87.7964 28.7367 88.2286 28.7911C89.3365 28.9279 89.3759 26.6922 85.2712 27.0333Z" fill="#030229"/>
<path fill-rule="evenodd" clip-rule="evenodd" d="M179.193 23.0079C177.5 23.4671 177.883 26.6735 179.678 26.3596C180.49 26.2171 180.818 25.2577 180.707 24.3516C180.618 23.6226 180.026 22.7821 179.193 23.0079Z" fill="#030229"/>
<path fill-rule="evenodd" clip-rule="evenodd" d="M85.9353 32.0649C84.3662 32.8417 85.1104 36.0059 86.8652 35.2282C87.7435 34.8394 88.0266 33.1622 87.1707 32.3114C87.1557 32.2964 87.1351 32.2767 87.1192 32.2626C86.7602 31.9291 86.4209 31.8241 85.9344 32.0649H85.9353Z" fill="#030229"/>
<path fill-rule="evenodd" clip-rule="evenodd" d="M189.699 23.7238C189.396 23.8662 189.114 24.1511 188.962 24.5202C188.817 24.8697 188.797 25.3757 188.888 25.7627C189.047 26.4401 189.737 27.3031 190.59 26.9358C192.169 26.2556 191.348 22.947 189.7 23.7238H189.699Z" fill="#030229"/>
<path fill-rule="evenodd" clip-rule="evenodd" d="M75.9239 32.4519C75.1065 32.7293 74.8319 33.4836 74.9744 34.4646C75.0915 35.2732 75.7243 36.0331 76.6344 35.7042C78.123 35.1664 77.568 31.8935 75.9239 32.4519Z" fill="#030229"/>
<path fill-rule="evenodd" clip-rule="evenodd" d="M203.993 37.924C204.44 37.5332 205.151 36.3152 205.547 35.7314C205.829 35.3154 206.018 34.9734 206.269 34.5686C206.534 34.1404 206.798 33.8846 207.075 33.4048C206.631 33.462 206.299 33.7159 205.664 33.8031C204.919 33.9052 204.523 33.7131 203.87 33.7562C203.877 34.5086 203.895 35.2648 203.903 36.0163L203.991 37.9249L203.993 37.924Z" fill="#030229"/>
<path fill-rule="evenodd" clip-rule="evenodd" d="M128.541 25.1471C128.905 24.3263 128.398 23.4455 127.819 23.2694C127.05 23.0351 126.352 23.8615 126.124 24.3141C125.274 26.0035 127.763 26.8993 128.54 25.1471H128.541Z" fill="#FFFDF6"/>
<path fill-rule="evenodd" clip-rule="evenodd" d="M206.618 25.4525C205.73 25.5912 205.084 26.3493 204.616 26.9855C203.721 28.2036 204.098 29.7262 204.891 29.0572C205.204 28.7939 205.546 27.3621 206.233 26.9124C206.476 26.754 207.234 26.4523 207.383 26.2546C207.869 25.609 207.194 25.3635 206.618 25.4535V25.4525Z" fill="#276D8E"/>
<path fill-rule="evenodd" clip-rule="evenodd" d="M58.3596 33.1603C58.1824 33.2877 58.0334 33.3037 58.1871 33.7122C58.3858 34.2416 59.0504 33.9961 59.8031 34.7982C60.6496 35.6995 60.494 37.1575 61.3816 36.7078C62.1053 36.3414 61.1726 33.9474 59.79 33.3121C59.3757 33.1219 58.7261 32.897 58.3605 33.1603H58.3596Z" fill="#276D8E"/>
<path fill-rule="evenodd" clip-rule="evenodd" d="M118.706 94.08C118.771 93.8776 117.625 93.396 118.318 91.9343C118.82 90.8783 119.4 91.2493 120.581 91.5614C122.257 92.0046 124.169 92.5677 125.844 92.8544L125.926 92.3325C125.559 92.0308 123.787 91.73 123.32 91.6054C122.834 91.4752 119.658 90.6965 119.433 90.5241C119.046 90.2271 119.108 89.5787 119.288 89.1411C119.731 88.0645 120.694 88.1591 121.317 87.8602L121.291 87.8096C120.413 88.1095 119.968 87.9642 119.406 88.7494C118.586 89.8954 119.301 90.0996 119.379 90.8427C118.912 91.4152 118.37 91.1585 118.053 92.2538C117.81 93.0943 118.213 93.8533 118.707 94.0791L118.706 94.08Z" fill="#276D8E"/>
<path fill-rule="evenodd" clip-rule="evenodd" d="M221.732 133.209L222.16 140.213L222.268 140.823C222.407 139.414 222.509 137.999 222.63 136.61C222.737 135.386 222.984 133.38 222.896 132.237C222.434 132.775 222.509 132.941 221.731 133.21L221.732 133.209Z" fill="#FFFDF6"/>
</g>
<defs>
<clipPath id="clip0_55_1384">
<rect width="260" height="183" fill="white"/>
</clipPath>
</defs>
</svg>
