<svg width="650" height="654" viewBox="0 0 650 654" fill="none" xmlns="http://www.w3.org/2000/svg">
<path d="M640.904 371.931H395.035V229.651H640.904V371.931ZM396.534 370.432H639.402V231.152H396.534V370.432Z" fill="#E0E0E0"/>
<path d="M590.181 305.517H427.964V310.272H590.181V305.517Z" fill="#F0F0F0"/>
<path d="M601.357 323.25H427.964V328.439H601.357V323.25Z" fill="#F0F0F0"/>
<path d="M601.357 341.192H427.964V346.382H601.357V341.192Z" fill="#F0F0F0"/>
<path d="M484.657 279.759H427.964V292.107H484.657V279.759Z" fill="#F0F0F0"/>
<path d="M640.155 230.402H395.83V253.054H640.155V230.402Z" fill="#E0E0E0"/>
<path d="M621.356 249.664C621.041 249.364 624.191 245.569 628.377 241.189C632.562 236.809 636.237 233.493 636.537 233.778C636.837 234.063 633.701 237.873 629.516 242.268C625.331 246.663 621.656 249.964 621.356 249.664Z" fill="white"/>
<path d="M636.569 249.664C636.27 249.964 632.609 246.664 628.409 242.268C624.209 237.873 621.073 234.078 621.388 233.778C621.703 233.478 625.348 236.779 629.548 241.189C633.749 245.599 636.854 249.364 636.569 249.664Z" fill="white"/>
<path d="M245.824 210.195H0V67.8989H245.824V210.195ZM1.49929 208.695H244.322V69.4004H1.49929V208.695Z" fill="#E0E0E0"/>
<path d="M195.116 143.78H32.8989V148.535H195.116V143.78Z" fill="#F0F0F0"/>
<path d="M206.292 161.512H32.8989V166.702H206.292V161.512Z" fill="#F0F0F0"/>
<path d="M206.292 179.455H32.8989V184.644H206.292V179.455Z" fill="#F0F0F0"/>
<path d="M89.5914 118.022H32.8989V130.37H89.5914V118.022Z" fill="#F0F0F0"/>
<path d="M245.074 68.6504H0.749512V91.3025H245.074V68.6504Z" fill="#E0E0E0"/>
<path d="M48.2172 173.965C48.1058 176.499 46.0175 178.495 43.4816 178.495C40.8643 178.495 38.7417 176.372 38.7417 173.755C38.7417 171.14 40.8621 169.017 43.4773 169.015C46.1139 169.079 48.2194 171.236 48.2194 173.875C48.2194 173.905 48.2194 173.937 48.2194 173.967L48.2172 173.965Z" fill="white"/>
<path d="M67.464 173.965C67.3591 176.514 65.2643 178.525 62.7134 178.525C60.0875 178.525 57.9585 176.396 57.9585 173.77C57.9585 171.144 60.0875 169.015 62.7134 169.015C62.7177 169.015 62.722 169.015 62.7241 169.015C65.3607 169.079 67.4661 171.236 67.4661 173.875C67.4661 173.905 67.4661 173.937 67.4661 173.967L67.464 173.965Z" fill="white"/>
<path d="M86.7125 173.965C86.6076 176.514 84.5129 178.525 81.9619 178.525C79.336 178.525 77.207 176.396 77.207 173.77C77.207 171.144 79.336 169.015 81.9619 169.015C81.9662 169.015 81.9705 169.015 81.9726 169.015C84.6092 169.079 86.7147 171.236 86.7147 173.875C86.7147 173.905 86.7147 173.937 86.7147 173.967L86.7125 173.965Z" fill="white"/>
<path d="M608.633 0H320.144V287.53H608.633V0Z" fill="#F0F0F0"/>
<path d="M608.633 0H320.144V33.6805H608.633V0Z" fill="#E0E0E0"/>
<path d="M344.717 16.5033C344.571 19.8488 341.817 22.4897 338.467 22.4897C335.012 22.4897 332.211 19.6882 332.211 16.2334C332.211 12.7807 335.008 9.98133 338.461 9.97705C341.939 10.0584 344.717 12.9028 344.717 16.3812C344.717 16.4219 344.717 16.4647 344.717 16.5033Z" fill="white"/>
<path d="M368.226 12.0907C369.288 13.2452 369.879 14.7595 369.879 16.3294C369.879 19.7842 367.078 22.5858 363.623 22.5858C360.168 22.5858 357.367 19.7842 357.367 16.3294C357.367 14.6588 358.035 13.0546 359.224 11.8808C360.408 10.7542 361.982 10.1245 363.619 10.1245C365.358 10.1245 367.022 10.8356 368.224 12.0907H368.226Z" fill="white"/>
<path d="M395.395 16.5033C395.249 19.8488 392.495 22.4897 389.145 22.4897C385.69 22.4897 382.889 19.6882 382.889 16.2334C382.889 12.7807 385.686 9.98133 389.139 9.97705C392.617 10.0584 395.395 12.9028 395.395 16.3812C395.395 16.4219 395.395 16.4647 395.395 16.5033Z" fill="white"/>
<path fill-rule="evenodd" clip-rule="evenodd" d="M479.566 162.926C472.468 163.095 451.767 162.527 446.733 163.294C433.49 165.312 423.865 173.995 419.761 186.711C418.707 189.979 417.474 198.487 418.461 201.635C419.221 204.062 421.584 204.086 424.542 204.047C449.038 203.719 475.34 204.021 500.027 204.036C505.313 204.041 509.085 205.079 510.942 202.1C512.621 199.401 510.744 188.144 509.063 183.927C506.647 177.874 506.116 178.763 504.383 175.865C503.389 174.205 503.702 175.004 502.593 173.596C501.89 172.705 501.301 172.097 500.412 171.433L498.155 169.638C493.483 165.92 485.252 162.791 479.566 162.926ZM467.745 105.642C458.781 104.987 449.179 108.735 445.151 114.921C444.645 115.696 444.317 115.917 443.754 116.713C443.343 117.294 443.017 117.977 442.589 118.744C440.976 121.637 439.862 124.878 439.468 128.423C438.843 134.037 440.728 142.032 443.983 146.022C445.545 147.935 446.472 149.451 448.644 150.904C452.872 153.727 454.27 155.682 461.923 156.607C466.376 157.145 469.482 156.819 473.474 155.408C475.286 154.767 476.299 154.399 477.871 153.446C478.617 152.994 479.212 152.705 479.829 152.208C482.663 149.925 485.689 147.177 487.326 143.791C488.72 140.905 490.039 137.489 490.367 133.979C490.915 128.08 489.352 120.89 485.901 116.251C481.718 110.626 475.031 106.173 467.743 105.642H467.745ZM527.468 87.8306C531.807 88.7751 535.26 92.1014 536.048 96.5479C536.5 99.1009 536.247 143.703 536.181 147.815C535.918 164.455 536.235 182.399 536.202 199.294C536.183 209.65 538.464 220.625 522.874 220.565C517.101 220.544 511.293 220.537 505.521 220.574C494.06 220.644 482.569 220.616 471.105 220.591L419.626 220.569C410.615 220.601 395.213 223.347 393.984 211.678C393.624 208.271 393.928 165.869 393.926 160.251C393.922 148.781 393.905 137.303 393.941 125.835C393.96 120.153 393.963 114.452 393.943 108.771C393.903 97.3082 392.363 87.7427 407.191 87.5543C435.484 87.1944 464.922 87.7278 493.376 87.5371C498.474 87.5029 524.536 87.1923 527.468 87.8306Z" fill="white"/>
<path fill-rule="evenodd" clip-rule="evenodd" d="M479.565 162.926C485.25 162.791 493.481 165.92 498.154 169.639L500.412 171.434C501.303 172.095 501.89 172.706 502.592 173.597C503.702 175.004 503.389 174.205 504.383 175.865C506.118 178.765 506.649 177.874 509.063 183.927C510.744 188.142 512.62 199.402 510.941 202.1C509.086 205.08 505.312 204.041 500.026 204.037C475.339 204.022 449.038 203.718 424.541 204.047C421.583 204.088 419.221 204.065 418.461 201.636C417.473 198.487 418.707 189.978 419.761 186.711C423.864 173.995 433.49 165.31 446.733 163.295C451.766 162.528 472.467 163.095 479.565 162.926Z" fill="#F0F0F0"/>
<path fill-rule="evenodd" clip-rule="evenodd" d="M467.745 105.642C475.031 106.174 481.718 110.626 485.903 116.251C489.354 120.89 490.917 128.08 490.369 133.979C490.043 137.489 488.724 140.906 487.328 143.791C485.691 147.177 482.663 149.925 479.831 152.208C479.216 152.705 478.619 152.994 477.873 153.446C476.301 154.397 475.288 154.768 473.476 155.408C469.484 156.82 466.378 157.145 461.925 156.608C454.272 155.682 452.874 153.727 448.646 150.904C446.474 149.454 445.547 147.937 443.985 146.023C440.73 142.032 438.845 134.037 439.47 128.423C439.864 124.878 440.978 121.64 442.591 118.744C443.017 117.979 443.345 117.294 443.756 116.714C444.319 115.917 444.647 115.698 445.153 114.921C449.179 108.735 458.783 104.987 467.747 105.642H467.745Z" fill="#F0F0F0"/>
<path fill-rule="evenodd" clip-rule="evenodd" d="M606.95 124.229L625.535 101.376C628.111 99.5721 631.495 100.622 632.078 103.599C632.633 106.432 630.885 107.353 628.7 110.328C626.486 113.342 621.047 119.346 618.304 123.07L612.474 130.258C608.438 134.593 607.879 136.138 602.917 131.893C601.13 130.365 598.77 127.228 597.907 126.489C595.907 124.771 595.545 123.653 594.234 122.353C588.667 116.825 595.718 112.455 599.458 116.272L601.957 118.977C602.818 120.074 606.065 124.062 606.95 124.231V124.229ZM607.387 79.3189C601.445 80.2955 597.845 81.3151 593.135 84.0009C580.374 91.2789 572.104 105.681 574.293 122.062C575.233 129.097 578.408 137.138 582.64 142.056C583.392 142.929 584.109 143.711 584.837 144.482C585.756 145.457 586.536 145.902 587.483 146.763C593.88 152.583 604.724 156.903 616.674 155.367C635.938 152.889 652.505 135.157 649.686 112.706C648.266 101.391 642.575 92.6775 636.503 87.9055C630.159 82.9193 619.188 77.3805 607.387 79.3189Z" fill="#E0E0E0"/>
<path fill-rule="evenodd" clip-rule="evenodd" d="M606.95 124.229C606.065 124.06 602.818 120.07 601.957 118.975L599.458 116.27C595.718 112.455 588.667 116.825 594.234 122.351C595.542 123.651 595.906 124.769 597.907 126.487C598.77 127.228 601.13 130.363 602.917 131.891C607.879 136.136 608.441 134.594 612.474 130.256L618.304 123.068C621.047 119.344 626.486 113.34 628.7 110.326C630.885 107.354 632.633 106.433 632.078 103.597C631.495 100.62 628.111 99.5723 625.535 101.374L606.95 124.227V124.229Z" fill="white"/>
<path fill-rule="evenodd" clip-rule="evenodd" d="M516.268 476.31L521.224 476.323C527.631 476.272 534.075 476.16 540.497 476.265C543.677 476.317 546.86 476.329 550.043 476.385C552.971 476.436 556.447 476.349 557.383 478.649C558.833 482.215 555.209 507.328 554.517 512.88C553.101 524.249 552.339 536.213 550.512 547.389C549.265 555.021 547.753 555.627 539.631 555.635L501.166 555.582C493.29 555.501 490.96 555.179 489.354 548.323C488.096 542.951 487.717 537.124 487.006 531.55C486.306 526.048 485.453 520.042 484.989 514.566C484.457 508.331 480.883 483.768 481.607 479.996C482.155 477.141 484.639 476.552 487.561 476.359C493.689 475.955 510.2 476.145 516.268 476.312V476.31Z" fill="#CDB8A3"/>
<path fill-rule="evenodd" clip-rule="evenodd" d="M530.557 420.129C531.083 421.252 530.983 420.614 530.546 421.826C529.167 425.653 528.404 425.882 527.363 431.668C526.626 435.759 526.393 441.317 527.196 445.557C528.241 445.275 527.804 445.493 528.496 444.452L531.33 440.355C532.611 438.534 533.943 436.75 535.292 435.067L543.78 425.036C546.539 422.134 550.137 418.898 553.461 416.203C555.273 414.734 556.723 413.464 558.512 412.003C559.797 410.956 562.211 408.388 564.28 408.662C564.522 410.406 563.502 411.01 562.528 411.688C558.782 414.293 555.867 417.349 552.757 419.842C551.742 420.656 551.493 420.958 550.508 421.931C549.017 423.4 547.539 424.441 545.965 426.065L539.666 433.06C537.854 435.232 531.135 443.788 530.629 446.123C538.391 446.804 551.857 441.88 559.097 437.96C561.307 436.763 561.337 436.157 562.721 436.474C560.448 439.68 545.185 444.748 539.437 445.898C537.933 446.198 536.262 446.466 534.705 446.68C533.195 446.888 531.263 446.703 529.974 447.08C527.721 448.312 523.298 463.735 522.542 468.274C522.122 470.797 521.771 473.87 521.227 476.327L516.27 476.314C516.02 466.882 511.344 453.11 507.193 444.125C492.316 441.631 491.898 442.021 478.122 435.392C477.248 433.565 478.394 425.711 478.435 423.092C478.563 414.526 479.812 405.747 478.542 397.19C477.811 392.271 477.473 391.793 476.027 387.813C475.398 386.081 475.55 387.244 476.07 386.597C479.784 388.214 484.687 391.442 487.771 393.791L493.61 398.951C498.688 404.057 502.593 410.059 505.694 416.698C509.192 424.188 510.663 433.086 509.948 441.713C509.71 444.572 510.49 445.277 511.522 447.599C513.422 451.874 516.844 463.924 517.084 464.26C517.185 461.613 516.739 458.107 516.647 455.296C516.091 438.637 513.869 413.143 510.198 397.901C509.671 395.712 507.622 384.663 506.161 383.815C503.801 382.442 500.883 383.722 488.24 374.255C486.471 372.93 484.787 371.683 483.215 370.308C478.176 365.9 478.293 365.9 473.847 361.332L474.31 361.15C474.365 361.143 474.464 361.113 474.524 361.115C475.233 361.135 480.35 367.007 482.834 368.918C487.668 372.634 490.307 375.284 496.493 378.931C501.198 381.705 502.231 381.401 505.823 383.067C505.623 378.179 491.774 349.53 488.896 344.653C487.171 341.734 485.794 338.517 484.049 335.606C482.318 332.721 480.737 329.857 479.069 327.002C477.334 324.031 475.419 321.206 473.768 318.415C471.992 315.417 468.796 311.626 469.043 309.531C470.679 309.501 471.769 311.146 472.945 312.913L478.353 321.395C479.229 322.92 480.067 324.213 480.979 325.704C486.437 334.606 496.204 353.028 500.301 362.497L506.688 377.23C507.448 379.038 508.007 381.375 509.269 381.707C509.789 381.154 510.288 379.428 510.558 378.642C514.893 366.063 513.955 351.792 509.408 339.367L505.538 330.56C504.936 329.392 504.287 328.848 504.6 327.443C505.912 328.504 508.667 335.379 509.558 337.628C514.18 349.297 515.594 363.456 512.31 375.611C511.19 379.758 508.808 382.866 510.16 387.344C511.389 391.416 512.154 395.023 513.03 399.238C513.904 403.436 514.553 407.54 515.279 411.806C515.722 414.413 516.478 423.257 517.078 424.771C517.868 422.899 517.877 417.679 518.295 415.188C519.464 408.21 519.809 404.543 521.837 397.357C522.57 394.759 524.221 391.716 523.381 389.105C519.273 376.348 519.38 365.727 522.889 352.706C524.898 345.255 530.18 334.417 535.468 328.236L540.396 322.457C541.24 321.45 541.973 320.686 542.894 319.739L546.963 315.991C549.91 313.046 556.638 307.903 560.21 305.511C562.881 303.725 570.416 298.91 574.4 298.267C578.386 297.625 578.579 301.302 578.688 304.618C578.802 308.047 578.688 311.536 578.596 314.965C578.176 330.624 571.607 353.173 560.951 366.125C557.595 370.205 553.65 375.067 549.544 378.443C548.934 378.946 548.837 378.995 548.122 379.631C544.757 382.613 539.295 386.031 535.123 387.785C533.894 388.302 527.117 390.015 527.063 390.06C525.703 391.245 522.632 404.571 522.092 407.36C519.79 419.256 518.682 435.956 519.012 448.087C519.089 450.946 519.312 467.706 519.989 468.914C520.944 464.494 521.559 461.011 522.897 456.534C524.472 451.272 526.997 448.614 526.393 445.348C524.986 437.759 526.883 425.865 530.563 420.132L530.557 420.129Z" fill="#598889"/>
<path fill-rule="evenodd" clip-rule="evenodd" d="M504.593 327.439C504.28 328.844 504.929 329.386 505.531 330.555L509.401 339.363C513.949 351.787 514.887 366.059 510.552 378.638C510.28 379.424 509.783 381.15 509.262 381.703C508.003 381.371 507.442 379.034 506.681 377.226L500.294 362.492C496.197 353.023 486.43 334.603 480.973 325.7C480.058 324.209 479.223 322.915 478.347 321.39L472.939 312.909C471.763 311.142 470.673 309.499 469.036 309.527C468.788 311.619 471.983 315.41 473.761 318.411C475.412 321.2 477.327 324.027 479.062 326.998C480.731 329.855 482.311 332.716 484.042 335.602C485.788 338.512 487.165 341.729 488.889 344.649C491.768 349.523 505.617 378.175 505.816 383.063C502.224 381.396 501.192 381.703 496.486 378.927C490.3 375.279 487.662 372.63 482.828 368.914C480.341 367.003 475.226 361.13 474.517 361.111C474.457 361.109 474.359 361.139 474.303 361.145L473.84 361.327C470.835 358.258 467.805 354.505 465.382 350.787C457.944 339.363 451.976 322.695 450.269 308.901C447.264 284.636 446.243 277.301 467.376 289.216C472.971 292.368 480.465 298.224 485.449 302.703L488.471 306.042C489.185 306.755 489.551 306.832 490.253 307.443C490.866 307.978 491.243 308.475 491.748 309.122L498.748 317.766C499.984 319.345 504.572 325.91 504.595 327.441L504.593 327.439Z" fill="#73A49E"/>
<path fill-rule="evenodd" clip-rule="evenodd" d="M562.721 436.47C561.337 436.153 561.307 436.759 559.097 437.956C551.857 441.878 538.391 446.8 530.629 446.119C531.135 443.784 537.854 435.227 539.666 433.055L545.965 426.06C547.539 424.437 549.019 423.396 550.508 421.926C551.493 420.954 551.741 420.652 552.757 419.838C555.867 417.343 558.78 414.289 562.528 411.684C563.504 411.005 564.524 410.401 564.28 408.658C562.209 408.384 559.795 410.949 558.512 411.999C556.723 413.46 555.273 414.73 553.461 416.199C550.135 418.896 546.539 422.13 543.78 425.032L535.292 435.062C533.943 436.746 532.61 438.53 531.33 440.351L528.496 444.448C527.802 445.489 528.241 445.27 527.196 445.553C526.391 441.314 526.626 435.754 527.363 431.663C528.404 425.88 529.169 425.651 530.546 421.821C530.983 420.609 531.083 421.247 530.556 420.125C531.092 418.369 533.769 414.032 534.849 412.644L537.402 409.399C540.334 405.803 542.606 403.746 546.164 400.799C556.678 392.084 573.526 385.92 587.315 384.568C591.1 384.198 594.987 383.949 594.895 388.195C594.754 394.708 588.38 407.912 585.343 413.063C583.271 416.574 581.027 419.183 579.393 421.577C579.142 421.944 579.08 422.121 578.808 422.455L575.351 426.225C573.385 428.538 570.877 430.586 568.628 432.533L564.464 435.619C563.1 436.645 563.558 436.395 562.723 436.463L562.721 436.47Z" fill="#73A49E"/>
<path fill-rule="evenodd" clip-rule="evenodd" d="M89.3988 311.321C91.5428 328.049 94.7534 349.063 98.1718 365.561C99.0221 369.663 99.187 374.262 101.687 374.292C101.879 372.203 100.286 365.913 99.8296 363.477C97.2958 349.982 94.4128 333.851 92.6929 320.266C92.2496 316.757 91.4078 312.731 91.2686 309.282C91.0951 305.003 91.4592 301.473 92.7101 297.958C93.2841 296.343 93.9352 295.003 94.7491 293.6C97.5292 288.804 92.6458 289.592 89.9514 300.002C89.0304 303.557 88.9276 307.642 89.3988 311.319V311.321ZM179.836 384.62L180.089 384.78L180.485 384.973C180.014 385.114 180.112 385.232 180.089 384.78L179.836 384.62C177.887 384.913 164.661 382.186 161.56 381.709C145.166 379.184 123.983 377.046 106.955 375.598C103.599 375.313 103.089 377.198 107.9 377.646C126.279 379.357 146.185 381.306 164.168 384.159L178.502 386.821C180.802 387.166 181.053 386.376 183.034 386.202C182.993 386.234 182.91 386.26 182.888 386.26C182.079 386.245 182.186 386.04 181.937 385.281C183.726 385.658 185.842 386.217 187.6 386.832C189.367 387.449 190.678 388.158 192.203 388.893C195.9 390.677 197.746 392.536 200.021 394.682C200.509 395.515 200.321 395.018 200.935 395.768C201.16 396.042 201.4 396.398 201.666 396.781C202.31 397.717 202.559 398.098 203.394 398.844C203.752 399.981 204.63 401.326 205.262 402.435C205.937 403.616 206.322 404.841 206.898 406.299C207.913 408.87 208.391 412.494 209.209 414.477L210.786 427.264C211.334 431.342 211.291 436.099 211.788 440.282C212.831 449.083 212.527 458.357 213.532 467.136C213.784 470.128 213.679 473.729 213.825 476.727C214.262 485.702 214.005 496.34 215.146 504.865C215.973 511.044 217.657 515.139 222.823 516.709C229.79 518.825 270.667 516.943 279.633 516.831C284.666 516.769 315.323 516.502 317.809 515.771C318.114 516.585 318.478 517.283 318.176 517.986C318.555 520.567 318.775 523.321 319.005 525.789C319.244 528.357 319.596 530.781 319.848 533.345C320.324 538.183 320.936 543.482 321.804 548.199C317.788 548.612 274.955 548.648 269.511 548.704C260.847 548.792 251.945 549.013 243.312 548.942C239.114 548.908 234.697 549.259 230.467 549.325C227.903 549.366 219.563 548.925 218.166 550.045L213.403 549.707C208.432 549.779 203.48 550.505 198.076 550.191C198.151 556.835 197.729 607.024 198.307 611.467C197.506 609.584 198.059 572.185 198.046 564.939C198.042 562.339 198.029 559.73 198.04 557.13C198.044 555.941 198.59 550.458 197.416 550.255C195.769 549.205 194.274 551.388 191.843 548.895C190.736 547.76 189.213 547.449 187.69 546.436C180.194 541.45 175.934 528.978 173.888 519.939C168.167 494.674 164.747 451.09 162.258 423.989C161.472 415.426 160.594 407.265 163.864 400.054C169.302 388.057 178.08 391.696 177.996 387.766C175.308 386.907 170.583 389.67 168.893 390.878C159.763 397.411 158.715 408.463 159.835 419.934C162.853 450.839 164.957 482.718 170.405 513.162C172.13 522.792 175.077 534.167 180.676 541.855C181.624 543.157 182.556 544.455 183.514 545.371L186.12 547.672C186.771 548.573 186.343 547.488 186.705 548.944C183.394 548.933 180.031 548.092 176.915 547.693C175.047 547.453 168.994 546.072 167.998 546.751L166.929 546.337L167.962 546.404C167.533 546.209 167.846 546.179 167.122 546.2C166.323 546.224 166.67 546.181 166.293 546.494L164.963 546.132L166.252 546.125C165.833 545.975 165.723 545.92 165.098 545.911C163.247 545.885 164.526 545.783 164.053 546.143L163.155 545.746L161.131 545.378C160.255 545.493 160.975 545.269 160.523 545.594L159.583 545.228L156.055 544.493C154.102 544.431 155.59 544.303 155.027 544.757L153.71 544.399L154.963 544.395C154.494 544.226 153.446 544.088 153.052 544.022C152.628 543.949 152.532 543.874 152.091 543.9C151.281 543.943 151.66 543.859 151.296 544.17C150.264 544.073 150.476 544.217 149.784 543.765L151.236 543.81C150.861 543.681 150.604 543.585 150.062 543.579C148.355 543.557 149.407 543.504 148.966 543.846L148.237 543.549L148.891 543.343C147.693 543.234 146.076 542.641 145.136 543.298L144.091 542.855L145.11 542.936C144.181 542.521 143.405 542.576 142.268 542.414C138.693 541.908 140.152 542.054 139.689 542.437L138.378 542.086L139.653 542.075C138.841 541.756 136.674 541.246 135.915 541.869C134.96 541.771 134.896 541.919 134.281 541.411L135.817 541.454L112.027 537.751C113.921 537.984 112.282 537.684 112.985 538.31L111.608 538.361L102.312 536.639C99.1891 536.054 95.79 535.71 93.0292 534.786C87.1884 532.837 86.9528 533.135 82.5813 528.883C79.6769 526.061 81.5318 527.937 79.7283 525.349C75.5582 519.369 73.2771 512.109 71.8057 504.357C67.2714 480.444 60.8908 436.812 59.9227 413.224C59.5736 404.71 59.1238 397.081 60.0769 388.518C60.6831 383.073 62.5765 379.674 62.5893 377.828C62.6107 374.615 61.8075 369.312 61.4498 366.011C59.7556 350.359 58.6269 334.77 56.8063 319.124C55.7847 310.351 57.7552 300.19 62.4715 292.854L70.0472 284.482C81.8959 276.054 100.247 275.949 115.941 275.709C122.715 275.606 163.646 274.955 167.171 275.925C167.137 277.722 166.165 280.77 165.927 282.95C165.67 285.287 165.458 287.643 165.209 289.948C164.687 294.773 164.663 300.34 164.822 305.226C165.113 314.213 165.824 325.485 167.424 334.173C169.088 343.218 170.303 351.794 172.528 360.592C173.539 364.591 174.657 368.937 175.946 372.767L179.845 384.624L179.836 384.62Z" fill="#6992B2"/>
<path fill-rule="evenodd" clip-rule="evenodd" d="M435.287 489.911C436.336 490.962 436.069 491.48 436.983 492.446C437.594 493.734 437.784 493.967 438.502 495.147L460.237 529.537C460.674 530.207 460.848 530.192 461.173 530.629C461.694 531.325 461.994 530.728 461.514 531.944L461.216 532.212L460.923 532.516C460.259 532.983 460.389 532.767 459.867 533.533C458.599 534.146 457.913 534.915 456.819 535.637C456.039 536.151 456.001 536.121 455.277 536.695C454.844 537.038 454.321 537.455 453.81 537.824C450.888 539.92 436.257 549.644 434.968 551.03C433.494 551.913 434.807 557.415 435.017 559.129C435.338 561.739 435.775 564.331 436.094 566.968C436.696 571.943 437.666 577.491 438.605 582.453L441.406 597.825C442.676 606.607 433.899 605.688 432.327 603.407C430.601 600.901 425.075 580.988 423.492 576.056C422.931 574.308 415.336 549.548 415.237 548.066L414.959 547.119L424.156 546.89C422.528 543.81 420.519 543.26 419.069 540.882C418.154 539.381 418.3 540.342 417.283 538.91L416.049 537.539C415.67 537.168 415.892 537.374 415.635 537.083C414.809 536.142 414.509 536.095 413.868 535.101C413.316 534.242 412.99 533.566 412.328 532.863L406.406 526.054C405.772 525.317 406.036 525.928 405.412 525.035C403.463 522.24 403.033 522.597 402.028 520.894L396.828 514.797C395.99 514.077 396.845 514.846 396.295 514.195C396.286 514.184 396.07 513.972 396.055 513.899C396.038 513.818 395.982 513.798 395.939 513.754L395.804 513.441L395.356 512.94L382.893 497.514C382.593 497.137 382.756 497.375 382.501 497.043C382.216 496.668 382.272 496.692 382.028 496.357L380.364 494.254C380.327 494.207 380.274 494.139 380.239 494.091L374.962 487.527C374.544 486.931 374.683 486.974 374.15 486.297C374.114 486.25 374.056 486.186 374.019 486.141L373.76 485.824C372.43 484.179 368.076 478.156 366.923 477.383C368.05 480.217 366.953 522 366.534 530.239L366.27 548.057C365.79 550.116 364.73 582.222 365.069 584.522C364.304 586.131 365.495 587.469 364.058 589.251L363.867 589.275L363.434 589.541L361.046 590.511C351.127 591.742 342.01 592.205 332.112 590.845C328.06 589.748 328.499 590.472 327.346 582.241L321.793 548.199C320.925 543.484 320.313 538.183 319.837 533.345C319.584 530.781 319.235 528.357 318.993 525.789C318.762 523.321 318.543 520.567 318.164 517.986L317.809 513.042C317.372 506.685 317.121 501.046 316.967 494.659C316.892 491.555 317.153 488.154 317.029 485.151C316.894 481.881 317.451 479.246 317.734 475.933C316.312 475.961 308.691 473.463 306.568 472.924C298.449 470.859 290.432 470.176 281.939 469.539C275.094 469.028 268.292 470.017 261.703 470.568C255.62 471.075 247.038 470.553 241.486 470.805C235.344 471.086 221.522 469.689 216.189 467.984C215.266 467.871 214.118 467.627 213.522 467.138C212.518 458.357 212.822 449.083 211.779 440.284C211.282 436.103 211.325 431.346 210.777 427.266L209.2 414.479C210.562 414.535 219.468 411.429 221.509 410.793C228.991 408.463 252.016 402.318 259.071 401.185L272.325 398.587C276.61 397.516 281.436 397.306 285.698 396.318C290.173 395.282 313.38 392.932 313.41 392.924C314.795 393.028 318.646 392.707 320.103 392.589C327.081 392.02 333.177 391.977 340.369 392.225C351.749 392.617 363.921 393.701 373.76 399.927L381.726 405.582C384.375 407.357 387.809 412.125 389.627 414.171L397.156 424.582C398.085 426.079 398.98 427.328 399.833 428.853C401.005 430.946 401.574 431.327 402.497 433.126C403.146 434.39 404.282 436.304 405.078 437.495C407.914 441.732 410.347 446.954 412.682 450.717C413.588 452.18 414.346 453.328 415.164 454.885L425.141 472.377C426.075 473.733 426.758 475.13 427.76 476.691C428.227 477.419 428.437 478.197 428.943 478.991L435.28 489.919L435.287 489.911Z" fill="#3A536D"/>
<path fill-rule="evenodd" clip-rule="evenodd" d="M284.525 340.448C284.779 341.217 284.462 340.671 285.002 341.198L287.131 342.224C290.933 343.49 293.936 341.254 296.53 339.277L296.791 338.874L297.048 338.645C297.099 338.617 298.022 337.454 298.44 337.047C299.224 336.284 299.483 336.359 299.59 334.976C300.635 334.586 301.835 333.374 302.563 332.5C303.613 331.238 303.488 330.161 303.443 328.495L304.9 328.171C305.433 326.85 305.061 326.997 304.525 325.762L304.161 313.9C305.572 313.951 307.427 314.358 309.117 314.361C310.261 314.363 312.611 313.446 313.6 313.857C313.938 314.78 313.251 316.652 313.133 317.53C313.011 318.439 312.885 319.272 312.769 320.054C311.732 327.021 311.437 327.576 309.629 334.282C307.198 343.301 307.367 339.819 306.828 348.872C306.77 349.834 306.262 352.877 306.588 353.625C306.108 361.348 305.32 367.962 306.911 375.628C307.607 378.982 308.26 381.983 309.428 385.024C310.685 388.297 312.002 390.357 313.409 392.919C313.379 392.93 290.173 395.277 285.698 396.314C281.436 397.301 276.61 397.509 272.325 398.582L259.071 401.18C252.018 402.313 228.991 408.458 221.509 410.789C219.468 411.425 210.56 414.53 209.2 414.475C208.382 412.491 207.904 408.867 206.889 406.297C206.313 404.838 205.927 403.616 205.253 402.433C204.621 401.324 203.743 399.979 203.385 398.841L202.901 397.404C204.692 398.021 208.187 396.215 210.232 395.44C217.641 392.63 222.799 389.696 229.244 385.551C231.343 384.202 250.206 370.952 250.919 368.549L250.371 367.737C248.891 368.269 240.951 374.855 239.051 376.311C235.346 379.149 231.411 381.861 227.322 384.534C223.109 387.29 209.288 394.855 203.552 395.566C201.115 395.868 201.43 395.821 200.012 394.682C197.737 392.538 195.891 390.677 192.194 388.892C190.671 388.158 189.358 387.449 187.591 386.832C185.833 386.217 183.719 385.658 181.928 385.281L180.48 384.973L180.084 384.78L179.831 384.619L175.933 372.762C174.644 368.933 173.528 364.587 172.515 360.588C170.287 351.789 169.073 343.213 167.411 334.168C165.813 325.481 165.1 314.208 164.808 305.221C164.65 300.336 164.675 294.769 165.196 289.944C165.444 287.639 165.656 285.283 165.913 282.946C166.153 280.764 167.124 277.718 167.158 275.921C167.164 275.912 169.454 268.917 169.797 268.032C170.752 265.58 171.968 263.173 173.119 260.924C174.581 258.064 176.528 256.132 177.548 254.646C180.223 250.75 181.585 250.878 182.761 249.302C183.374 249.114 183.796 248.677 184.181 248.163L184.65 247.803C185.177 247.961 185.094 248.113 185.094 247.634L187.647 246.273L188.079 245.944L188.199 245.967L188.617 245.635L188.726 245.657L189.165 245.333L191.727 244.239L192.145 243.926L193.755 243.363L194.209 242.891L195.145 242.761L195.621 242.307L196.6 242.18L197.049 241.72L198.007 241.594L198.521 241.154L199.607 241.056L200.05 240.619L200.333 240.735L200.8 240.473L202.822 239.908L203.269 239.492L205.113 238.961L205.673 238.678L208.643 237.817L209.168 237.537L214.103 236.149L214.116 236.065C214.191 236.11 214.298 236.143 214.358 236.168C214.418 236.194 214.525 236.237 214.595 236.269L217.924 240.246C225.386 249.358 237.466 258.028 249.308 261.793C257.582 264.423 267.576 264.672 274.447 260.135C286.285 252.318 282.16 242.536 283.036 239.405C286.701 240.7 290.822 241.433 294.608 242.806C298.219 244.114 301.636 245.659 304.662 247.451L305.078 247.548L305.65 247.912C306.288 248.762 307.457 249.163 308.404 249.842C309.391 250.551 310.165 251.673 311.131 252.005C311.595 252.66 313.424 253.958 314.662 255.732L317.727 259.915C322.045 266.392 324.763 271.01 327.539 278.759L331.097 289.256L331.369 289.117L331.407 289.138L331.097 289.258C328.527 296.206 325.729 303.396 322.926 310.079C320.098 316.817 317.567 323.943 314.78 330.566C313.371 333.918 311.949 337.349 310.64 340.883C306.834 351.166 313.821 348.283 321.546 348.12C323.885 348.071 326.32 348.056 328.642 347.833C333.132 347.401 337.589 347.493 342.123 347.045L343.256 347.133C344.843 351.504 345.719 353.974 349.123 356.33C352.029 358.341 357.69 358.746 361.824 358.397L362.419 359.568C359.855 362.55 357.315 367.069 354.092 370.449L349.649 374.105C349.06 374.594 349.161 374.446 348.626 374.808C343.357 378.374 337.889 380.349 331.114 379.783C324.174 379.203 320.257 375.452 316.429 370.518C316.055 370.034 316.003 370.046 315.673 369.537C313.851 366.709 312.666 364.454 311.24 360.946C310.565 359.284 308.151 352.605 308.177 350.928C308.331 349.755 308.245 350.399 307.896 349.671C307.877 349.63 307.577 349.095 307.513 348.973L307.282 348.463C309.055 347.141 308.269 345.24 309.944 339.979C313.853 327.691 313.114 328.97 315.129 317.136C315.344 315.875 314.465 313.253 315.436 312.519C318.67 312.399 321.741 310.167 322.043 307.483C322.534 303.09 316.346 305.748 313.821 304.656L314.866 304.585C313.664 303.392 313.617 300.01 313.17 297.933L309.685 284.655C309.205 283.034 308.475 279.47 307.063 279.451C306.031 280.916 311.623 296.757 312.21 303.206L311.285 303.726C310.625 303.765 310.73 303.96 310.73 303.416L310.122 303.471C301.61 302.878 294.668 301.739 286.208 307.487C284.644 308.55 283.419 309.606 282.025 310.535C280.084 311.829 279.348 312.797 278.073 313.812C277.15 314.547 277.015 314.915 276.212 315.699C275.563 316.333 275.077 316.744 274.421 317.383C269.568 322.116 264.637 328.364 259.255 331.144L235.862 343.62C233.928 342.669 219.663 349.727 215.846 349.915C215.054 340.497 213.287 330.484 212.032 320.992L209.031 299.413C208.84 298.057 208.553 292.839 206.904 294.401C206.163 295.155 207.307 299.858 207.508 301.088C207.889 303.409 208.146 305.881 208.468 308.188C209.331 314.418 213.994 347.566 213.79 351.012L203.978 354.261C202.762 354.664 201.959 354.792 201.95 355.998C203.696 356.78 208.693 354.715 210.539 354.102C215.718 352.385 226.609 348.686 231.377 346.602L235.414 345.098C235.136 350.506 237.438 355.289 239.822 358.615C240.486 359.541 241.287 360.316 241.94 361.123C242.598 361.935 243.268 362.651 244.097 363.31C251.609 369.307 250.495 366.881 254.507 363.415C256.188 361.963 257.61 360.659 259.178 359.112L267.754 350.579C268.208 350.191 267.732 350.508 268.366 350.159L268.645 349.913C269.082 348.936 268.833 349.444 269.287 349.129L269.054 349.607C270.041 348.51 269.073 349.339 271.729 348.96C272.959 348.784 276.932 346.713 277.996 346.083C281.177 344.196 282.201 343.226 284.52 340.453L284.525 340.448Z" fill="#FF8F6B"/>
<path fill-rule="evenodd" clip-rule="evenodd" d="M308.184 350.918C308.156 352.595 310.572 359.273 311.247 360.935C312.671 364.443 313.856 366.699 315.68 369.526C316.01 370.036 316.06 370.025 316.437 370.507C320.264 375.442 324.181 379.194 331.121 379.773C337.896 380.338 343.364 378.363 348.633 374.797C349.168 374.435 349.068 374.583 349.657 374.095L354.099 370.438C357.322 367.059 359.862 362.539 362.426 359.558C365.645 358.984 375.729 359.997 379.696 360.147C385.254 360.355 390.983 360.687 396.527 361.068C411.489 362.094 447.492 363.779 460.051 369.141C464.408 371 467.801 373.056 470.827 376.344C471.53 377.108 472.341 378.01 473.02 378.796C475.998 382.227 476.927 386.17 478.092 386.539C477.413 387.425 476.889 384.763 478.514 389.126C480.802 395.269 481.264 403.431 481.001 409.917C480.819 414.393 480.365 418.579 480.373 423.076C480.38 426.163 479.082 432.978 480.052 435.448C479.401 435.431 479.741 434.979 479.611 436.615L477.683 461.591C477.544 465.956 476.702 470.497 476.49 474.871C476.308 478.602 475.751 484.391 475.19 488.002C473.931 496.094 473.819 505.45 471.585 513.323C469.773 519.712 466.995 528.033 461.514 531.944C461.994 530.728 461.694 531.325 461.174 530.629C460.848 530.194 460.675 530.207 460.238 529.537L438.502 495.147C437.785 493.967 437.594 493.734 436.984 492.446C436.699 490.797 437.312 492.77 437.387 488.876C437.616 476.802 438.794 468.7 431.552 459.25C430.091 457.344 430.854 458.023 431.077 455.613C431.406 452.019 431.045 434.812 431.267 428.975C431.79 415.37 429.663 389.865 436.176 380.24C440.239 374.236 446.453 373.611 444.855 371.961C444.553 371.608 445.301 371.576 444.082 371.715C442.375 371.91 438.41 374.878 437.372 375.909C429.535 383.675 429.751 394.907 429.524 406.154C429.188 422.822 429.098 439.511 429.033 456.376C427.532 456.179 427.112 455.59 425.795 454.956C424.827 454.491 423.724 454.063 422.702 453.722C420.627 453.03 417.272 452.619 414.794 452.831C416.452 455.279 415.182 454.407 419.583 455.013C429.672 456.401 435.474 466.05 435.57 475.843C435.594 478.237 435.607 480.69 435.589 483.084C435.568 486.066 435.255 484.997 435.607 488.058L435.288 489.906L428.95 478.979C428.444 478.186 428.234 477.406 427.767 476.678C426.765 475.117 426.082 473.722 425.148 472.365L415.171 454.872C414.355 453.315 413.597 452.167 412.689 450.704C410.354 446.939 407.921 441.719 405.085 437.482C404.289 436.292 403.151 434.377 402.504 433.113C401.581 431.312 401.009 430.933 399.84 428.84C398.988 427.315 398.09 426.069 397.163 424.569L389.634 414.158C387.816 412.114 384.382 407.347 381.733 405.569L373.767 399.915C363.928 393.69 351.756 392.604 340.376 392.212C333.184 391.964 327.088 392.007 320.11 392.577C318.653 392.697 314.804 393.016 313.417 392.911C312.009 390.349 310.692 388.291 309.435 385.016C308.268 381.977 307.614 378.974 306.918 375.62C305.327 367.954 306.113 361.342 306.595 353.616L307.147 349.463L307.972 350.474C308.021 350.545 307.916 351.41 308.139 350.787C308.15 350.759 308.156 350.879 308.188 350.909L308.184 350.918Z" fill="#6992B2"/>
<path fill-rule="evenodd" clip-rule="evenodd" d="M318.649 207.119C320.123 208.749 322.5 218.186 322.667 221.349C322.198 220.719 322.498 222.037 321.948 220.244C322.226 228.09 322.172 231.878 319.487 238.976C318.557 241.435 317.201 244.104 315.959 245.841C313.954 248.643 314.652 247.323 313.504 248.568C312.765 249.369 311.979 250.575 310.859 251.071C309.891 250.482 309.049 249.769 308.026 249.056C307.497 248.688 306.97 248.377 306.434 248.013C305.704 247.518 305.736 247.332 305.083 247.546C305.815 247.338 305.655 247.178 305.655 247.91L305.083 247.546L304.667 247.45C305.295 246.751 305.575 247.518 304.374 246.681C304.273 246.61 303.376 246.171 303.196 246.072C302.41 245.65 301.761 245.261 300.93 244.86C299.383 244.119 297.693 243.474 296.074 242.795C284.523 237.948 272.88 239.107 271.88 232.907C271.604 231.193 271.499 228.141 272.46 226.922C273.263 226.11 275.452 227.188 280.494 225.513C280.554 225.367 281.794 225.53 280.156 225.097L280.526 224.738C281.432 225.378 281.07 225.32 282.375 224.705C288.967 221.598 293.551 215.095 297.349 209.014C302.273 201.128 303.571 193.912 304.207 182.871C304.496 177.855 304.809 171.973 304.856 166.978C304.948 156.95 302.894 150.7 294.5 144.296C290.914 141.561 288.616 139.91 285.703 136.954C285.425 137.299 285.433 136.853 285.708 137.511C285.176 137.181 285.448 137.359 284.675 137.055C284.112 139.126 282.403 141.456 281.263 142.861L277.048 147.899C275.371 150.056 274.184 150.698 272.426 152.551L267.245 156.62C266.744 156.95 266.33 157.212 265.842 157.537C265.242 157.938 264.788 158.21 264.433 158.45L259.069 162.337C253.595 165.991 249.806 167.548 243.085 169.39C242.361 168.812 241.513 169.206 240.382 168.341C230.784 160.983 224.477 176.334 230.836 185.411C234.018 189.956 236.963 189.911 237.972 190.978C239.705 192.811 239.217 219.049 227.259 229.139C224.365 231.581 219.957 233.731 216.08 234.736L216.927 234.963L216.524 235.322C215.714 234.731 215.961 234.703 214.75 235.173C213.716 235.575 213.517 235.556 214.566 235.755L214.121 236.068L214.108 236.151C213.219 235.4 213.832 235.639 211.233 236.526C208.852 237.34 208.222 237.085 209.173 237.539L208.648 237.82C208.246 237.462 208.616 237.535 207.757 237.661C207.749 237.664 206.984 237.895 206.851 237.94C204.763 238.636 205.084 238.4 205.678 238.679L205.119 238.961C204.744 238.595 205.86 238.454 204.105 238.895C203.512 239.043 203.339 239.178 202.66 239.433L203.274 239.491L202.827 239.906L201.906 239.692C201.79 239.694 201.319 239.805 201.229 239.842C199.937 240.356 200.083 240.062 200.805 240.471L200.338 240.733C199.882 240.354 200.976 240.238 199.464 240.581L200.055 240.619L199.612 241.056C199.068 240.754 199.635 240.938 198.909 240.887C197.969 240.821 199.044 240.821 198.543 240.911C197.425 241.108 197.903 241.108 198.526 241.155L198.012 241.594C197.566 241.298 198.068 241.407 197.294 241.448C197.067 241.461 196.937 241.545 196.624 241.748L197.054 241.72L196.605 242.181C196.217 241.947 196.558 242.007 195.846 242.029C195.617 242.035 195.457 242.116 195.135 242.301L195.626 242.309L195.15 242.763C194.686 242.448 195.212 242.562 194.439 242.618C194.435 242.618 193.797 242.828 193.775 242.937L194.214 242.894L193.76 243.365C193.338 243.125 193.876 243.224 193.191 243.232C192.989 243.234 192.837 243.256 192.584 243.359C191.436 243.821 191.646 243.689 192.15 243.931L191.732 244.243C191.205 243.909 192.242 243.798 190.826 244.173C190.796 244.181 190.019 244.541 190.01 244.545C188.875 245.119 188.515 244.954 189.17 245.338L188.731 245.661C188.352 245.359 188.721 245.59 188.498 245.49C188.496 245.49 188.541 245.569 188.539 245.546C188.536 245.505 188.594 245.608 188.62 245.638L188.202 245.97L188.082 245.946L187.65 246.276C187.403 246.111 187.77 245.689 186.084 246.668C184.186 247.769 184.91 247.527 185.097 247.638C185.097 248.118 185.18 247.966 184.653 247.807L184.184 248.167C184.184 247.514 184.026 247.63 184.653 247.807C183.355 247.775 183.659 249.838 181.563 246.267C180.875 245.098 180.104 243.963 179.421 242.652C174.255 232.739 174.694 223.335 178.74 213.557C179.329 212.133 180.187 210.833 180.907 209.667C181.389 208.886 181.359 208.731 182.008 207.877C182.993 206.577 183.591 205.266 184.563 204.364C185.414 203.576 185.326 203.85 186.003 202.927C188.684 199.28 190.88 197.99 194.446 193.73L201.137 185.362C205.084 179.378 205.101 179.345 208.434 172.093C212.167 163.967 213.979 156.865 218.828 146.916L225.635 135.825C228.304 131.871 234.843 125.454 238.767 122.957C238.818 122.925 238.891 122.878 238.94 122.844C247.818 116.872 258.939 114.058 269.665 116.307C274.857 117.395 282.604 119.954 286.871 122.726C287.592 123.195 288.044 123.527 288.826 123.94C290.645 124.906 292.272 126.343 293.943 127.496C296.528 129.278 295.091 128.472 296.374 129.68L299.983 133.319C303.095 136.425 302.183 134.943 305.233 139.905C311.238 149.674 312.262 157.019 311.553 168.844C310.364 188.662 312.311 191.432 318.037 207.207L318.334 208.095C318.347 208.053 318.384 208.25 318.401 208.327C318.45 208.25 318.527 208.157 318.548 208.1L318.645 207.119H318.649Z" fill="#4A4544"/>
<path fill-rule="evenodd" clip-rule="evenodd" d="M271.217 232.568C271.633 235.751 272.742 236.663 275.503 237.618C277.529 238.319 280.828 239.051 283.04 239.403C282.164 242.534 286.292 252.316 274.452 260.134C267.578 264.672 257.587 264.424 249.313 261.791C237.471 258.026 225.39 249.358 217.928 240.244L214.6 236.267C214.529 236.235 214.422 236.192 214.362 236.166C214.302 236.141 214.195 236.111 214.12 236.063L214.566 235.751L216.523 235.318L216.926 234.958C226.108 232.474 231.598 227.175 234.853 219.385C236.693 214.983 237.65 211.227 238.481 206.225C238.933 203.505 239.897 192.393 238.741 190.584C238.342 190.065 237.7 190.14 236.464 189.622C235.618 189.266 235.121 189.035 234.418 188.478C223.763 180.044 229.95 162.575 238.837 167.85C241.617 169.501 238.991 169.493 243.082 169.386C249.803 167.544 253.592 165.987 259.067 162.333L264.43 158.445C264.783 158.205 265.237 157.931 265.839 157.533C266.328 157.207 266.741 156.946 267.242 156.616L272.423 152.547C274.182 150.694 275.368 150.053 277.045 147.894L281.261 142.857C282.4 141.452 284.109 139.121 284.672 137.05C285.448 137.354 285.176 137.177 285.705 137.507C286.742 139.246 288.301 140.085 289.871 141.398C294.529 145.292 294.004 144.363 298.567 148.905C306.701 157.004 304.009 171.635 303.557 183.173C303.163 193.233 301.527 201.406 296.883 208.806C294.632 212.394 292.987 214.928 290.093 218.226C288.603 219.925 283.901 223.964 280.524 224.733L280.153 225.093C277.459 225.746 274.818 226.605 271.8 225.86C268.461 224.977 266.426 224.298 263.614 222.865L260.21 220.786C258.81 219.843 256.619 218.275 255.59 217.025L251.277 212.683C249.094 210.293 247.983 207.288 246.387 205.863C247.094 209.389 249.692 215.455 251.913 218.944L257.64 225.699C258.557 226.669 259.966 227.663 261.221 228.503C262.92 229.638 268.084 232.465 270.658 231.746L271.215 232.564L271.217 232.568ZM286.857 203.313C285.574 203.55 285.615 203.902 284.176 204.017C278.101 204.514 271.976 202.289 266.135 201.539C266.642 202.861 267.191 203.57 268.065 204.578C270.206 207.048 272.37 209.155 276.041 210.1C279.061 210.875 281.087 209.963 283.036 208.558C284.606 207.427 286.341 205.208 286.859 203.313H286.857ZM296.628 177.668C293.392 175.715 290.783 182.22 293.79 184.047C296.633 185.775 299.348 180.956 297.461 178.364C296.875 177.559 297.337 178.094 296.63 177.668H296.628ZM270.513 181.076L270.978 180.555C271.194 178.735 270.755 176.856 269.502 176.242C267.799 175.406 266.197 176.542 265.668 177.876C263.946 182.218 269.757 184.921 270.513 181.076ZM279.579 194.518C281.162 195.767 285.72 196.621 287.729 195.066C291.366 192.25 287.562 185.267 285.947 180.097C285.304 178.037 284.666 174.209 283.747 172.532C283.207 175.334 285.079 183.625 285.855 186.718C287.907 194.906 285.157 194.617 279.579 194.518ZM302.981 169.512C303.934 167.777 303.298 167.158 301.649 166.366C300.436 165.785 298.783 165.32 297.279 165.213C294.418 165.01 289.2 165.822 291.773 168.927C293.625 169.112 294.966 167.801 297.841 168.148C299.738 168.377 301.698 169.6 302.983 169.512H302.981ZM263.28 165.179L262.813 165.58C259.279 166.147 258.066 170.272 263.031 168.304C266.418 166.961 268.692 166.79 272.488 167.454C273.914 167.704 276.279 168.465 275.85 166.162C275.677 165.237 275.441 165.32 274.379 165.001C269.324 163.489 267.467 164.404 263.28 165.177V165.179Z" fill="#B88E7D"/>
<path fill-rule="evenodd" clip-rule="evenodd" d="M325.8 581.52C327.098 583.394 326.612 583.73 327.128 586.255C327.46 587.883 327.173 589.847 328.589 590.586C330.318 591.488 331.742 590.744 332.003 592.983C332.119 593.983 331.96 594.643 332.181 595.735C333.404 601.794 333.678 602.158 333.727 608.607C333.749 611.283 334.286 616.599 330.827 617.305C326.139 618.263 278.785 618.366 271.239 618.441C259.099 618.561 246.766 618.002 234.798 618.047C231.332 618.059 208.228 617.436 206.42 617.036C207.121 615.742 208.402 615.196 209.183 613.953C210.246 612.268 210.289 608.993 210.584 606.948L212.623 594.803C213.257 591.79 213.716 582.974 214.898 580.607C219.576 580.057 226.217 580.091 231.026 580.039C260.832 579.716 297.494 579.915 325.798 581.522L325.8 581.52Z" fill="#B6C3CF"/>
<path fill-rule="evenodd" clip-rule="evenodd" d="M317.813 513.04L317.83 514.546C315.341 513.608 286.152 514.505 281.091 514.754C269.058 515.343 256.079 515.377 243.761 515.411C237.702 515.429 231.61 515.829 225.53 515.281C219.781 514.762 217.671 510.38 217.089 504.473C216.697 500.502 216.009 469.278 215.212 468.559C215.93 467.659 214.979 467.982 216.189 467.982C221.522 469.687 235.344 471.084 241.486 470.803C247.04 470.55 255.62 471.073 261.703 470.565C268.292 470.017 275.092 469.025 281.939 469.537C290.432 470.173 298.449 470.857 306.568 472.921C308.691 473.461 316.312 475.961 317.734 475.931C317.449 479.244 316.892 481.879 317.029 485.149C317.154 488.152 316.892 491.553 316.967 494.657C317.124 501.044 317.374 506.686 317.809 513.04H317.813Z" fill="#6992B2"/>
<path fill-rule="evenodd" clip-rule="evenodd" d="M382.148 304.658C379.182 303.72 377.164 303.293 373.846 303.075C371.156 302.897 366.549 302.06 366.024 304.814C365.482 307.663 368.312 309.059 370.603 309.668C373.064 310.321 376.369 311.327 378.775 311.683C378.07 312.379 379.901 312.557 375.273 311.994C371.826 311.574 367.318 311.784 363.923 312.33C362.216 312.604 358.997 313.099 357.498 313.69C355.981 314.287 353.552 316.239 354.893 318.374C355.403 318.92 355.384 318.877 355.838 319.229C355.647 320.332 355.962 319.597 355.527 320.42C352.781 320.767 352.597 325.783 356.452 325.888C356.883 326.502 356.941 326.37 357.288 327.226L356.855 327.957C356.388 330.895 357.778 332.707 360.82 333.924C362.882 334.749 367.404 335.635 368.77 336.751L365.915 340.906C363.987 342.958 361.97 345.111 359.192 345.777C355.148 346.747 346.521 347.008 342.125 347.041C337.589 347.488 333.134 347.396 328.645 347.829C326.321 348.054 323.888 348.067 321.549 348.116C313.823 348.279 306.834 351.161 310.643 340.878C311.951 337.344 313.373 333.911 314.783 330.561C317.567 323.939 320.101 316.813 322.928 310.074C325.732 303.392 328.529 296.204 331.099 289.254L331.41 289.134C331.973 289.903 331.74 289.763 332.303 288.543L334.192 283.7C337.42 275.424 338.371 269.6 345.852 269.324C356.953 268.915 368.453 268.66 379.616 268.298C382.915 268.191 393.716 267.193 395.569 268.516C398.974 270.947 394.342 278.364 393.114 281.052C391.264 285.107 389.456 288.722 387.575 292.852C386.652 294.878 385.744 296.709 384.787 298.748C384.127 300.158 382.339 303.765 382.142 304.658H382.148Z" fill="#3A536D"/>
<path fill-rule="evenodd" clip-rule="evenodd" d="M87.8306 593.829C89.3214 595.953 90.0582 595.452 91.6603 596.294C92.3564 597.095 91.6988 596.675 92.8126 596.962C92.8468 596.971 93.7143 596.986 93.7271 596.984C96.0082 596.662 94.4618 596.182 94.4575 596.176L94.9223 595.88C95.8604 596.825 94.5025 595.994 95.1793 596.101C95.1836 596.101 95.1108 596.033 95.1108 595.988C95.1129 595.913 95.0315 595.87 94.9908 595.81C96.5715 595.058 96.4152 594.827 97.017 594.248C96.7386 595.024 97.0813 594.319 96.7236 594.882C96.1217 595.829 95.8004 595.748 95.4256 595.949C99.5123 595.793 97.8159 587.472 101.457 587.287C106.017 587.056 110.446 586.426 114.981 585.938C123.794 584.993 133.062 584.691 141.865 583.666C146.282 583.151 151.332 583.13 155.836 582.817C166.764 582.063 179.831 581.352 190.841 581.074C197.532 580.905 197.48 579.435 197.429 583.143C197.416 584.019 197.435 584.884 197.446 585.758C197.508 591.153 197.202 607.434 197.54 610.826C198.097 616.423 200.243 614.984 201.134 617.155C198.005 617.143 194 616.564 190.543 616.395C179.523 615.853 169.658 614.763 159.026 614.05C145.457 613.137 131.574 611.214 118.236 609.481C116.227 609.22 56.956 601.573 68.9546 593.736C71.7882 591.886 78.3658 590.312 82.0884 589.789L86.4277 589.256C86.8839 589.697 86.5862 591.732 86.6762 592.402C86.8175 593.447 87.3209 593.85 87.7835 594.52C87.9442 594.141 87.9185 594.471 87.8328 593.829H87.8306Z" fill="#B6C3CF"/>
<path fill-rule="evenodd" clip-rule="evenodd" d="M310.126 303.461L310.734 303.405C310.734 303.951 310.629 303.754 311.289 303.716L313.825 304.645C316.35 305.735 322.538 303.077 322.048 307.472C321.748 310.158 318.674 312.388 315.44 312.508C301.923 312.334 308.271 312.553 299.635 309.158C297.485 308.312 296.005 307.535 295 308.691C295.555 309.7 294.988 309.272 296.498 309.809C300.783 311.334 302.426 312.08 305.682 315.267C306.123 315.62 307.884 317.995 308.016 318.556C308.886 322.183 308.055 325.704 305.018 326.259C304.973 326.209 304.613 325.856 304.525 325.762C304.069 323.905 303.157 322.56 301.934 321.394L299.987 319.55C299.207 318.781 299.464 318.878 298.457 318.173C297.999 317.852 297.479 317.496 296.847 317.158L293.75 316.19C293.67 316.192 293.578 316.209 293.508 316.218L292.79 316.505C293.578 317.573 294.716 317.715 296.273 318.674C296.566 318.856 297.761 319.717 297.948 319.889C298.391 320.296 298.684 320.81 299.121 321.298C301.06 323.47 302.375 324.001 303.334 328.133L303.444 328.495C303.489 330.161 303.613 331.24 302.563 332.5C301.835 333.374 300.636 334.586 299.59 334.976C299.102 332.487 298.693 331.041 297.275 328.968C295.951 327.034 293.777 324.817 291.286 324.095C289.973 323.714 289.877 323.663 289.031 324.312C289.836 325.8 291.205 325.222 294.3 328.137C297.736 331.371 297.98 334.171 297.046 338.645L296.789 338.874L296.528 339.277C293.934 341.254 290.933 343.49 287.129 342.224L285 341.198C284.46 340.671 284.777 341.217 284.523 340.448L284.788 340.17L285.105 339.909L285.386 339.609L285.692 339.337L286.007 339.071L286.33 338.825L286.643 338.561L286.789 338.311C288.624 336.949 290.286 336.259 290.631 335.561C287.393 334.862 286.062 336.417 284.664 338.039L281.121 341.427C279.264 342.817 279.391 343.627 274.567 345.82C271.551 347.191 269.804 347.272 269.294 349.129C268.84 349.444 269.088 348.936 268.651 349.913L268.373 350.159C267.739 350.506 268.214 350.189 267.76 350.579L259.184 359.112C257.617 360.659 256.194 361.963 254.513 363.415C250.504 366.881 251.615 369.307 244.104 363.31C243.275 362.648 242.604 361.935 241.947 361.124C241.294 360.316 240.493 359.541 239.829 358.615C237.445 355.289 235.14 350.506 235.421 345.098L235.609 343.939L235.866 343.618L259.259 331.142C264.642 328.362 269.575 322.114 274.426 317.381C275.079 316.742 275.565 316.331 276.216 315.697C277.02 314.911 277.155 314.545 278.078 313.81C279.352 312.795 280.089 311.827 282.029 310.533C283.424 309.604 284.649 308.548 286.212 307.485C294.673 301.737 301.612 302.876 310.126 303.469V303.461Z" fill="#B78876"/>
<path fill-rule="evenodd" clip-rule="evenodd" d="M395.363 512.937C395.697 513.848 395.468 513.274 395.81 513.438L395.945 513.751C395.872 513.728 395.78 513.685 395.735 513.666L395.131 513.409C392.803 512.473 370.038 513.149 367.9 513.28C367.482 514.115 367.814 514.113 367.637 515.073C370.213 515.452 393.692 515.103 396.834 514.794L402.035 520.892C403.039 522.595 403.47 522.237 405.419 525.032C406.042 525.925 405.776 525.315 406.413 526.052L412.335 532.861C412.997 533.565 413.322 534.242 413.875 535.099C414.515 536.093 414.815 536.14 415.642 537.08C415.897 537.371 415.676 537.166 416.055 537.536L417.289 538.907C418.306 540.34 418.161 539.378 419.075 540.88C420.525 543.257 422.534 543.808 424.162 546.888L414.965 547.117L415.243 548.064C414.018 546.661 412.373 547.38 410.118 547.432C397.655 547.712 377.288 548.498 366.281 548.053L366.544 530.235C366.964 521.995 368.061 480.212 366.934 477.378C368.086 478.152 372.441 484.174 373.771 485.819L374.03 486.136C374.069 486.184 374.124 486.246 374.161 486.293C374.694 486.97 374.555 486.927 374.972 487.522L380.25 494.087C380.286 494.136 380.338 494.203 380.374 494.25L382.038 496.353C382.282 496.685 382.227 496.664 382.512 497.038C382.764 497.373 382.602 497.135 382.904 497.51L395.367 512.935L395.363 512.937Z" fill="#6992B2"/>
<path fill-rule="evenodd" clip-rule="evenodd" d="M471.414 551.928C472.457 552.825 473.363 554.147 474.466 555.183C475.704 556.35 476.946 557.201 478.023 558.105C478.424 558.801 480.024 560.019 480.679 560.296L481.352 560.782L481.474 560.915L482.53 561.652L482.626 561.795L483.303 562.247L489.761 566.469C492.031 567.85 494.167 569.067 496.533 570.386C498.247 571.341 510.145 577.077 510.569 577.514C510.744 581.29 503.567 585.715 498.015 586.371C485.479 587.848 465.789 583.154 453.981 577.396C450.396 575.648 449.916 575.606 447.097 573.41C447.046 573.37 446.962 573.299 446.887 573.252C446.665 570.161 443.107 563.945 441.672 561.337L434.97 551.028C436.257 549.642 450.891 539.918 453.812 537.821C454.324 537.453 454.847 537.035 455.279 536.693C456.003 536.119 456.042 536.149 456.821 535.635C457.918 534.913 458.603 534.144 459.869 533.531C461.745 536.063 463.279 539.974 465.292 543C466.38 544.637 466.989 546.046 468.175 547.627C468.916 548.614 469.186 548.85 469.762 549.786C470.405 550.827 470.566 551.309 471.416 551.928H471.414Z" fill="#B88E7D"/>
<path fill-rule="evenodd" clip-rule="evenodd" d="M366.6 613.867L366.184 613.165C366.632 612.46 365.773 611.792 365.101 610.785C363.608 608.551 364.126 608.491 363.529 609.076L363.329 608.849C363.816 608.063 363.267 606.598 363.072 607.806L362.7 607.495C363.098 606.861 363.008 607.718 363.008 606.457C362.616 606.883 362.575 606.123 362.727 607.02L362.383 606.656C363.179 605.176 362.436 606.215 362.393 606.232C360.851 604.054 361.502 594.233 360.988 590.836C361.13 590.978 361.483 591.22 361.579 591.359C362.425 589.894 364.67 590.391 363.436 589.536L363.869 589.271C364.353 589.742 363.214 589.718 364.829 589.639C365.058 589.031 364.961 589.536 364.959 588.637L364.062 589.245C365.497 587.463 364.308 586.124 365.073 584.516C365.443 585.781 365.086 586.844 365.251 588.311C365.259 588.382 365.298 588.607 365.304 588.568C365.311 588.529 365.332 588.741 365.366 588.823C365.893 585.683 364.794 584.668 367.242 584.58L377.975 585.7C389.443 586.655 401.786 588.801 413.104 590.819C417.169 591.543 420.559 592.323 424.421 593.109C427.064 593.646 427.418 593.145 428.615 595.527C429.197 596.683 429.874 599.198 430.264 600.509C432.515 608.044 439.232 607.14 441.549 602.775C442.556 600.879 442.16 599.318 442.201 596.782C443.409 596.904 445.619 598.603 446.15 599.414C450.744 606.431 416.616 610.937 413.933 611.312C406.162 612.398 398.477 613.111 390.674 613.82L370.145 615.457C368.468 615.38 368.54 614.525 367.673 615.352L367.073 614.332L366.765 613.97C367.182 613.97 367.054 613.876 367.073 614.332L366.78 613.116C366.57 613.426 366.371 612.991 366.593 613.867H366.6Z" fill="#B6C3CF"/>
<path fill-rule="evenodd" clip-rule="evenodd" d="M360.991 590.834C361.505 594.233 360.854 604.054 362.396 606.23L362.385 606.654L362.73 607.018L362.702 607.491L363.075 607.802L363.332 608.845L363.531 609.072C363.861 610.237 364.996 611.676 365.669 612.475L365.996 612.773L366.185 613.161L366.6 613.863L366.772 613.964L367.08 614.326L367.68 615.345L374.639 622.621C375.091 623.067 375.423 623.307 375.827 623.746C379.391 627.601 386.899 632.538 387.43 633.234C386.68 634.836 382.949 636.106 381.295 636.483C377.834 637.274 375.799 637.156 372.278 636.809C360.173 635.622 354.064 633.562 343.276 627.65C340.435 626.095 334.22 622.611 332.382 619.888L332.046 619.404C333.798 613.304 334.796 616.209 334.256 604.831C333.941 598.176 332.635 595.253 332.333 592.008C332.23 590.898 332.573 591.352 332.112 590.834C342.01 592.194 351.125 591.732 361.046 590.5L360.986 590.83L360.991 590.834Z" fill="#B88E7D"/>
<path fill-rule="evenodd" clip-rule="evenodd" d="M510.567 577.516C512.985 578.484 515.202 579.532 517.573 580.588C521.257 582.228 527.933 584.291 529.741 587.872C531.195 590.753 529.344 592.993 527.82 594.205C516.318 603.34 494.111 600.882 479.517 597.637C473.616 596.326 468.578 595.739 462.695 595.118C456.224 594.435 451.319 594.621 448.914 589.393C447.41 586.126 445.511 576.955 446.886 573.254C446.961 573.299 447.044 573.372 447.096 573.412C449.914 575.608 450.394 575.651 453.979 577.398C465.787 583.156 485.477 587.851 498.014 586.373C503.563 585.717 510.743 581.292 510.567 577.516Z" fill="#3A536D"/>
<path fill-rule="evenodd" clip-rule="evenodd" d="M387.432 633.238C388.978 633.555 397.314 639.237 398.649 640.251C400.032 641.302 402.174 643.041 402.622 645.301C404.1 652.787 388.82 653.444 384.033 653.485C371.505 653.592 365.861 649.268 355.951 645.402C351.556 643.688 346.377 642.857 341.622 641.816C339.12 641.268 336.751 640.576 334.442 639.717C331.943 638.785 330.557 637.543 330.193 634.922C329.043 626.635 331.752 622.199 332.05 619.408L332.386 619.892C334.224 622.615 340.44 626.099 343.28 627.654C354.066 633.564 360.177 635.626 372.282 636.813C375.804 637.158 377.836 637.278 381.3 636.487C382.953 636.11 386.684 634.84 387.434 633.238H387.432Z" fill="#3A536D"/>
<path fill-rule="evenodd" clip-rule="evenodd" d="M382.148 304.658C382.604 305.468 382.634 305.318 383.326 305.963L386.339 309.486C387.462 311.988 386.778 313.196 386.461 314.956C385.72 319.06 387.331 316.77 384.9 323.77C384.472 325.006 384.095 327.897 383.075 330.997C381.692 335.199 379.141 338.229 375.388 340.517L372.139 342.468C369.359 344.15 369.076 346.092 367.643 348.47C367.613 348.519 367.566 348.59 367.536 348.639C367.506 348.688 367.459 348.759 367.429 348.808L365.557 352.188C365.366 352.522 362.319 358.149 361.828 358.389C357.694 358.738 352.033 358.333 349.127 356.322C345.724 353.968 344.85 351.496 343.26 347.125L342.127 347.037C346.523 347.005 355.148 346.743 359.194 345.773C361.972 345.107 363.989 342.954 365.917 340.903L368.772 336.747C367.405 335.631 362.882 334.745 360.821 333.92C357.778 332.701 356.39 330.892 356.857 327.953C360.271 325.623 376.029 332.243 374.315 328.264C373.694 326.818 363.154 325.852 361.483 325.713C359.628 325.556 357.844 326.051 356.452 325.886C352.597 325.781 352.781 320.765 355.527 320.418C357.771 320.664 359.277 320.322 361.473 320.272C365.433 320.184 376.643 322.022 377.939 321.675C378.335 319.334 375.146 319.617 373.315 319.321C371.107 318.964 369.091 318.946 366.992 318.651C365.092 318.383 362.282 318.201 360.31 318.347C357.699 318.542 356.814 319.328 354.893 318.372C353.554 316.239 355.981 314.288 357.497 313.688C358.997 313.097 362.214 312.602 363.923 312.328C367.318 311.782 371.826 311.572 375.272 311.992C379.901 312.555 378.07 312.38 378.774 311.681C376.369 311.324 373.064 310.319 370.603 309.666C368.312 309.058 365.482 307.661 366.024 304.812C366.549 302.058 371.156 302.895 373.846 303.073C377.164 303.292 379.181 303.718 382.148 304.656V304.658ZM383.135 332.372C383.257 331.442 382.992 331.937 383.553 332.119L383.135 332.372Z" fill="#B78876"/>
<path fill-rule="evenodd" clip-rule="evenodd" d="M198.3 611.462C197.722 607.02 198.144 556.83 198.069 550.186C203.473 550.501 208.425 549.775 213.396 549.702L218.16 550.041C217.524 556.558 216.215 563.416 215.277 569.938L211.012 599.472C210.768 601.139 210.488 603.008 210.216 604.606C209.312 609.927 209.736 614.881 204.902 616.101C201.297 617.012 198.639 614.48 198.298 611.462H198.3Z" fill="#3A536D"/>
<path fill-rule="evenodd" clip-rule="evenodd" d="M111.601 538.359C111.363 540.327 110.371 543.424 109.851 545.502L97.0146 594.248C96.4128 594.826 96.5691 595.058 94.9884 595.809L94.9178 595.88L94.453 596.176L91.6557 596.293C90.0558 595.452 89.3168 595.955 87.8261 593.828C86.7573 589.774 88.141 583.697 88.5458 579.176C88.9806 574.339 89.5782 569.48 90.0943 564.637C91.1524 554.72 92.2212 544.636 93.018 534.782C95.7788 535.707 99.1758 536.05 102.301 536.634L111.596 538.356L111.601 538.359Z" fill="#3A536D"/>
<path fill-rule="evenodd" clip-rule="evenodd" d="M479.791 559.306L479.118 558.82C479.367 558.244 479.399 558.897 479.033 558.261C479.011 558.224 478.709 557.892 478.653 557.837C478.272 557.451 477.972 557.183 477.587 556.841C477.094 556.404 471.868 552.176 471.778 551.668C471.703 551.248 471.645 551.441 471.223 551.919L472.027 552.566C472.429 552.966 472.23 552.801 472.564 553.182C474.498 555.384 475.713 555.556 476.462 556.629C475.385 555.727 474.143 554.874 472.905 553.707C471.802 552.668 470.896 551.349 469.853 550.451C470.859 551.077 470.806 551.347 470.971 551.617L471.116 550.938C471.247 550.259 470.917 550.886 471.26 550.143L489.727 550.233C492.811 554.928 496 554.675 501.627 554.731L534.596 554.819C537.299 554.793 539.996 554.789 542.697 554.767C546.818 554.735 548.889 552.87 548.762 552.653L547.786 553.18C548.124 552.741 549.077 552.051 549.473 551.724C549.174 552.33 549.39 552.101 548.874 552.576C550.086 551.854 550.095 551.019 551.641 550.983C552.449 550.963 554.164 551.45 555.057 551.677C557.283 552.246 559.821 552.801 560.369 554.784C558.57 559.304 529.927 560.944 523.028 561.103C511.846 561.362 502.205 561.651 490.924 561.583C485.844 561.553 485.595 561.703 481.669 560.173C481.521 560.548 481.097 559.914 481.74 560.777L481.063 560.325C481.354 559.719 481.196 560.27 481.149 560.049C481.012 559.392 481.024 560.135 480.967 560.182L479.911 559.445L480.937 559.574C480.065 559.177 480.512 559.287 479.643 558.74C479.581 559.032 479.324 558.702 479.786 559.312L479.791 559.306Z" fill="#B6C3CF"/>
<path fill-rule="evenodd" clip-rule="evenodd" d="M197.412 550.251C191.173 550.585 188.54 550.182 182.453 549.079C177.66 548.209 172.802 547.578 167.996 546.749C168.992 546.07 175.045 547.451 176.912 547.691C180.029 548.089 183.391 548.931 186.703 548.942C186.341 547.485 186.769 548.569 186.118 547.67L183.511 545.369C182.554 544.455 181.622 543.155 180.673 541.852C175.072 534.165 172.125 522.79 170.403 513.16C164.954 482.716 162.851 450.837 159.833 419.932C158.713 408.463 159.76 397.411 168.891 390.876C170.581 389.668 175.306 386.905 177.994 387.764C178.077 391.694 169.3 388.053 163.862 400.052C160.591 407.265 161.47 415.424 162.256 423.987C164.744 451.087 168.165 494.672 173.886 519.937C175.931 528.973 180.194 541.445 187.688 546.434C189.211 547.447 190.734 547.757 191.841 548.893C194.272 551.386 195.767 549.203 197.414 550.253L197.412 550.251ZM166.927 546.337L166.289 546.494C166.666 546.183 166.321 546.224 167.118 546.2C167.842 546.179 167.529 546.209 167.957 546.404L166.925 546.337H166.927ZM164.959 546.132L164.048 546.145C164.522 545.785 163.245 545.888 165.094 545.913C165.719 545.922 165.83 545.978 166.248 546.128L164.959 546.134V546.132ZM163.151 545.748L160.519 545.596C160.971 545.271 160.251 545.496 161.127 545.38L163.151 545.748ZM159.58 545.228C158.124 545.442 156.543 544.971 155.025 544.757C155.588 544.303 154.099 544.431 156.053 544.493L159.58 545.228ZM153.708 544.401L151.292 544.17C151.656 543.859 151.279 543.945 152.086 543.9C152.53 543.876 152.626 543.951 153.048 544.022C153.442 544.091 154.489 544.226 154.958 544.395L153.705 544.399L153.708 544.401ZM149.779 543.765L148.961 543.846C149.402 543.504 148.351 543.557 150.058 543.579C150.6 543.585 150.857 543.682 151.232 543.81L149.779 543.765ZM148.233 543.549L145.132 543.298C146.072 542.641 147.691 543.234 148.886 543.343L148.233 543.549ZM144.088 542.855C142.486 543.058 141.287 542.694 139.687 542.439C140.152 542.056 138.691 541.91 142.266 542.416C143.403 542.576 144.178 542.523 145.108 542.938L144.088 542.857V542.855ZM138.376 542.088L135.913 541.872C136.671 541.248 138.839 541.758 139.651 542.077L138.376 542.088ZM134.279 541.413C132.325 541.555 115.189 538.965 112.98 538.31C112.28 537.682 113.916 537.982 112.023 537.751L135.812 541.454L134.277 541.411L134.279 541.413Z" fill="#4C6C96"/>
<path fill-rule="evenodd" clip-rule="evenodd" d="M318.649 207.119L318.552 208.1C318.531 208.157 318.452 208.252 318.405 208.327C318.387 208.247 318.349 208.053 318.338 208.095L318.04 207.207C312.315 191.432 310.368 188.662 311.557 168.844C312.266 157.019 311.242 149.674 305.237 139.905C302.187 134.943 303.099 136.427 299.987 133.319L296.378 129.68C295.095 128.472 296.532 129.276 293.947 127.496C292.276 126.345 290.651 124.906 288.83 123.94C288.05 123.527 287.598 123.195 286.874 122.726C282.608 119.954 274.859 117.395 269.669 116.307C258.943 114.058 247.822 116.87 238.944 122.844C238.893 122.878 238.822 122.923 238.771 122.957C234.847 125.454 228.308 131.869 225.639 135.825L218.832 146.916C213.983 156.865 212.171 163.967 208.438 172.093C205.105 179.345 205.088 179.378 201.141 185.362L194.45 193.73C190.883 197.99 188.688 199.282 186.006 202.927C185.327 203.85 185.415 203.576 184.567 204.364C183.597 205.264 182.997 206.577 182.012 207.877C181.365 208.731 181.393 208.886 180.911 209.667C180.191 210.833 179.332 212.133 178.743 213.557C174.7 223.335 174.261 232.739 179.425 242.652C180.108 243.963 180.879 245.098 181.566 246.267C183.663 249.838 183.359 247.777 184.657 247.807C184.03 247.63 184.188 247.514 184.188 248.167C183.802 248.679 183.381 249.116 182.768 249.307C181.922 247.452 176.97 242.733 175.306 233.144C173.089 220.364 177.923 211.207 185.21 202.409C189.62 197.082 194.402 193.398 199.198 186.615C203.743 180.187 202.329 182.055 205.868 175.657C206.493 174.524 207.241 172.746 207.748 171.457C216.215 149.979 221.272 133.405 240.326 121.023C248.255 115.872 259.598 113.572 269.29 115.396C279.913 117.397 289.368 122.248 297.119 128.969C307.841 138.265 313.804 152.213 312.525 166.895C310.118 194.514 318.13 201.299 318.651 207.125L318.649 207.119ZM187.651 246.274L185.098 247.634C184.912 247.522 184.186 247.764 186.086 246.664C187.771 245.685 187.405 246.109 187.651 246.272V246.274ZM188.731 245.657L188.622 245.635C188.596 245.603 188.538 245.501 188.54 245.543C188.54 245.567 188.497 245.486 188.5 245.488C188.722 245.588 188.354 245.357 188.733 245.659L188.731 245.657ZM191.729 244.239L189.168 245.333C188.51 244.948 188.87 245.113 190.007 244.541C190.016 244.537 190.793 244.177 190.823 244.168C192.241 243.793 191.203 243.905 191.729 244.239ZM193.758 243.363L192.147 243.926C191.644 243.686 191.436 243.817 192.582 243.354C192.833 243.254 192.987 243.232 193.188 243.228C193.873 243.219 193.336 243.123 193.758 243.361V243.363ZM195.148 242.761L194.212 242.892L193.773 242.935C193.794 242.825 194.432 242.618 194.437 242.615C195.21 242.56 194.683 242.446 195.148 242.761ZM196.602 242.181L195.623 242.307L195.133 242.298C195.452 242.116 195.613 242.033 195.844 242.026C196.555 242.007 196.214 241.947 196.602 242.179V242.181ZM198.009 241.596L197.052 241.722L196.621 241.75C196.934 241.547 197.065 241.463 197.292 241.45C198.065 241.41 197.564 241.3 198.009 241.596ZM199.611 241.058L198.526 241.157C197.902 241.11 197.425 241.11 198.543 240.913C199.046 240.825 197.969 240.823 198.909 240.889C199.635 240.941 199.067 240.756 199.611 241.058ZM200.338 240.735L200.055 240.619L199.464 240.581C200.976 240.24 199.879 240.354 200.338 240.733V240.735ZM202.826 239.908L200.804 240.474C200.083 240.065 199.937 240.356 201.229 239.844C201.319 239.808 201.79 239.696 201.905 239.694L202.826 239.908ZM205.118 238.962L203.274 239.493L202.659 239.435C203.34 239.18 203.514 239.045 204.105 238.897C205.859 238.458 204.743 238.597 205.118 238.964V238.962ZM208.646 237.82L205.675 238.681C205.08 238.402 204.76 238.636 206.849 237.942C206.984 237.897 207.746 237.664 207.755 237.664C208.614 237.537 208.243 237.464 208.646 237.822V237.82ZM214.105 236.151L209.171 237.539C208.22 237.085 208.851 237.338 211.231 236.526C213.827 235.64 213.216 235.4 214.105 236.151ZM216.521 235.322L214.564 235.755C213.514 235.556 213.713 235.575 214.748 235.173C215.958 234.704 215.71 234.731 216.521 235.322ZM243.082 169.39C238.991 169.497 241.617 169.504 238.837 167.854C229.949 162.579 223.761 180.048 234.419 188.483C235.121 189.039 235.618 189.271 236.464 189.626C237.7 190.147 238.34 190.07 238.741 190.588C239.9 192.398 238.936 203.51 238.482 206.23C237.651 211.229 236.693 214.988 234.853 219.389C231.598 227.179 226.108 232.478 216.926 234.963L216.08 234.736C219.957 233.729 224.365 231.581 227.258 229.139C239.216 219.049 239.705 192.811 237.972 190.978C236.961 189.909 234.018 189.954 230.835 185.411C224.478 176.334 230.786 160.986 240.381 168.341C241.51 169.206 242.358 168.812 243.084 169.39H243.082Z" fill="#120B11"/>
<path fill-rule="evenodd" clip-rule="evenodd" d="M216.192 467.98C214.982 467.982 215.933 467.659 215.215 468.556C216.012 469.276 216.699 500.5 217.091 504.471C217.674 510.378 219.784 514.76 225.532 515.278C231.613 515.827 237.702 515.426 243.764 515.409C256.082 515.375 269.061 515.34 281.094 514.751C286.155 514.505 315.344 513.608 317.833 514.544L317.816 513.038L318.171 517.981C318.471 517.281 318.109 516.583 317.805 515.767C315.319 516.497 284.662 516.765 279.629 516.827C270.663 516.938 229.786 518.821 222.819 516.705C217.653 515.135 215.969 511.042 215.142 504.86C214.001 496.336 214.258 485.697 213.821 476.723C213.675 473.724 213.78 470.124 213.527 467.132C214.123 467.622 215.271 467.864 216.194 467.978L216.192 467.98Z" fill="#4C6C96"/>
<path fill-rule="evenodd" clip-rule="evenodd" d="M436.983 492.447C436.069 491.481 436.337 490.962 435.287 489.911L435.606 488.062C435.255 485.004 435.568 486.07 435.589 483.089C435.606 480.694 435.593 478.244 435.57 475.847C435.473 466.055 429.671 456.408 419.583 455.018C415.182 454.412 416.452 455.283 414.794 452.835C417.272 452.621 420.626 453.032 422.702 453.726C423.721 454.067 424.826 454.495 425.794 454.96C427.112 455.594 427.531 456.183 429.033 456.38C429.099 439.515 429.187 422.826 429.523 406.158C429.75 394.911 429.532 383.679 437.371 375.913C438.412 374.883 442.374 371.914 444.082 371.719C445.3 371.58 444.553 371.612 444.855 371.966C446.453 373.615 440.239 374.24 436.176 380.244C429.663 389.869 431.787 415.374 431.267 428.979C431.044 434.816 431.406 452.021 431.076 455.618C430.856 458.027 430.093 457.348 431.552 459.254C438.793 468.704 437.615 476.807 437.386 488.88C437.311 492.772 436.699 490.799 436.983 492.451V492.447Z" fill="#4C6C96"/>
<path fill-rule="evenodd" clip-rule="evenodd" d="M101.688 374.292C99.1888 374.262 99.0218 369.663 98.1736 365.562C94.7552 349.061 91.5446 328.049 89.4006 311.322C88.9294 307.644 89.0322 303.56 89.9532 300.004C92.6476 289.593 97.531 288.804 94.7509 293.602C93.937 295.005 93.2838 296.346 92.7119 297.961C91.4632 301.475 91.0969 305.005 91.2704 309.285C91.4097 312.733 92.2514 316.76 92.6948 320.268C94.4147 333.854 97.2976 349.984 99.8314 363.48C100.288 365.915 101.881 372.206 101.688 374.294V374.292Z" fill="#4C6C96"/>
<path fill-rule="evenodd" clip-rule="evenodd" d="M235.868 343.612L235.611 343.933L235.423 345.092L231.385 346.596C226.618 348.68 215.724 352.379 210.547 354.096C208.701 354.709 203.704 356.774 201.958 355.992C201.967 354.784 202.77 354.658 203.987 354.255L213.799 351.006C214.002 347.56 209.339 314.412 208.476 308.182C208.157 305.873 207.898 303.401 207.517 301.081C207.315 299.852 206.172 295.149 206.913 294.395C208.562 292.833 208.849 298.051 209.039 299.407L212.04 320.986C213.295 330.478 215.062 340.491 215.855 349.909C219.672 349.721 233.936 342.663 235.87 343.614L235.868 343.612Z" fill="#D77467"/>
<path fill-rule="evenodd" clip-rule="evenodd" d="M179.836 384.619L180.088 384.78C180.112 385.232 180.016 385.114 180.485 384.973L181.933 385.281C182.181 386.039 182.074 386.247 182.884 386.26C182.907 386.26 182.988 386.234 183.029 386.202C181.048 386.376 180.797 387.166 178.497 386.821L164.164 384.159C146.183 381.306 126.275 379.357 107.895 377.646C103.085 377.198 103.595 375.313 106.951 375.598C123.979 377.044 145.161 379.181 161.555 381.709C164.656 382.186 177.884 384.913 179.831 384.619H179.836Z" fill="#4C6C96"/>
<path fill-rule="evenodd" clip-rule="evenodd" d="M271.802 225.864C271.65 228.304 271.142 229.835 271.217 232.568L270.661 231.75C268.084 232.467 262.922 229.642 261.224 228.507C259.968 227.667 258.559 226.676 257.642 225.703L251.915 218.948C249.694 215.459 247.098 209.393 246.389 205.868C247.983 207.294 249.094 210.297 251.279 212.687L255.593 217.029C256.621 218.282 258.81 219.847 260.213 220.79L263.616 222.87C266.428 224.303 268.463 224.982 271.802 225.864Z" fill="#94654B"/>
<path fill-rule="evenodd" clip-rule="evenodd" d="M280.526 224.737C283.901 223.968 288.605 219.929 290.096 218.23C292.989 214.932 294.634 212.396 296.885 208.81C301.529 201.41 303.165 193.237 303.559 183.177C304.011 171.639 306.701 157.008 298.569 148.909C294.007 144.367 294.531 145.296 289.873 141.402C288.303 140.089 286.744 139.248 285.707 137.511C285.433 136.853 285.424 137.298 285.703 136.954C288.616 139.909 290.914 141.561 294.499 144.296C302.893 150.7 304.945 156.95 304.855 166.978C304.81 171.973 304.495 177.854 304.206 182.87C303.57 193.912 302.272 201.128 297.348 209.014C293.55 215.095 288.967 221.597 282.374 224.705C281.07 225.32 281.434 225.378 280.526 224.737ZM304.667 247.447C301.64 245.654 298.224 244.11 294.613 242.801C290.826 241.429 286.705 240.696 283.04 239.4C280.826 239.049 277.529 238.319 275.503 237.616C272.742 236.661 271.633 235.75 271.217 232.566C271.143 229.833 271.65 228.301 271.802 225.862C274.82 226.607 277.461 225.748 280.155 225.095C281.794 225.525 280.554 225.365 280.494 225.51C275.452 227.185 273.263 226.108 272.46 226.92C271.498 228.138 271.603 231.191 271.879 232.904C272.88 239.105 284.523 237.944 296.074 242.793C297.693 243.472 299.383 244.117 300.929 244.858C301.76 245.256 302.409 245.648 303.195 246.07C303.377 246.166 304.273 246.605 304.373 246.678C305.573 247.516 305.294 246.749 304.667 247.447ZM322.667 221.349C323.365 228.269 322.453 234.011 320.191 239.653C318.235 244.532 314.459 249.902 311.133 251.999C310.167 251.667 309.394 250.546 308.406 249.835C307.457 249.154 306.29 248.754 305.652 247.905C305.652 247.173 305.813 247.334 305.08 247.541C305.735 247.327 305.703 247.514 306.432 248.008C306.967 248.372 307.494 248.683 308.023 249.051C309.049 249.765 309.891 250.478 310.857 251.067C311.977 250.57 312.763 249.364 313.502 248.563C314.648 247.319 313.952 248.638 315.956 245.836C317.199 244.099 318.554 241.431 319.484 238.972C322.17 231.874 322.221 228.085 321.945 220.239C322.495 222.032 322.196 220.715 322.665 221.344L322.667 221.349Z" fill="#120B11"/>
<path fill-rule="evenodd" clip-rule="evenodd" d="M203.39 398.841C202.554 398.096 202.306 397.713 201.661 396.779C201.398 396.395 201.156 396.04 200.931 395.766C200.316 395.014 200.504 395.513 200.016 394.68C201.432 395.819 201.119 395.866 203.557 395.564C209.292 394.853 223.114 387.286 227.327 384.532C231.416 381.857 235.35 379.147 239.056 376.309C240.955 374.853 248.895 368.269 250.375 367.735L250.923 368.547C250.21 370.952 231.347 384.2 229.248 385.549C222.801 389.696 217.646 392.628 210.237 395.438C208.192 396.213 204.696 398.019 202.905 397.402L203.39 398.839V398.841Z" fill="#D77467"/>
<path fill-rule="evenodd" clip-rule="evenodd" d="M315.264 313.243C315.245 313.877 315.238 316.531 315.136 317.126C313.122 328.96 313.859 327.683 309.95 339.969C308.277 345.229 309.063 347.131 307.288 348.453L307.519 348.963C307.581 349.085 307.883 349.62 307.903 349.661C308.252 350.389 308.337 349.747 308.183 350.918C308.151 350.888 308.145 350.768 308.134 350.796C307.909 351.419 308.016 350.554 307.967 350.483L307.142 349.472L306.59 353.626C306.264 352.878 306.772 349.834 306.829 348.873C307.369 339.819 307.2 343.302 309.631 334.282C311.439 327.576 311.734 327.022 312.771 320.054C312.887 319.275 313.013 318.441 313.135 317.531C313.227 316.848 313.349 314.023 313.238 313.243H315.262H315.264Z" fill="#D77467"/>
<path fill-rule="evenodd" clip-rule="evenodd" d="M315.44 312.508L316.974 312.294C315.834 312.444 317.95 314.372 309.12 314.359C305.369 314.353 304.412 314.083 303.763 313.701C302.75 313.108 302.786 312.048 296.498 309.81C294.988 309.272 295.555 309.7 295 308.692C296.005 307.535 297.485 308.313 299.635 309.159C308.271 312.553 301.923 312.335 315.44 312.508Z" fill="#94654B"/>
<path fill-rule="evenodd" clip-rule="evenodd" d="M286.859 203.313C286.339 205.208 284.606 207.427 283.036 208.558C281.087 209.963 279.061 210.877 276.041 210.1C272.37 209.155 270.206 207.048 268.065 204.578C267.191 203.57 266.642 202.861 266.135 201.539C271.976 202.289 278.101 204.512 284.176 204.017C285.615 203.899 285.574 203.55 286.857 203.313H286.859Z" fill="#FFFFFD"/>
<path fill-rule="evenodd" clip-rule="evenodd" d="M382.72 304.675L382.146 304.656C382.343 303.76 384.131 300.154 384.791 298.746C385.746 296.707 386.656 294.876 387.58 292.85C389.458 288.72 391.268 285.105 393.118 281.05C394.346 278.362 398.979 270.945 395.573 268.514C393.718 267.191 382.919 268.189 379.621 268.296C368.455 268.658 356.958 268.913 345.856 269.322C338.375 269.598 337.424 275.42 334.196 283.698L332.307 288.54C331.744 289.761 331.977 289.901 331.414 289.132L331.375 289.11C332.457 285.341 334.73 280.401 336.282 276.563C338.328 271.504 339.506 268.917 345.854 268.581C357.103 267.987 368.528 267.994 379.805 267.51C383.476 267.351 393.395 266.295 395.839 267.964C399.784 270.658 395.245 277.908 393.945 280.714C392.043 284.816 390.304 288.592 388.299 292.717L382.724 304.677L382.72 304.675Z" fill="#3A536D"/>
<path fill-rule="evenodd" clip-rule="evenodd" d="M395.363 512.938L395.811 513.439C395.468 513.276 395.699 513.85 395.363 512.938ZM395.944 513.749C395.986 513.794 396.044 513.814 396.059 513.895C396.074 513.968 396.291 514.18 396.299 514.191C396.85 514.842 395.995 514.073 396.832 514.792C393.69 515.101 370.211 515.45 367.635 515.071C367.813 514.111 367.481 514.114 367.898 513.278C370.038 513.148 392.804 512.471 395.13 513.407L395.734 513.664C395.779 513.683 395.873 513.726 395.944 513.749Z" fill="#4C6C96"/>
<path fill-rule="evenodd" clip-rule="evenodd" d="M279.582 194.518C285.159 194.616 287.907 194.908 285.857 186.717C285.082 183.624 283.21 175.333 283.75 172.532C284.671 174.209 285.307 178.036 285.949 180.097C287.564 185.267 291.368 192.25 287.731 195.066C285.722 196.621 281.164 195.766 279.582 194.518Z" fill="#94654B"/>
<path fill-rule="evenodd" clip-rule="evenodd" d="M313.825 304.645L311.289 303.716L312.215 303.195C311.628 296.746 306.035 280.903 307.068 279.44C308.479 279.459 309.207 283.023 309.689 284.645L313.174 297.922C313.624 300.002 313.671 303.381 314.87 304.574L313.825 304.645Z" fill="#D77467"/>
<path fill-rule="evenodd" clip-rule="evenodd" d="M355.527 320.416C355.962 319.595 355.647 320.328 355.838 319.225C355.386 318.874 355.403 318.916 354.893 318.37C356.814 319.325 357.699 318.539 360.31 318.344C362.285 318.197 365.093 318.381 366.992 318.649C369.091 318.944 371.107 318.961 373.315 319.319C375.146 319.615 378.336 319.332 377.939 321.673C376.644 322.02 365.433 320.182 361.473 320.27C359.275 320.319 357.772 320.662 355.527 320.416Z" fill="#94654B"/>
<path fill-rule="evenodd" clip-rule="evenodd" d="M286.789 338.308L286.643 338.559L286.33 338.822L286.007 339.069L285.692 339.334L285.386 339.606L285.105 339.906L284.788 340.167L284.523 340.446C282.203 343.22 281.179 344.19 277.999 346.077C276.934 346.707 272.961 348.778 271.732 348.953C269.076 349.332 270.044 348.506 269.056 349.6L269.29 349.123C269.802 347.263 271.547 347.182 274.563 345.813C279.389 343.622 279.26 342.813 281.117 341.42L284.66 338.032C286.058 336.409 287.389 334.856 290.627 335.554C290.282 336.252 288.62 336.942 286.785 338.304L286.789 338.308Z" fill="#94654B"/>
<path fill-rule="evenodd" clip-rule="evenodd" d="M356.855 327.95L357.287 327.22C356.94 326.365 356.883 326.498 356.452 325.881C357.844 326.046 359.629 325.551 361.483 325.708C363.154 325.849 373.694 326.813 374.315 328.259C376.029 332.238 360.271 325.618 356.857 327.948L356.855 327.95Z" fill="#94654B"/>
<path fill-rule="evenodd" clip-rule="evenodd" d="M299.59 334.974C299.483 336.358 299.224 336.283 298.44 337.045C298.023 337.452 297.099 338.615 297.048 338.643C297.98 334.169 297.738 331.369 294.302 328.135C291.205 325.22 289.839 325.798 289.033 324.31C289.879 323.659 289.976 323.712 291.289 324.093C293.78 324.815 295.954 327.032 297.277 328.966C298.695 331.039 299.104 332.487 299.593 334.974H299.59Z" fill="#94654B"/>
<path fill-rule="evenodd" clip-rule="evenodd" d="M304.528 325.762C305.061 326.998 305.436 326.85 304.902 328.171L303.446 328.495L303.337 328.133C302.377 324.001 301.062 323.47 299.124 321.298C298.687 320.81 298.393 320.294 297.95 319.889C297.762 319.718 296.569 318.857 296.275 318.674C294.718 317.713 293.581 317.574 292.792 316.505L293.51 316.218C293.581 316.209 293.673 316.192 293.752 316.19L296.849 317.158C297.481 317.496 298.001 317.854 298.46 318.173C299.469 318.878 299.209 318.782 299.989 319.55L301.936 321.395C303.159 322.56 304.071 323.905 304.528 325.762Z" fill="#94654B"/>
<path fill-rule="evenodd" clip-rule="evenodd" d="M262.815 165.579L263.281 165.179C264.185 166.276 266.565 164.318 269.773 164.639L274.58 165.672C275.777 166.346 275.419 165.723 275.22 166.922L274.41 167.119C272.727 167.261 269.514 165.95 265.453 167.021C264.451 167.284 261.953 168.475 261.107 168.199C258.734 167.421 262.579 166.063 263.556 165.843L262.815 165.579Z" fill="#432D28"/>
<path fill-rule="evenodd" clip-rule="evenodd" d="M296.577 178.032C298.794 179.294 297.479 185.591 293.927 183.654C291.657 182.417 293.169 176.092 296.577 178.032Z" fill="#432D28"/>
<path fill-rule="evenodd" clip-rule="evenodd" d="M270.98 180.555L270.515 181.076L270.562 180.645C268.425 184.833 266.394 181.149 265.989 180.84C265.424 175.291 269.256 175.85 270.243 177.548C271.018 178.88 270.386 179.607 270.98 180.555Z" fill="#432D28"/>
<path fill-rule="evenodd" clip-rule="evenodd" d="M302.75 168.689C300.546 168.674 299.421 167.719 297.275 167.618C295.007 167.511 293.544 168.707 291.807 168.128C291.8 168.109 290.959 167.708 291.97 166.633C292.852 165.693 298.781 165.136 301.861 166.995C302.85 167.593 302.55 167.338 302.75 168.689Z" fill="#432D28"/>
<path fill-rule="evenodd" clip-rule="evenodd" d="M263.28 165.177C267.467 164.402 269.326 163.489 274.379 165.001C275.439 165.318 275.677 165.237 275.85 166.162C276.279 168.465 273.916 167.704 272.487 167.454C268.692 166.788 266.417 166.961 263.031 168.304C258.066 170.272 259.279 166.147 262.813 165.58L263.554 165.843C262.575 166.062 258.733 167.42 261.106 168.199C261.952 168.478 264.449 167.287 265.451 167.021C269.512 165.95 272.725 167.261 274.409 167.12L275.218 166.923C275.415 165.725 275.775 166.346 274.578 165.672L269.772 164.639C266.563 164.316 264.184 166.274 263.28 165.179V165.177Z" fill="#120B11"/>
<path fill-rule="evenodd" clip-rule="evenodd" d="M302.75 168.69C302.551 167.338 302.85 167.591 301.861 166.996C298.781 165.136 292.852 165.693 291.97 166.634C290.959 167.709 291.803 168.109 291.807 168.129C293.544 168.707 295.007 167.514 297.275 167.619C299.421 167.719 300.546 168.675 302.75 168.69ZM302.983 169.512C301.698 169.6 299.738 168.375 297.841 168.148C294.966 167.803 293.626 169.114 291.773 168.927C289.2 165.822 294.418 165.01 297.279 165.213C298.783 165.321 300.439 165.785 301.649 166.366C303.298 167.158 303.934 167.777 302.981 169.512H302.983Z" fill="#120B11"/>
<path fill-rule="evenodd" clip-rule="evenodd" d="M270.515 181.076C269.759 184.92 263.948 182.217 265.67 177.876C266.199 176.541 267.801 175.408 269.504 176.242C270.757 176.856 271.198 178.735 270.98 180.555C270.386 179.606 271.018 178.88 270.243 177.548C269.255 175.85 265.424 175.291 265.989 180.84C266.392 181.149 268.424 184.833 270.562 180.645L270.515 181.076Z" fill="#120B11"/>
<path fill-rule="evenodd" clip-rule="evenodd" d="M296.577 178.032C293.167 176.094 291.655 182.419 293.927 183.655C297.478 185.589 298.793 179.292 296.577 178.032ZM296.63 177.67C297.337 178.097 296.874 177.561 297.461 178.367C299.348 180.958 296.632 185.777 293.79 184.049C290.783 182.222 293.392 175.717 296.628 177.67H296.63Z" fill="#120B11"/>
</svg>
